<svg width="18" height="18" viewBox="0 0 18 18" fill="none" xmlns="http://www.w3.org/2000/svg">
<path d="M12.5812 11.5103C13.6186 10.0946 14.0833 8.33948 13.8822 6.59597C13.6811 4.85245 12.8291 3.24915 11.4967 2.10683C10.1643 0.964506 8.44966 0.367402 6.69589 0.434978C4.94212 0.502554 3.27854 1.22983 2.03796 2.47129C0.79738 3.71276 0.0712991 5.37686 0.00497824 7.13068C-0.0613426 8.8845 0.536987 10.5987 1.68026 11.9303C2.82354 13.2619 4.42745 14.1127 6.17111 14.3126C7.91476 14.5124 9.66958 14.0465 11.0845 13.0081H11.0834C11.1155 13.0509 11.1498 13.0916 11.1884 13.1313L15.3132 17.2561C15.5141 17.4572 15.7867 17.5702 16.0709 17.5703C16.3551 17.5704 16.6277 17.4576 16.8287 17.2567C17.0298 17.0558 17.1428 16.7832 17.1429 16.499C17.143 16.2148 17.0302 15.9422 16.8293 15.7412L12.7044 11.6163C12.6661 11.5776 12.6249 11.5428 12.5812 11.5103ZM12.8576 7.39185C12.8576 8.16568 12.7052 8.93194 12.4091 9.64686C12.1129 10.3618 11.6789 11.0114 11.1317 11.5586C10.5845 12.1058 9.93493 12.5398 9.22 12.8359C8.50507 13.1321 7.73882 13.2845 6.96499 13.2845C6.19115 13.2845 5.4249 13.1321 4.70997 12.8359C3.99504 12.5398 3.34545 12.1058 2.79826 11.5586C2.25108 11.0114 1.81703 10.3618 1.5209 9.64686C1.22477 8.93194 1.07235 8.16568 1.07235 7.39185C1.07235 5.82902 1.69318 4.33021 2.79826 3.22513C3.90335 2.12004 5.40216 1.49921 6.96499 1.49921C8.52781 1.49921 10.0266 2.12004 11.1317 3.22513C12.2368 4.33021 12.8576 5.82902 12.8576 7.39185Z" fill="#777777"/>
</svg>
