<?xml version="1.0" encoding="utf-8"?>
<!-- Generator: Adobe Illustrator 24.1.1, SVG Export Plug-In . SVG Version: 6.00 Build 0)  -->
<svg version="1.1" id="Layer_1" xmlns="http://www.w3.org/2000/svg" xmlns:xlink="http://www.w3.org/1999/xlink" x="0px" y="0px"
	 viewBox="0 0 27.3 27.3" style="enable-background:new 0 0 27.3 27.3;" xml:space="preserve">
<style type="text/css">
	.st0{fill:#FFFFFF;}
</style>
<g id="그룹_4881" transform="translate(1.229 1.251)">
	<path id="패스_8593" class="st0" d="M2.3,18.5c0-0.1-0.1-0.1-0.2-0.1H2l0,0l0,0c0,0,0,0,0,0.1c0.1,0.1,0.2,0.3,0.3,0.4h0.1h0.1
		l0,0l0,0c0,0,0,0,0-0.1C2.5,18.7,2.4,18.6,2.3,18.5z"/>
	<path id="패스_8594" class="st0" d="M1.3,14.4c0,0-0.1-0.1-0.2-0.1l0,0l0,0l0,0v0.1c0.1,0.1,0.1,0.2,0.2,0.4c0,0.1,0,0.2,0,0.2
		c0,0.3-0.2,0.6-0.6,0.7c-0.1,0-0.1,0-0.2,0c-0.3,0-0.6-0.2-0.7-0.5c0-0.1,0-0.1,0-0.2s0-0.1,0-0.2l0,0c0-0.1-0.1-0.1-0.2-0.1l0,0
		l0,0c0,0.1-0.1,0.2-0.1,0.3c0,0.1,0,0.2,0,0.3c0.1,0.5,0.5,0.9,1,0.9l0,0c0.1,0,0.2,0,0.3,0c0.4-0.1,0.9-0.4,0.7-1
		c0-0.1,0-0.2,0-0.3C1.6,14.6,1.5,14.5,1.3,14.4z"/>
	<path id="패스_8595" class="st0" d="M0.7,13.7c0.2,0,0.3,0,0.5,0h0.1c0,0,0.1,0,0.1-0.1l0,0v-0.1v-0.1H1.3l0,0H0.6v-0.5
		c0-0.2,0-0.3,0-0.4h0.9c0,0,0,0,0.1,0c0,0,0,0,0-0.1l0,0c0-0.1,0-0.1,0-0.2c0,0,0,0-0.1,0c-0.1,0-0.1,0-0.3,0h-1
		c-0.2,0-0.3,0-0.4,0h-0.4l0,0l0,0v0.1v0.1h0.1l0,0h0.7v1h-0.6h-0.1l-0.1,0.1l0,0v0.1c0,0,0,0,0.1,0l0,0c0,0,0.2,0,0.4,0L0.7,13.7z"
		/>
	<path id="패스_8596" class="st0" d="M0.3,11.1c0.1,0,0.1,0,0.2,0l0,0c0.5,0,1-0.3,1-0.9c0-0.1,0-0.1,0-0.2c0-0.5-0.4-1-0.9-1
		c-0.1,0-0.1,0-0.2,0c-0.5,0-1,0.3-1,0.9c0,0.1,0,0.1,0,0.2C-0.6,10.7-0.1,11.1,0.3,11.1z M-0.4,10L-0.4,10L-0.4,10
		c0.1-0.3,0.4-0.5,0.7-0.5c0.1,0,0.1,0,0.2,0c0.5,0.1,0.6,0.3,0.6,0.6v0.1c-0.1,0.3-0.4,0.5-0.7,0.5c-0.1,0-0.1,0-0.2,0
		c-0.4-0.1-0.6-0.3-0.6-0.6C-0.4,10.1-0.4,10.1-0.4,10L-0.4,10z"/>
	<path id="패스_8597" class="st0" d="M2,8.5c0-0.1,0-0.1-0.1-0.1L1.2,8l0,0c0.1-0.2,0.1-0.2,0.4-0.3c0.2,0,0.2,0,0.4-0.1
		c0.1,0,0.2-0.1,0.3-0.2V7.3l0,0l0,0l0,0c0,0,0,0-0.1,0c-0.2,0-0.4,0.1-0.5,0.1s-0.2,0-0.4,0.1C1.3,7.3,1.2,7.1,1,7
		C0.9,7,0.8,6.9,0.8,6.9C0.5,7,0.3,7.2,0.2,7.4c0,0.2-0.1,0.3-0.1,0.5V8c0.1,0,0.1,0.1,0.3,0.1l1,0.3c0.2,0.1,0.4,0.2,0.5,0.2l0,0
		l0,0l0,0C1.9,8.7,1.9,8.6,2,8.5L2,8.5z M0.7,7.3c0.1,0,0.1,0,0.1,0C0.9,7.3,1,7.5,1,7.6l0,0c0,0.1-0.1,0.2-0.1,0.3L0.4,7.7l0.1-0.2
		C0.5,7.4,0.6,7.3,0.7,7.3L0.7,7.3z"/>
	<path id="패스_8598" class="st0" d="M20.7,5h0.1l0.5-0.4l0,0c0.2,0.1,0.2,0.3,0.1,0.4c0,0.2-0.1,0.2-0.1,0.4c0,0.1,0,0.2,0,0.3
		l0.1,0.1l0,0l0,0l0,0c0,0,0,0,0-0.1c0-0.2,0.1-0.4,0.1-0.5c0-0.1,0.1-0.2,0.1-0.4c0.2,0.1,0.4,0,0.6-0.1c0.2,0,0.2,0,0.3-0.1
		c0.1-0.2,0-0.5-0.2-0.7c-0.1-0.1-0.2-0.2-0.3-0.3H22c-0.1,0.1-0.1,0.1-0.2,0.2L21,4.3c-0.2,0.2-0.3,0.3-0.4,0.3l0,0l0,0l0,0
		C20.6,4.9,20.6,4.9,20.7,5L20.7,5z M22.3,4.4l-0.1,0.1c-0.1,0.1-0.2,0.1-0.4,0.1l0,0c-0.1-0.1-0.2-0.2-0.2-0.2L22.1,4
		c0,0,0.1,0.1,0.2,0.2C22.3,4.1,22.4,4.2,22.3,4.4L22.3,4.4z"/>
	<path id="패스_8599" class="st0" d="M2.9,4.8C2.7,4.6,2.5,4.5,2.3,4.5C2,4.5,1.7,4.8,1.5,5l0,0C1.3,5.2,1.3,5.4,1.3,5.5
		c0,0.3,0.2,0.6,0.5,0.9C2,6.6,2.2,6.6,2.4,6.6l0,0c0.3,0,0.6-0.2,0.9-0.4C3.4,6,3.4,5.8,3.4,5.6C3.4,5.3,3.3,4.9,2.9,4.8z M2.4,6.3
		C2.2,6.3,2.1,6.2,2,6.2C1.8,6,1.6,5.8,1.6,5.5c0-0.1,0-0.2,0.1-0.3l0,0C1.8,5,2,4.9,2.2,4.9S2.5,5,2.7,5c0.2,0.1,0.4,0.4,0.4,0.6
		c0,0.1,0,0.2-0.1,0.4C2.8,6.2,2.6,6.3,2.4,6.3z"/>
	<path id="패스_8600" class="st0" d="M5.3,3.7L5.3,3.7c0-0.1,0-0.2,0-0.2l0,0l0,0H5.2C5.1,3.7,5,3.8,4.9,3.9
		C4.6,4,4.5,4.1,4.3,4.1c-0.4,0-0.9-0.3-0.9-0.7c0-0.2,0.1-0.4,0.2-0.5S3.9,2.6,4,2.6l0,0l0.1-0.1V2.4l0,0l0,0c-0.2,0-0.4,0-0.5,0.2
		C3.4,2.8,3.2,3.1,3.2,3.4c0,0.5,0.4,1.1,1.1,1.1c0.3,0,0.5-0.1,0.7-0.3C5.1,4,5.2,3.9,5.3,3.7z"/>
	<path id="패스_8601" class="st0" d="M6.7,1.2C7,1.6,7.5,2.1,7.7,2.3c0,0,0,0,0.1,0c0,0,0.1,0,0.1-0.1V2.1l0,0c0-0.4,0-1.1,0-1.4
		l0.3,0.6c0.1,0.2,0.2,0.3,0.3,0.4l0.1,0.1l0,0l0.1-0.1V1.7c0-0.1-0.1-0.3-0.3-0.5l-0.6-1L7.7,0.1l0,0L7.6,0.2v0.1l0,0
		c0,0.3,0,0.9,0,1.5L6.9,1C6.7,0.8,6.6,0.7,6.4,0.7c0,0,0,0-0.1,0L6.2,0.8l0,0l0,0l0,0c0.2,0.7,0.4,1.5,0.4,1.8c0,0,0,0,0.1,0.1l0,0
		l0,0h0.1L7,2.6l0,0C6.9,2.3,6.8,1.7,6.7,1.2z"/>
	<path id="패스_8602" class="st0" d="M9.6,1.5L9.6,1.5C9.6,1.6,9.6,1.6,9.6,1.5L9.6,1.5c0.3,0,0.4,0,0.6,0c0.1,0,0.2,0,0.3-0.1
		c0.1,0,0.1-0.1,0.1-0.2c0,0,0,0,0-0.1l0,0c0,0,0,0-0.1,0s-0.2,0.1-0.4,0.1c-0.1,0-0.3,0.1-0.3,0.1L9.7,0.6l0.5-0.1
		c0.1,0,0.2-0.1,0.2-0.2l0,0l0,0c0,0,0,0,0-0.1c0,0,0,0-0.1,0L9.6,0.4L9.5-0.1L10-0.2c0.1,0,0.1,0,0.2-0.1l0.1-0.1l0,0
		c0,0,0-0.1-0.1-0.1L9.3-0.5l0,0c0,0-0.1,0-0.1,0.1c0,0,0,0,0,0.1S9.3,0,9.3,0.1L9.6,1.5L9.6,1.5z"/>
	<path id="패스_8603" class="st0" d="M13,1.1c0-0.1-0.1-0.2-0.2-0.5c-0.1-0.3-0.4-1-0.6-1.3l-0.1-0.1l0,0H12v0.1v0.1
		c-0.1,0.2-0.5,1.4-0.7,1.7l0,0l0,0c0,0,0,0,0,0.1h0.1l0,0c0,0,0.1,0,0.1-0.1c0.1-0.1,0.1-0.3,0.2-0.6h0.7c0.1,0.2,0.2,0.4,0.2,0.5
		s0.1,0.1,0.1,0.1l0,0h0.1C13,1.1,13.1,1.1,13,1.1L13,1.1L13,1.1z M12.4,0.3h-0.5c0.1-0.2,0.2-0.4,0.2-0.5
		C12.2-0.1,12.3,0.1,12.4,0.3L12.4,0.3z"/>
	<path id="패스_8604" class="st0" d="M15.6-0.5L15.6-0.5L15.6-0.5L15.6-0.5h-0.1c-0.1,0-0.1,0.1-0.1,0.1l-0.1,0.9
		c0,0.1,0,0.3-0.1,0.5c-0.1-0.1-0.1-0.2-0.2-0.4c-0.3-0.5-0.5-1.1-0.6-1.2l-0.1-0.1c0,0,0,0-0.1,0H14c0,0,0,0-0.1,0.1l0,0l0,0
		l0.2,0.1l-0.2,1.2c0,0.2-0.1,0.4-0.1,0.5c0,0,0,0,0,0.1l0,0c0,0,0,0,0.1,0l0,0H14V1.2l0.1-0.7c0-0.1,0-0.2,0.1-0.5
		c0,0.1,0.1,0.2,0.1,0.2c0.2,0.4,0.5,1,0.6,1.4l0,0l0,0l0,0h0.1l0,0l0.2-1.3C15.6,0,15.7-0.2,15.6-0.5C15.7-0.4,15.7-0.4,15.6-0.5
		C15.7-0.4,15.6-0.4,15.6-0.5z"/>
	<path id="패스_8605" class="st0" d="M17.6,0.4L17.6,0.4c-0.1-0.1-0.2-0.2-0.3-0.3v0.1l0,0V0.1l0,0C17.2,0.1,17.1,0,17,0
		c-0.2,0-0.4,0.1-0.5,0.3c0,0.1,0,0.1,0,0.2c0,0.2,0.1,0.3,0.2,0.5s0.2,0.3,0.2,0.4v0.1c0,0.1-0.1,0.2-0.2,0.2s-0.1,0-0.2,0
		c-0.1,0-0.2-0.1-0.3-0.2l0,0c0,0,0,0-0.1,0c0,0,0,0.1-0.1,0.1c0,0,0,0,0,0.1v0.1C16,2,16.1,2.1,16.2,2.2c0.1,0,0.2,0.1,0.3,0.1l0,0
		c0.2,0,0.4-0.1,0.5-0.3c0-0.1,0-0.1,0-0.2c0-0.2-0.1-0.4-0.3-0.5C16.6,1,16.5,1,16.5,0.9V0.8c0-0.1,0.1-0.2,0.2-0.1h0.1
		c0.1,0,0.2,0.1,0.2,0.2l0,0l0,0C17.5,0.5,17.6,0.5,17.6,0.4z"/>
	<path id="패스_8606" class="st0" d="M19.3,3.7c0.2,0.1,0.4,0.2,0.6,0.2c0.3,0,0.6-0.2,0.9-0.4C20.9,3.3,21,3.1,21,2.8
		c0-0.3-0.1-0.6-0.4-0.7l0,0c-0.2-0.1-0.4-0.2-0.6-0.2c-0.6,0-1.1,0.5-1.1,1.1C18.9,3.2,19,3.5,19.3,3.7z M20.4,2.2
		c0.2,0.1,0.2,0.3,0.2,0.5s-0.1,0.3-0.2,0.5c-0.1,0.2-0.3,0.3-0.6,0.3c-0.1,0-0.3-0.1-0.4-0.1c-0.2-0.1-0.2-0.3-0.2-0.5
		s0.1-0.3,0.2-0.5c0.1-0.2,0.4-0.3,0.6-0.3C20.2,2,20.3,2.1,20.4,2.2L20.4,2.2z"/>
	<path id="패스_8607" class="st0" d="M22.5,7.5c0.1,0,0.1,0.1,0.2,0.1l0,0l0,0l0.6-0.3c0,0,0.1,0,0.1-0.1l0,0l-0.1-0.1h-0.1
		c-0.1,0.1-0.2,0.1-0.3,0.2l0,0l-0.2,0.1c-0.1-0.1-0.1-0.2-0.2-0.2c-0.1-0.1-0.1-0.3-0.1-0.4c0-0.3,0.2-0.5,0.4-0.6
		C22.9,6,23,6,23.2,6c0.3,0,0.5,0.1,0.6,0.4C24,6.6,24,6.8,24,6.9l0,0C24,7,24.1,7,24.1,7h0.1l0,0V6.9c0-0.2-0.1-0.4-0.2-0.5
		c-0.1-0.5-0.4-0.7-0.9-0.7c-0.2,0-0.3,0-0.5,0.1c-0.3,0.1-0.5,0.5-0.5,0.9c0,0.2,0.1,0.4,0.2,0.6C22.3,7.3,22.4,7.4,22.5,7.5z"/>
	<path id="패스_8608" class="st0" d="M23.8,9.3c-0.2,0.2-0.3,0.3-0.4,0.4l-0.1,0.1l0,0c0,0,0,0.1,0.1,0.1c0,0,0,0,0.1,0l0,0l0,0
		l0,0c0.1-0.1,0.2-0.2,0.4-0.4c0.2-0.2,0.9-0.6,1.1-1V8.5l0,0c0,0,0-0.1-0.1-0.1h-0.1h-0.1c-0.3,0-1.5-0.2-1.8-0.2l0,0l0,0
		c0,0,0,0-0.1,0c0,0,0,0,0,0.1c0,0,0,0,0,0.1c0,0,0,0.1,0.1,0.1s0.3,0,0.6,0.1L23.8,9.3z M24.1,9.1L24,8.6l0.6,0.1
		C24.4,8.8,24.3,8.9,24.1,9.1L24.1,9.1z"/>
	<path id="패스_8609" class="st0" d="M25.6,12c0-0.1-0.1-0.1-0.1-0.1l0,0L24.6,12c-0.1,0-0.3,0-0.5,0c0.1-0.1,0.2-0.2,0.3-0.3
		c0.4-0.4,0.9-0.7,1-1l0.1-0.1l0,0c0-0.1,0-0.1,0-0.1s0,0-0.1,0l0,0l0,0l-0.1,0.1l-1.2,0.1c-0.2,0-0.4,0-0.5,0l0,0l0,0v0.1
		c0,0.1,0.1,0.1,0.1,0.1l0,0l0.7-0.1c0.1,0,0.2,0,0.5,0L24.7,11c-0.3,0.3-0.9,0.7-1.2,1.1l0,0l0,0l0,0l0,0l0,0l0,0
		c0,0,0,0.1,0.1,0.1l0,0l0,0l1.3-0.1c0.2,0,0.4,0,0.5,0l0,0C25.6,12.1,25.6,12.1,25.6,12L25.6,12z"/>
	<path id="패스_8610" class="st0" d="M25.5,13.3L25.5,13.3c-0.1,0-0.2,0-0.3,0l-1.5-0.1l0,0h-0.1c0,0,0,0,0,0.1l0,0v0.1
		c0,0,0,0,0.1,0s0.1,0,0.3,0l1.4,0.1h0.1h0.1c0,0,0,0,0-0.1l0,0C25.6,13.4,25.6,13.4,25.5,13.3C25.6,13.3,25.5,13.3,25.5,13.3
		L25.5,13.3z"/>
	<path id="패스_8611" class="st0" d="M24.4,14.3c-0.1,0-0.2,0-0.3,0c-0.5,0-0.9,0.3-1,0.9c0,0.1,0,0.2,0,0.3c0,0.1,0,0.1,0,0.2
		c0,0.1,0.1,0.1,0.1,0.1l0,0l0,0c0,0,0,0,0-0.1s0-0.1,0-0.2c0-0.1,0-0.1,0-0.2c0-0.3,0.3-0.6,0.7-0.6c0.1,0,0.1,0,0.2,0
		c0.3,0,0.6,0.3,0.6,0.7c0,0.2-0.1,0.4-0.2,0.5c0,0,0,0,0,0.1s0,0.1,0.1,0.1l0,0l0,0c0.2-0.1,0.3-0.3,0.3-0.5c0-0.1,0-0.2,0-0.3
		C25.3,14.8,24.9,14.4,24.4,14.3z"/>
	<path id="패스_8612" class="st0" d="M22.7,18.1L22.7,18.1L22.7,18.1c-0.1,0.2-0.2,0.3-0.3,0.5v0.1c0,0.1,0,0.1,0.1,0.2l0,0l0,0
		l0,0l0,0c0-0.1,0.1-0.3,0.2-0.5l0,0C22.8,18.2,22.8,18.1,22.7,18.1L22.7,18.1z"/>
	<path id="패스_8613" class="st0" d="M5.9,21.8L5.9,21.8c0.1,0,0.1,0,0.2,0l0,0c0-0.1-0.1-0.2-0.2-0.3l0,0l0,0l0,0
		c-0.1-0.1-0.2-0.1-0.3-0.1c-0.1,0-0.3,0.1-0.4,0.2c-0.1,0.1-0.1,0.2-0.1,0.3c0,0.1,0,0.2,0.1,0.3c0.1,0.1,0.1,0.2,0.1,0.3
		c0,0.1,0,0.1-0.1,0.1c0,0.1-0.1,0.1-0.2,0.1c-0.1,0-0.1,0-0.2-0.1c-0.1-0.1-0.2-0.2-0.2-0.3l0,0c0,0,0,0-0.1,0c0,0-0.1,0-0.1,0.1
		c0,0,0,0,0,0.1l0,0c0.1,0.3,0.3,0.4,0.6,0.4l0,0c0.1,0,0.3-0.1,0.4-0.2c0.1-0.1,0.1-0.2,0.1-0.3c0-0.1,0-0.3-0.1-0.4
		c0-0.1-0.1-0.2-0.1-0.3c0-0.1,0-0.1,0.1-0.1c0-0.1,0.1-0.1,0.2-0.1c0.1,0,0.1,0,0.2,0.1C5.8,21.5,5.8,21.6,5.9,21.8L5.9,21.8z"/>
	<path id="패스_8614" class="st0" d="M6.9,22.1H6.8H6.7c0,0-0.1,0.1-0.2,0.3l0,0l0,0l-0.6,1.2c0,0,0,0,0,0.1v0.1h0.1l0,0
		c0,0,0,0,0.1,0c0,0,0.1-0.1,0.1-0.3l0.6-1.1C6.9,22.3,7,22.2,6.9,22.1C7,22.1,6.9,22.1,6.9,22.1z"/>
	<path id="패스_8615" class="st0" d="M8.9,23C8.9,23,8.9,22.9,8.9,23c-0.1,0-0.1,0-0.1,0c-0.1,0-0.1,0-0.1,0.1l-0.3,0.7
		c0,0.1-0.1,0.2-0.2,0.4c0-0.1-0.1-0.2-0.1-0.4c-0.1-0.5-0.3-1.1-0.3-1.2c0,0,0-0.1-0.1-0.1H7.5c0,0,0,0-0.1,0l0,0l0,0v0.1l-0.2,1
		C7.1,23.9,7.1,24,7,24.1l0,0l0,0h0.1l0,0c0.1,0,0.1,0,0.1-0.1l0.2-0.6c0-0.1,0.1-0.2,0.2-0.4c0,0.1,0,0.2,0.1,0.2
		c0.1,0.4,0.3,1,0.3,1.3l0,0l0,0l0,0c0,0,0,0,0.1,0c0,0,0,0,0.1,0l0,0l0.4-1.1C8.9,23.3,8.9,23.1,8.9,23C9,23,9,23,8.9,23
		C9,23,8.9,23,8.9,23z"/>
	<path id="패스_8616" class="st0" d="M10.5,23.3c-0.1,0-0.1,0-0.2,0c-0.4,0-0.9,0.3-1,0.7c0,0.1,0,0.1,0,0.2
		c0,0.4,0.3,0.9,0.7,0.9c0.1,0,0.1,0,0.2,0c0.1,0,0.1,0,0.2,0c0.1,0,0.1-0.1,0.1-0.1l0,0l0,0c0,0,0,0-0.1,0s-0.1,0-0.2,0
		s-0.1,0-0.2,0c-0.3,0-0.6-0.3-0.6-0.6c0-0.1,0-0.1,0-0.2c0-0.3,0.3-0.5,0.6-0.5h0.1c0.1,0,0.2,0.1,0.3,0.1l0,0l0,0
		c0.1,0,0.1,0,0.1-0.1l0,0C10.9,23.5,10.7,23.3,10.5,23.3z"/>
	<path id="패스_8617" class="st0" d="M12.5,25.2L12.5,25.2c-0.1,0-0.1,0-0.2,0c-0.1,0-0.1,0-0.2,0c-0.1,0-0.2,0-0.3,0v-0.5h0.4
		l0,0c0.1,0,0.2-0.1,0.2-0.1l0,0l0,0h-0.6V24h0.4h0.1h0.1l0,0l0.1-0.1c0,0,0-0.1-0.1-0.1h-0.7l0,0h-0.1c0,0,0,0,0,0.1l0,0
		c0,0.1,0,0.2,0,0.3v1.3l0,0l0,0l0,0c0.2,0,0.3,0,0.5,0c0.1,0,0.1,0,0.2,0c0.1,0,0.1,0,0.1,0C12.5,25.4,12.5,25.3,12.5,25.2
		L12.5,25.2L12.5,25.2z"/>
	<path id="패스_8618" class="st0" d="M14.9,23.3L14.9,23.3L14.9,23.3c-0.1-0.1-0.1-0.1-0.1-0.1c-0.1,0.1-0.2,0.2-0.4,0.3l0,0v0.1
		c0,0,0,0,0,0.1l0,0c0,0,0,0,0.1,0s0.2-0.1,0.3-0.2c0.1,0.7,0.2,1.2,0.3,1.4l0,0l0,0l0,0h0.1l0.1-0.1l0,0
		C15.3,24.7,15.1,23.6,14.9,23.3z"/>
	<path id="패스_8619" class="st0" d="M16.4,22.9c-0.1,0-0.1,0-0.2,0c-0.2,0.1-0.4,0.3-0.3,0.5c0,0.1,0,0.1,0,0.2
		c0.1,0.2,0.2,0.3,0.4,0.3c0.1,0,0.1,0,0.2,0s0.2-0.1,0.2-0.2c0,0,0,0,0-0.1v-0.1l0,0c0,0,0,0-0.1,0c0,0-0.1,0.1-0.2,0.1h-0.1
		c-0.1,0-0.2,0-0.2-0.2v-0.1c0-0.1,0.1-0.2,0.2-0.2h0.1c0.1,0,0.3,0.1,0.3,0.4c0,0.1,0.1,0.2,0.1,0.4c0,0.1,0,0.2-0.1,0.3
		c-0.1,0.2-0.2,0.3-0.4,0.4c0,0,0,0,0,0.1l0,0l0,0h0.1l0,0c0,0,0,0,0.1,0c0.2-0.1,0.3-0.3,0.4-0.4c0.1-0.1,0.1-0.3,0.1-0.4
		s0-0.3-0.1-0.4C17,23.1,16.8,22.9,16.4,22.9z"/>
	<path id="패스_8620" class="st0" d="M17.9,22.2c-0.1,0-0.2,0-0.2,0.1c-0.2,0.1-0.3,0.3-0.3,0.5c0,0.1,0,0.2,0.1,0.3
		c0.1,0.2,0.4,0.3,0.6,0.2l0,0c0.1,0,0.2-0.1,0.2-0.2l0,0V23c0,0,0,0-0.1,0l0,0c0,0.1-0.1,0.1-0.1,0.1H18c-0.1,0-0.2,0-0.2-0.2
		c0-0.1,0-0.1,0-0.2s0-0.2,0.1-0.2H18c0.1,0,0.3,0.1,0.4,0.3c0.1,0.1,0.1,0.3,0.1,0.4s0,0.1,0,0.2c-0.1,0.2-0.2,0.3-0.3,0.4
		c0,0,0,0,0,0.1l0,0l0,0h0.1l0,0l0,0l0,0h0.1c0.2-0.1,0.3-0.3,0.3-0.5c0-0.1,0-0.2,0-0.3c0-0.2,0-0.4-0.1-0.5
		C18.5,22.4,18.2,22.2,17.9,22.2z"/>
	<path id="패스_8621" class="st0" d="M19.4,21.3c-0.1,0-0.2,0-0.3,0.1c-0.1,0.1-0.2,0.3-0.2,0.4s0,0.2,0.1,0.3
		c0.1,0.1,0.2,0.2,0.4,0.2c0.1,0,0.2,0,0.3-0.1c0.1-0.1,0.1-0.1,0.2-0.2l0,0V22l0,0l0,0c0,0.1-0.1,0.1-0.1,0.1s-0.1,0.1-0.2,0.1
		s-0.2-0.1-0.2-0.1c0-0.1-0.1-0.1-0.1-0.2s0-0.1,0.1-0.2h0.1c0.2,0,0.3,0.1,0.4,0.3c0.1,0.2,0.2,0.3,0.2,0.5c0,0,0,0,0,0.1
		c0,0.2-0.1,0.4-0.2,0.5c0,0,0,0,0,0.1l0,0l0,0H20l0,0h0.1c0.1-0.1,0.2-0.3,0.3-0.5c0-0.1,0-0.1,0-0.2c0-0.2-0.1-0.5-0.2-0.6
		C19.8,21.4,19.6,21.3,19.4,21.3z"/>
</g>
<g id="그룹_4882" transform="translate(4.683 4.676)">
	<path id="패스_8622" class="st0" d="M13,3.1c0,0,0.1,0,0.1,0.1c-0.1,0.3-0.3,0.6-0.3,1.1h0.1c-0.1,0.3-0.1,0.6-0.1,1
		c0.1,0.6,0.3,1.2,0.7,1.7c0,0,0-0.1,0.1,0c0.2,0.2,0.4,0.5,0.6,0.7h0h0.1c0.1,0.1,0.2,0.2,0.3,0.2c1.2,0.6,2.7,0.5,3.7-0.3
		c-0.1-0.9-0.3-1.6-0.7-2.4c-0.1,0.2-0.2,0.4-0.4,0.5c0,0.1-0.6,0.4-1.3-0.1c-0.4-0.3-0.6-1-0.4-1.5l0,0c0.1-0.3,0.3-0.5,0.5-0.7
		c0.1-0.1,0.2-0.2,0.3-0.3l-0.1-0.1h-0.1l0,0l-0.1-0.1C16,2.6,16,2.6,15.9,2.5l-0.1-0.1c-0.3-0.4-0.7-0.7-1.2-1.1
		C13.9,1.7,13.4,2.3,13,3.1z"/>
	<path id="패스_8623" class="st0" d="M13,16.1L12.9,16c-0.1-0.1-0.2-0.3-0.2-0.4C11.9,14,9.9,13.4,8.2,14
		c-0.3,0.2-0.6,0.3-0.9,0.5c-1.4,1.4-1.6,2.6-1.5,3.1c0.3,0.1,0,0.2,0.4,0c0,0.2,0.2,0.1,0.4,0.1c0.2,0,0.3,0,0.3-0.1
		c0.1,0,0.1-0.4,0.2-0.2c0,0.1,0.2,0.1,0.2,0.1c0.1,0,0.1-0.1,0.2,0c-0.1-0.3-0.1-0.4,0.2-0.9c0.3-0.3,0.7-0.5,1.2-0.5
		c0.5,0,1.1,0.2,1.3,0.7c0.2,0.4-0.1,1.3-0.5,1.8c1.2-0.1,2.2-0.4,3.3-1c0-0.1,0-0.3,0.1-0.4C13.1,17.2,13.1,16.6,13,16.1z"/>
	<path id="패스_8624" class="st0" d="M2.7,15.3c0-0.1,0-0.2,0-0.4v-0.1c0,0,0,0-0.1,0v-0.1c-0.2-0.3,0.1-1,0.9-1.4
		C3.7,13.1,4,13,4.3,12.9c1.2,0,1.3,0.6,1.5,0.6c0-0.3,0.3,0.3,0.3-0.1c0.2,0,0.3,0,0.5-0.1c0.2-0.2,0.1-0.4,0.2-0.2
		c0.2,0.3,0.5-0.1,0.6,0c0.1,0.1,0.2,0,0.3,0.1c-0.3-1.4-1.5-2.3-2.9-2.3c-1.1,0-2,0.2-3,0.7c-0.3,0.2-0.6,0.5-1,0.9
		c-0.1,0.1-0.4,0.6-0.6,1c0.6,1.2,1.4,2.2,2.4,3.1C2.8,16,2.8,15.5,2.7,15.3C2.7,15.4,2.7,15.4,2.7,15.3z"/>
	<path id="패스_8625" class="st0" d="M0,9.3c0.3,0.3,0.5,0.5,0.6,0.5c0.3,0.3,0.7,0.3,1.1,0.6c0.2-0.2,1.1,0.1,1.1-0.2
		c0.2,0.1,0.5,0.2,0.6,0.1c0.2-0.3,0.4-0.5,0.7-0.6c0.1,0,0.3,0,0.3-0.1S4.2,9.5,4.2,9.4C3.8,9.7,1.9,8.8,1.6,7.3
		C1.2,6.8,1.1,6.1,1.3,5.6C1.7,5,2.2,4.5,2.8,4.3h0.1c0.3-0.1,0.6-0.2,1-0.2c0.1,0,0.3,0,0.4,0L4.2,4c0.1,0,0.2,0.1,0.3,0.1
		c0.3,0,0.2-0.1,0.2-0.3c-0.1-0.1,0.2,0,0-0.1c0.1,0.1,0.1,0,0.2,0.1c0-0.1,0.1-0.1,0.2-0.1c0.2,0,0.3,0.1,0.5,0.2h0.1
		c-0.1,0,0,0,0,0l0,0l0,0c0,0,0-0.1-0.1-0.1C5.6,3.5,5.4,3.4,5.3,3.3C4.2,2.7,3,2.5,2,2.6C0.5,4.1-0.4,6-0.6,8.2
		C-0.5,8.6-0.2,9,0,9.3z"/>
	<path id="패스_8626" class="st0" d="M7.4,3.5c-0.3,1-0.6,1.8-1.2,2.7v0.1c-0.3,0.4-0.6,1-0.9,1.3C5.3,7.7,5.2,7.9,5.1,8.2
		C5.2,8.2,5.3,8,5.4,8C5.3,8.2,5.1,8.3,5.1,8.4C4.7,8.8,5,8.8,5.2,8.9C5.3,9,5.4,9,5.3,9.1c0,0.1,0.1,0.1,0,0.2c0,0.4-0.1,0.3,0,0.4
		c0,0.1-0.1,0.2-0.2,0.3l0,0h0.1c0.1,0,0,0,0,0c0.1,0,0.1,0,0.2,0c0.2,0,0.4-0.1,0.6-0.2c0.9-0.7,1.6-1.5,2.1-2.4c0,0-0.1,0-0.1-0.1
		C8.2,7.1,8.4,7,8.5,6.7H8.4c0.1-0.2,0.2-0.3,0.4-0.5C9,5.8,9,5.6,9.1,5.3C9.3,5.2,9.4,5.1,9.6,5l0,0c0.1,0,0.1,0.1,0.1,0.2
		c0.3,0.3,0.5,0.6,0.5,1.1c0.1,0.6,0.2,1.2,0.2,1.8l0,0c0,0.3,0.1,0.7,0.1,1.1c0,0.1,0.1,0.4,0.1,0.5l0,0c0,0,0,0,0,0.1l0,0
		c0,0.1,0.1,0.2,0.1,0.3v0.1c0.7-0.4,1.4-1,1.9-1.5c0-0.2,0-0.4,0-0.5h-0.1c0-0.1,0.1-0.5,0-0.6h-0.1c0-0.1,0.1-0.2,0.1-0.4
		c0-0.2-0.1-0.5-0.1-0.7c0,0,0,0-0.1,0c0-0.1,0-0.2-0.1-0.4V5.8c0,0,0,0-0.1,0c0-0.1,0-0.1,0-0.2c-0.3-0.7-0.9-1.4-1.5-1.9
		c-0.2-0.1-0.4-0.1-0.5-0.2c-0.1-0.1-0.3-0.1-0.6-0.1c0.1-1,0.2-2,0.2-3c0-0.3,0-0.6,0-1c-0.2,0-0.5,0-0.7,0c-0.3,0-0.6,0-1,0
		C7.9,0,7.9,0.4,7.8,0.9C7.8,1.8,7.6,2.6,7.4,3.5z"/>
	<path id="패스_8627" class="st0" d="M16.5,14.8c-0.1,0-0.1-0.1-0.2-0.1c-0.5-0.3-1-1-1.2-1.6c0-0.6,0.3-1.2,0.9-1.6l0,0
		c0.2-0.1,0.5-0.3,0.7-0.4c0.1-0.1,0.2-0.1,0.3-0.2c0-0.1-0.1-0.1-0.2-0.1c0.1,0,0.2,0.1,0.3,0c0.3,0,0.2-0.1,0-0.4
		c-0.1-0.1,0.1-0.1-0.1-0.2c0.1,0,0.1,0,0.2,0h0.1c0,0,0,0,0.1-0.1c0,0,0.1,0,0-0.1c0.1,0.1,0.1,0,0.1,0c-0.1-0.1,0.1,0,0.1,0
		c0-0.1,0.1,0,0.1-0.1c-0.1-0.2-0.3-0.3-0.5-0.4C16.4,9,15.2,9,14.1,9.5c0,0-0.4,0.3-0.5,0.5l0.1,0.1c-0.2,0.1-0.4,0.2-0.5,0.4
		c-0.3,0.3-0.4,0.7-0.5,1.2c0,0.3-0.1,0.5-0.1,0.7v0.1c0,0,0,0.1,0.1,0.1c0,0.1,0,0.2,0,0.4c0.1,0.9,0.5,1.7,1.3,2.2
		c0.5,0.4,1.1,0.7,1.6,1.1C15.7,15.9,16.2,15.4,16.5,14.8z"/>
</g>
</svg>
