<svg width="30" height="30" viewBox="0 0 30 30" fill="none" xmlns="http://www.w3.org/2000/svg">
<path d="M4.53731 21.2649C4.53731 21.155 4.42742 21.155 4.31753 21.155H4.20764C4.20764 21.155 4.20764 21.155 4.20764 21.2649C4.31753 21.3748 4.42742 21.5946 4.53731 21.7045H4.6472H4.75709C4.75709 21.7045 4.75709 21.7045 4.75709 21.5946C4.75709 21.4847 4.6472 21.3748 4.53731 21.2649Z" fill="#246A20"/>
<path d="M3.54833 17.089C3.54833 17.089 3.43844 16.9791 3.32855 16.9791V17.089C3.43844 17.1989 3.43844 17.3088 3.54833 17.5286C3.54833 17.6385 3.54833 17.7484 3.54833 17.7484C3.54833 18.078 3.32855 18.4077 2.88899 18.5176C2.7791 18.5176 2.7791 18.5176 2.66921 18.5176C2.33954 18.5176 2.00987 18.2978 1.89998 17.9681C1.89998 17.8582 1.89998 17.8582 1.89998 17.7484C1.89998 17.6385 1.89998 17.6385 1.89998 17.5286C1.89998 17.4187 1.79009 17.4187 1.6802 17.4187C1.6802 17.5286 1.57031 17.6385 1.57031 17.7484C1.57031 17.8582 1.57031 17.9681 1.57031 18.078C1.6802 18.6275 2.11976 18.9571 2.55932 18.9571C2.66921 18.9571 2.7791 18.9571 2.88899 18.9571C3.32855 18.8473 3.76811 18.5176 3.65822 17.9681C3.65822 17.8582 3.65822 17.7484 3.65822 17.6385C3.76811 17.3088 3.65822 17.1989 3.54833 17.089Z" fill="#246A20"/>
<path d="M2.88902 16.3199C3.1088 16.3199 3.21869 16.3199 3.43847 16.3199H3.54836C3.54836 16.3199 3.65825 16.3199 3.65825 16.21V16.1001V15.9902H3.54836H2.77913V15.4407C2.77913 15.221 2.77913 15.1111 2.77913 15.0012H3.65825C3.65825 15.0012 3.65825 15.0012 3.76814 15.0012C3.76814 15.0012 3.76814 15.0012 3.76814 14.8913C3.76814 14.7814 3.76814 14.7814 3.76814 14.6715C3.76814 14.6715 3.76814 14.6715 3.65825 14.6715C3.54836 14.6715 3.54836 14.6715 3.32858 14.6715H2.33957C2.11979 14.6715 2.0099 14.6715 1.90001 14.6715H1.46045V14.7814V14.8913H1.57034H2.33957V15.8803H1.68023H1.57034L1.46045 15.9902V16.1001C1.46045 16.1001 1.46045 16.1001 1.57034 16.1001C1.57034 16.1001 1.79012 16.1001 2.0099 16.1001L2.88902 16.3199Z" fill="#246A20"/>
<path d="M2.44943 13.6824C2.55932 13.6824 2.55932 13.6824 2.66921 13.6824C3.21866 13.6824 3.65822 13.3527 3.65822 12.8033C3.65822 12.6934 3.65822 12.6934 3.65822 12.5835C3.65822 12.034 3.21866 11.5945 2.7791 11.5945C2.66921 11.5945 2.66921 11.5945 2.55932 11.5945C2.00987 11.5945 1.57031 11.9242 1.57031 12.4736C1.57031 12.5835 1.57031 12.5835 1.57031 12.6934C1.57031 13.2428 2.00987 13.6824 2.44943 13.6824ZM1.79009 12.4736C1.89998 12.1439 2.22965 11.9242 2.55932 11.9242C2.66921 11.9242 2.66921 11.9242 2.7791 11.9242C3.32855 12.034 3.43844 12.2538 3.43844 12.5835V12.6934C3.32855 13.0231 2.99888 13.2428 2.66921 13.2428C2.55932 13.2428 2.55932 13.2428 2.44943 13.2428C2.00987 13.1329 1.79009 12.9132 1.79009 12.5835C1.79009 12.5835 1.79009 12.5835 1.79009 12.4736Z" fill="#246A20"/>
<path d="M4.20776 10.9352C4.20776 10.8253 4.20776 10.8253 4.09787 10.8253L3.43853 10.4957C3.54842 10.2759 3.54842 10.2759 3.87809 10.166C4.09787 10.166 4.09787 10.166 4.31765 10.0561C4.42754 10.0561 4.53743 9.94621 4.64732 9.83632V9.72643C4.64732 9.72643 4.64732 9.72643 4.53743 9.72643C4.31765 9.72643 4.09787 9.83632 3.98798 9.83632C3.87809 9.83632 3.7682 9.83632 3.54842 9.94621C3.54842 9.72643 3.43853 9.50665 3.21875 9.39676C3.10886 9.39676 2.99897 9.28687 2.99897 9.28687C2.6693 9.39676 2.44952 9.61654 2.33963 9.83632C2.33963 10.0561 2.22974 10.166 2.22974 10.3858V10.4957C2.33963 10.4957 2.33963 10.6055 2.55941 10.6055L3.54842 10.9352C3.7682 11.0451 3.98798 11.155 4.09787 11.155C4.09787 11.155 4.09787 11.0451 4.20776 10.9352ZM2.88908 9.72643C2.99897 9.72643 2.99897 9.72643 2.99897 9.72643C3.10886 9.72643 3.21875 9.94621 3.21875 10.0561C3.21875 10.166 3.10886 10.2759 3.10886 10.3858L2.55941 10.166L2.6693 9.94621C2.6693 9.83632 2.77919 9.72643 2.88908 9.72643Z" fill="#246A20"/>
<path d="M23.5484 7.30885H23.6583L24.2077 6.86929C24.4275 6.97918 24.4275 7.19896 24.3176 7.30885C24.3176 7.52863 24.2077 7.52863 24.2077 7.74841C24.2077 7.8583 24.2077 7.96819 24.2077 8.07808L24.3176 8.18797C24.3176 8.18797 24.3176 8.18797 24.3176 8.07808C24.3176 7.8583 24.4275 7.63852 24.4275 7.52863C24.4275 7.41874 24.5374 7.30885 24.5374 7.08907C24.7572 7.19896 24.9769 7.08907 25.1967 6.97918C25.4165 6.97918 25.4165 6.97918 25.5264 6.86929C25.6363 6.64951 25.5264 6.31984 25.3066 6.10006C25.1967 5.99017 25.0868 5.88028 24.9769 5.77039H24.867C24.7572 5.88028 24.7572 5.88028 24.6473 5.99017L23.878 6.64951C23.6583 6.86929 23.5484 6.97918 23.4385 6.97918C23.4385 7.19896 23.4385 7.19896 23.5484 7.30885ZM25.1967 6.7594L25.0868 6.86929C24.9769 6.97918 24.867 6.97918 24.6473 6.97918C24.5374 6.86929 24.4275 6.7594 24.4275 6.7594L24.9769 6.31984C24.9769 6.31984 25.0868 6.42973 25.1967 6.53962C25.1967 6.42973 25.3066 6.53962 25.1967 6.7594Z" fill="#246A20"/>
<path d="M5.19669 7.08904C4.97691 6.97915 4.75713 6.86926 4.53735 6.86926C4.20768 6.86926 3.87801 7.08904 3.65823 7.30882C3.54834 7.5286 3.54834 7.74838 3.54834 7.85827C3.54834 8.18794 3.76812 8.51761 4.09779 8.73739C4.20768 8.95717 4.42746 8.95718 4.64724 8.95718C4.97691 8.95718 5.30658 8.73739 5.52636 8.51761C5.63625 8.40772 5.63625 8.18794 5.63625 7.96816C5.63625 7.63849 5.52636 7.19893 5.19669 7.08904ZM4.64724 8.73739C4.42746 8.73739 4.31757 8.6275 4.20768 8.6275C3.9879 8.40772 3.76812 8.18794 3.76812 7.85827C3.76812 7.74838 3.76812 7.63849 3.87801 7.5286C3.9879 7.30882 4.20768 7.19893 4.42746 7.19893C4.64724 7.19893 4.75713 7.30882 4.97691 7.30882C5.19669 7.41871 5.41647 7.74838 5.41647 7.96816C5.41647 8.07805 5.41647 8.18794 5.30658 8.40772C5.0868 8.6275 4.86702 8.73739 4.64724 8.73739Z" fill="#246A20"/>
<path d="M7.61431 5.99019C7.61431 5.8803 7.61431 5.77041 7.61431 5.77041H7.50442C7.39453 5.99019 7.28464 6.10008 7.17475 6.20997C6.95497 6.31986 6.84508 6.42975 6.6253 6.42975C6.18573 6.42975 5.74617 6.10008 5.74617 5.66052C5.74617 5.44074 5.85606 5.22096 5.96595 5.11107C6.07584 5.00118 6.18573 4.89129 6.29562 4.89129L6.40551 4.7814V4.67151C6.18573 4.67151 5.96595 4.67151 5.85606 4.89129C5.63628 5.11107 5.4165 5.33085 5.4165 5.66052C5.4165 6.20997 5.85606 6.75942 6.5154 6.75942C6.84508 6.75942 7.06486 6.64953 7.28464 6.42975C7.39453 6.31986 7.50442 6.20997 7.61431 5.99019Z" fill="#246A20"/>
<path d="M9.04283 3.4627C9.3725 3.79237 9.92195 4.34182 10.1417 4.5616C10.1417 4.5616 10.1417 4.5616 10.2516 4.5616C10.2516 4.5616 10.3615 4.5616 10.3615 4.45171V4.34182C10.3615 3.90226 10.3615 3.24292 10.3615 2.91325L10.6912 3.57259C10.8011 3.79237 10.911 3.90226 11.0209 4.01215L11.1307 4.12204L11.2406 4.01215V3.90226C11.2406 3.79237 11.1307 3.57259 10.911 3.35281L10.2516 2.3638L10.1417 2.25391L10.0318 2.3638V2.47369C10.0318 2.80336 10.0318 3.35281 10.0318 4.01215L9.26261 3.24292C9.04283 3.02314 8.93294 2.91325 8.82305 2.91325C8.82305 2.91325 8.82305 2.91325 8.71316 2.91325L8.60327 3.02314C8.82305 3.79237 9.04283 4.5616 9.04283 4.89127C9.04283 4.89127 9.04283 4.89127 9.15272 5.00116H9.26261L9.3725 4.89127C9.26261 4.5616 9.15272 3.90226 9.04283 3.4627Z" fill="#246A20"/>
<path d="M12.1197 3.68239C12.1197 3.79228 12.1197 3.79228 12.1197 3.68239C12.4494 3.68239 12.5593 3.68239 12.7791 3.68239C12.889 3.68239 12.9989 3.68239 13.1087 3.5725C13.2186 3.5725 13.2186 3.46261 13.2186 3.35272C13.2186 3.35272 13.2186 3.35272 13.2186 3.24283C13.2186 3.24283 13.2186 3.24283 13.1087 3.24283C12.9989 3.24283 12.889 3.35272 12.6692 3.35272C12.5593 3.35272 12.3395 3.46261 12.3395 3.46261L12.2296 2.80327L12.7791 2.69338C12.889 2.69338 12.9989 2.58349 12.9989 2.4736C12.9989 2.4736 12.9989 2.4736 12.9989 2.36371C12.9989 2.36371 12.9989 2.36371 12.889 2.36371L12.1197 2.58349L12.0098 2.03404L12.4494 1.92415C12.5593 1.92415 12.5593 1.92415 12.6692 1.81426L12.7791 1.70437C12.7791 1.70437 12.7791 1.59448 12.6692 1.59448L11.7901 1.70437C11.7901 1.70437 11.6802 1.70437 11.6802 1.81426C11.6802 1.81426 11.6802 1.81426 11.6802 1.92415C11.6802 2.03404 11.7901 2.14393 11.7901 2.25382L12.1197 3.68239Z" fill="#246A20"/>
<path d="M15.6363 3.35278C15.6363 3.24289 15.5264 3.133 15.4165 2.80333C15.3066 2.47366 14.977 1.81432 14.7572 1.48465L14.6473 1.37476H14.5374V1.48465V1.59454C14.4275 1.81432 13.988 3.02311 13.7682 3.35278C13.7682 3.35278 13.7682 3.35278 13.7682 3.46267H13.8781C13.8781 3.46267 13.988 3.46267 13.988 3.35278C14.0979 3.24289 14.0979 3.02311 14.2077 2.69344H14.977C15.0869 2.91322 15.1968 3.133 15.1968 3.24289C15.1968 3.35278 15.3066 3.35278 15.3066 3.35278H15.4165C15.6363 3.35278 15.7462 3.35278 15.6363 3.35278ZM14.977 2.47366H14.4275C14.5374 2.25388 14.6473 2.0341 14.6473 1.92421C14.7572 2.0341 14.8671 2.25388 14.977 2.47366Z" fill="#246A20"/>
<path d="M18.2736 1.7044H18.1638C18.0539 1.7044 18.0539 1.81429 18.0539 1.81429L17.944 2.69341C17.944 2.8033 17.944 3.02308 17.8341 3.24286C17.7242 3.13297 17.7242 3.02308 17.6143 2.8033C17.2846 2.25385 17.0649 1.7044 16.955 1.59451L16.8451 1.48462C16.8451 1.48462 16.8451 1.48462 16.7352 1.48462H16.6253C16.6253 1.48462 16.6253 1.48462 16.5154 1.59451L16.7352 1.7044L16.5154 2.91319C16.5154 3.13297 16.4055 3.35275 16.4055 3.46264C16.4055 3.46264 16.4055 3.46264 16.4055 3.57253C16.4055 3.57253 16.4055 3.57253 16.5154 3.57253H16.6253V3.46264L16.7352 2.69341C16.7352 2.58352 16.7352 2.47363 16.8451 2.14396C16.8451 2.25385 16.955 2.36374 16.955 2.36374C17.1747 2.8033 17.5044 3.35275 17.6143 3.79231H17.7242L17.944 2.47363C18.2736 2.14396 18.3835 1.92418 18.2736 1.7044C18.3835 1.81429 18.3835 1.81429 18.2736 1.7044C18.3835 1.81429 18.2736 1.81429 18.2736 1.7044Z" fill="#246A20"/>
<path d="M20.3615 2.5836C20.2516 2.47371 20.1417 2.36382 20.0318 2.25393C19.922 2.25393 19.8121 2.14404 19.7022 2.14404C19.4824 2.14404 19.2626 2.25393 19.1527 2.47371C19.1527 2.5836 19.1527 2.5836 19.1527 2.69349C19.1527 2.91327 19.2626 3.02316 19.3725 3.24294C19.4824 3.46272 19.5923 3.57261 19.5923 3.6825V3.79239C19.5923 3.90228 19.4824 4.01217 19.3725 4.01217C19.2626 4.01217 19.2626 4.01217 19.1527 4.01217C19.0428 4.01217 18.9329 3.90228 18.8231 3.79239C18.8231 3.79239 18.8231 3.79239 18.7132 3.79239C18.7132 3.79239 18.7132 3.90228 18.6033 3.90228C18.6033 3.90228 18.6033 3.90228 18.6033 4.01217V4.12206C18.7132 4.23195 18.8231 4.34185 18.9329 4.45174C19.0428 4.45174 19.1527 4.56163 19.2626 4.56163C19.4824 4.56163 19.7022 4.45174 19.8121 4.23195C19.8121 4.12206 19.8121 4.12206 19.8121 4.01217C19.8121 3.79239 19.7022 3.57261 19.4824 3.46272C19.3725 3.24294 19.2626 3.24294 19.2626 3.13305V3.02316C19.2626 2.91327 19.3725 2.80338 19.4824 2.91327H19.5923C19.7022 2.91327 19.8121 3.02316 19.8121 3.13305C20.2516 2.69349 20.3615 2.69349 20.3615 2.5836Z" fill="#246A20"/>
<path d="M22.1197 5.99008C22.3395 6.09997 22.5593 6.20986 22.7791 6.20986C23.1087 6.20986 23.4384 5.99008 23.6582 5.7703C23.7681 5.55052 23.878 5.33074 23.878 5.11096C23.878 4.78129 23.7681 4.45162 23.4384 4.34173C23.2186 4.23184 22.9989 4.12195 22.7791 4.12195C22.1197 4.12195 21.6802 4.6714 21.6802 5.22085C21.6802 5.44063 21.7901 5.7703 22.1197 5.99008ZM23.2186 4.45162C23.4384 4.56151 23.4384 4.78129 23.4384 5.00107C23.4384 5.22085 23.3285 5.33074 23.2186 5.55052C23.1087 5.7703 22.889 5.88019 22.5593 5.88019C22.4494 5.88019 22.2296 5.7703 22.1197 5.7703C21.9 5.66041 21.9 5.44063 21.9 5.22085C21.9 5.00107 22.0098 4.89118 22.1197 4.6714C22.2296 4.45162 22.5593 4.34173 22.7791 4.34173C22.9989 4.23184 23.1087 4.34173 23.2186 4.45162Z" fill="#246A20"/>
<path d="M25.4165 9.94616C25.5264 9.94616 25.5264 10.0561 25.6363 10.0561L26.2956 9.72638C26.2956 9.72638 26.4055 9.72638 26.4055 9.61649L26.2956 9.5066H26.1857C26.0758 9.61649 25.9659 9.61649 25.856 9.72638L25.6363 9.83627C25.5264 9.72638 25.5264 9.61649 25.4165 9.61649C25.3066 9.5066 25.3066 9.28682 25.3066 9.17693C25.3066 8.84726 25.5264 8.62748 25.7462 8.51759C25.8561 8.4077 25.9659 8.4077 26.1857 8.4077C26.5154 8.4077 26.7352 8.51759 26.8451 8.84726C26.955 8.95715 26.9549 9.17693 26.9549 9.28682C26.9549 9.39671 27.0648 9.39671 27.0648 9.39671H27.1747V9.28682C27.1747 9.06704 27.0648 8.84726 26.9549 8.73737C26.8451 8.18792 26.5154 7.96814 26.0758 7.96814C25.856 7.96814 25.7462 7.96814 25.5264 8.07803C25.1967 8.18792 24.9769 8.62748 24.9769 8.95715C24.9769 9.17693 25.0868 9.39671 25.1967 9.61649C25.1967 9.72638 25.3066 9.83627 25.4165 9.94616Z" fill="#246A20"/>
<path d="M26.7351 11.8143C26.5154 12.034 26.4055 12.1439 26.2956 12.2538L26.1857 12.3637C26.1857 12.3637 26.1857 12.4736 26.2956 12.4736C26.2956 12.4736 26.2956 12.4736 26.4055 12.4736C26.5154 12.3637 26.6252 12.2538 26.845 12.034C27.0648 11.8143 27.7241 11.3747 27.9439 11.045V10.9351C27.9439 10.9351 27.9439 10.8252 27.834 10.8252H27.7241H27.6143C27.2846 10.8252 26.0758 10.6055 25.7461 10.6055C25.7461 10.6055 25.7461 10.6055 25.6362 10.6055C25.6362 10.6055 25.6362 10.6055 25.6362 10.7154C25.6362 10.7154 25.6362 10.7154 25.6362 10.8252C25.6362 10.8252 25.6362 10.9351 25.7461 10.9351C25.856 10.9351 26.0758 10.9351 26.4055 11.045L26.7351 11.8143ZM27.0648 11.5945L26.9549 11.045L27.6143 11.1549C27.3945 11.2648 27.2846 11.3747 27.0648 11.5945Z" fill="#246A20"/>
<path d="M28.6033 14.5615C28.6033 14.4516 28.4934 14.4516 28.4934 14.4516L27.6143 14.5615C27.5044 14.5615 27.2846 14.5615 27.0648 14.5615C27.1747 14.4516 27.2846 14.3418 27.3945 14.2319C27.8341 13.7923 28.2736 13.4626 28.3835 13.2429L28.4934 13.133C28.4934 13.0231 28.4934 13.0231 28.4934 13.0231C28.4934 13.0231 28.4934 13.0231 28.3835 13.0231L28.2736 13.133L27.0648 13.2429C26.8451 13.2429 26.6253 13.2429 26.5154 13.2429V13.3527C26.5154 13.4626 26.6253 13.4626 26.6253 13.4626L27.3945 13.3527C27.5044 13.3527 27.6143 13.3527 27.944 13.3527L27.7242 13.5725C27.3945 13.9022 26.8451 14.3418 26.5154 14.6714C26.5154 14.6714 26.5154 14.7813 26.6253 14.7813L27.944 14.6714C28.1637 14.6714 28.3835 14.6714 28.4934 14.6714C28.6033 14.6714 28.6033 14.6714 28.6033 14.5615Z" fill="#246A20"/>
<path d="M28.4934 15.8803C28.3835 15.8803 28.2736 15.8803 28.1637 15.8803L26.6253 15.7704H26.5154C26.5154 15.7704 26.5154 15.7704 26.5154 15.8803V15.9902C26.5154 15.9902 26.5154 15.9902 26.6253 15.9902C26.7352 15.9902 26.7352 15.9902 26.9549 15.9902L28.3835 16.1001H28.4934H28.6033C28.6033 16.1001 28.6033 16.1001 28.6033 15.9902C28.6033 15.9902 28.6033 15.9902 28.4934 15.8803Z" fill="#246A20"/>
<path d="M27.3945 16.9791C27.2846 16.9791 27.1747 16.9791 27.0648 16.9791C26.5154 16.9791 26.1857 17.3088 26.0758 17.8582C26.0758 17.9681 26.0758 18.078 26.0758 18.1879C26.0758 18.2978 26.0758 18.2978 26.0758 18.4077C26.0758 18.5176 26.1857 18.5176 26.1857 18.5176C26.1857 18.5176 26.1857 18.5176 26.1857 18.4077C26.1857 18.2978 26.1857 18.2978 26.1857 18.1879C26.1857 18.078 26.1857 18.078 26.1857 17.9681C26.1857 17.6385 26.5154 17.3088 26.9549 17.3088C27.0648 17.3088 27.0648 17.3088 27.1747 17.3088C27.5044 17.3088 27.834 17.6385 27.834 18.078C27.834 18.2978 27.7242 18.5176 27.6143 18.6275C27.6143 18.6275 27.6143 18.6275 27.6143 18.7374C27.6143 18.8473 27.6143 18.8473 27.7242 18.8473C27.9439 18.7374 28.0538 18.5176 28.0538 18.2978C28.0538 18.1879 28.0538 18.078 28.0538 17.9681C28.2736 17.5286 27.9439 17.089 27.3945 16.9791Z" fill="#246A20"/>
<path d="M25.6363 20.9352C25.5264 21.155 25.4165 21.2649 25.3066 21.4846V21.5945C25.3066 21.7044 25.3066 21.7044 25.4165 21.8143C25.4165 21.7044 25.5264 21.4846 25.6363 21.2649C25.7462 21.0451 25.7462 20.9352 25.6363 20.9352Z" fill="#246A20"/>
<path d="M8.2736 24.6715C8.38349 24.6715 8.38349 24.6715 8.49338 24.6715C8.49338 24.5616 8.38349 24.4517 8.2736 24.3418C8.16371 24.2319 8.05382 24.2319 7.94393 24.2319C7.83404 24.2319 7.61425 24.3418 7.50436 24.4517C7.39447 24.5616 7.39447 24.6715 7.39447 24.7814C7.39447 24.8913 7.39447 25.0012 7.50436 25.1111C7.61425 25.2209 7.61425 25.3308 7.61425 25.4407C7.61425 25.5506 7.61425 25.5506 7.50436 25.5506C7.50436 25.6605 7.39447 25.6605 7.28458 25.6605C7.17469 25.6605 7.17469 25.6605 7.0648 25.5506C6.95491 25.4407 6.84502 25.3308 6.84502 25.2209C6.84502 25.2209 6.84502 25.2209 6.73513 25.2209C6.73513 25.2209 6.62524 25.2209 6.62524 25.3308C6.62524 25.3308 6.62524 25.3308 6.62524 25.4407C6.73513 25.7704 6.95491 25.8803 7.28458 25.8803C7.39447 25.8803 7.61426 25.7704 7.72415 25.6605C7.83404 25.5506 7.83404 25.4407 7.83404 25.3308C7.83404 25.2209 7.83404 25.0012 7.72415 24.8913C7.72415 24.7814 7.61425 24.6715 7.61425 24.5616C7.61425 24.4517 7.61426 24.4517 7.72415 24.4517C7.72415 24.3418 7.83404 24.3418 7.94393 24.3418C8.05382 24.3418 8.05382 24.3418 8.16371 24.4517C8.16371 24.4517 8.16371 24.5616 8.2736 24.6715Z" fill="#246A20"/>
<path d="M9.2626 25.0011H9.15271H9.04282C9.04282 25.0011 8.93293 25.111 8.82304 25.3308L8.1637 26.5396C8.1637 26.5396 8.1637 26.5396 8.1637 26.6495V26.7593H8.27359C8.27359 26.7593 8.27359 26.7593 8.38348 26.7593C8.38348 26.7593 8.49337 26.6494 8.49337 26.4297L9.15271 25.3308C9.2626 25.2209 9.37249 25.111 9.2626 25.0011Z" fill="#246A20"/>
<path d="M11.3506 25.9901C11.2407 25.9901 11.2407 25.9901 11.2407 25.9901C11.1308 25.9901 11.1308 25.9901 11.1308 26.1L10.8011 26.8692C10.8011 26.9791 10.6912 27.089 10.5813 27.3088C10.5813 27.1989 10.4715 27.089 10.4715 26.8692C10.3616 26.3198 10.1418 25.7703 10.1418 25.6604C10.1418 25.6604 10.1418 25.5505 10.0319 25.5505H9.92201C9.92201 25.5505 9.92201 25.5505 9.81212 25.5505V25.6604L9.59234 26.6494C9.48245 26.8692 9.48245 26.9791 9.37256 27.089H9.48245C9.59234 27.089 9.59234 27.089 9.59234 26.9791L9.81212 26.3198C9.81212 26.2099 9.92201 26.1 10.0319 25.8802C10.0319 25.9901 10.0319 26.1 10.1418 26.1C10.2517 26.5395 10.4715 27.089 10.4715 27.4187C10.4715 27.4187 10.4715 27.4187 10.5813 27.4187C10.5813 27.4187 10.5813 27.4187 10.6912 27.4187L11.1308 26.3198C11.3506 26.3198 11.3506 26.1 11.3506 25.9901C11.4605 25.9901 11.4605 25.9901 11.3506 25.9901Z" fill="#246A20"/>
<path d="M12.999 26.3198C12.8891 26.3198 12.8891 26.3198 12.7792 26.3198C12.3396 26.3198 11.9001 26.6495 11.7902 27.0891C11.7902 27.1989 11.7902 27.1989 11.7902 27.3088C11.7902 27.7484 12.1198 28.188 12.5594 28.188C12.6693 28.188 12.6693 28.188 12.7792 28.188C12.8891 28.188 12.8891 28.188 12.999 28.188C13.1088 28.188 13.1088 28.0781 13.1088 28.0781C13.1088 28.0781 13.1088 28.0781 12.999 28.0781C12.8891 28.0781 12.8891 28.0781 12.7792 28.0781C12.6693 28.0781 12.6693 28.0781 12.5594 28.0781C12.2297 28.0781 11.9001 27.7484 11.9001 27.4187C11.9001 27.3088 11.9001 27.3088 11.9001 27.1989C11.9001 26.8693 12.2297 26.6495 12.5594 26.6495H12.6693C12.7792 26.6495 12.8891 26.7594 12.999 26.7594C13.1088 26.7594 13.1088 26.7594 13.1088 26.6495C13.4385 26.4297 13.2187 26.3198 12.999 26.3198Z" fill="#246A20"/>
<path d="M15.0868 28.188C14.9769 28.188 14.9769 28.188 14.867 28.188C14.7571 28.188 14.7571 28.188 14.6472 28.188C14.5373 28.188 14.4274 28.188 14.3176 28.188V27.6385H14.7571C14.867 27.6385 14.9769 27.5286 14.9769 27.5286H14.3176V26.9792H14.7571H14.867H14.9769L15.0868 26.8693C15.0868 26.8693 15.0868 26.7594 14.9769 26.7594H14.2077H14.0978C14.0978 26.7594 14.0978 26.7594 14.0978 26.8693C14.0978 26.9792 14.0978 27.0891 14.0978 27.199V28.5176C14.3176 28.5176 14.4274 28.5176 14.6472 28.5176C14.7571 28.5176 14.7571 28.5176 14.867 28.5176C14.9769 28.5176 14.9769 28.5176 14.9769 28.5176C15.0868 28.4078 15.0868 28.2979 15.0868 28.188Z" fill="#246A20"/>
<path d="M17.6143 26.3199C17.5044 26.21 17.5044 26.21 17.5044 26.21C17.3945 26.3199 17.2846 26.4297 17.0648 26.5396V26.6495C17.0648 26.6495 17.0648 26.6495 17.0648 26.7594C17.0648 26.7594 17.0648 26.7594 17.1747 26.7594C17.2846 26.7594 17.3945 26.6495 17.5044 26.5396C17.6143 27.3089 17.7242 27.7484 17.834 27.9682H17.9439L18.0538 27.8583C17.9439 27.7484 17.7242 26.5396 17.6143 26.3199Z" fill="#246A20"/>
<path d="M19.1528 25.8802C19.0429 25.8802 19.0429 25.8802 18.933 25.8802C18.7132 25.9901 18.4934 26.2099 18.6033 26.4297C18.6033 26.5396 18.6033 26.5396 18.6033 26.6495C18.7132 26.8693 18.8231 26.9792 19.0429 26.9792C19.1528 26.9792 19.1528 26.9792 19.2627 26.9792C19.3726 26.9792 19.4824 26.8693 19.4824 26.7594C19.4824 26.7594 19.4824 26.7594 19.4824 26.6495V26.5396C19.4824 26.5396 19.4824 26.5396 19.3726 26.5396C19.3726 26.5396 19.2627 26.6495 19.1528 26.6495H19.0429C18.933 26.6495 18.8231 26.6495 18.8231 26.4297V26.3198C18.8231 26.2099 18.933 26.1 19.0429 26.1H19.1528C19.2627 26.1 19.4824 26.2099 19.4824 26.5396C19.4824 26.6495 19.5923 26.7594 19.5923 26.9792C19.5923 27.089 19.5923 27.1989 19.4824 27.3088C19.3726 27.5286 19.2627 27.6385 19.0429 27.7484C19.0429 27.7484 19.0429 27.7484 19.0429 27.8583H19.1528C19.1528 27.8583 19.1528 27.8583 19.2627 27.8583C19.4824 27.7484 19.5923 27.5286 19.7022 27.4187C19.8121 27.3088 19.8121 27.089 19.8121 26.9792C19.8121 26.8693 19.8121 26.6495 19.7022 26.5396C19.7022 26.1 19.4824 25.8802 19.1528 25.8802Z" fill="#246A20"/>
<path d="M20.6912 25.111C20.5813 25.111 20.4714 25.111 20.4714 25.2209C20.2516 25.3307 20.1417 25.5505 20.1417 25.7703C20.1417 25.8802 20.1417 25.9901 20.2516 26.1C20.3615 26.3198 20.6912 26.4296 20.911 26.3198C21.0208 26.3198 21.1307 26.2099 21.1307 26.1V25.9901C21.1307 25.9901 21.1307 25.9901 21.0208 25.9901C21.0208 26.1 20.911 26.1 20.911 26.1H20.8011C20.6912 26.1 20.5813 26.1 20.5813 25.8802C20.5813 25.7703 20.5813 25.7703 20.5813 25.6604C20.5813 25.5505 20.5813 25.4406 20.6912 25.4406H20.8011C20.911 25.4406 21.1307 25.5505 21.2406 25.7703C21.3505 25.8802 21.3505 26.1 21.3505 26.2099C21.3505 26.3198 21.3505 26.3198 21.3505 26.4296C21.2406 26.6494 21.1307 26.7593 21.0208 26.8692C21.0208 26.8692 21.0208 26.8692 21.0208 26.9791H21.1307H21.2406C21.4604 26.8692 21.5703 26.6494 21.5703 26.4296C21.5703 26.3198 21.5703 26.2099 21.5703 26.1C21.5703 25.8802 21.5703 25.6604 21.4604 25.5505C21.2406 25.3307 21.0208 25.111 20.6912 25.111Z" fill="#246A20"/>
<path d="M22.2296 24.2319C22.1197 24.2319 22.0098 24.2319 21.9 24.3418C21.7901 24.4517 21.6802 24.6715 21.6802 24.7814C21.6802 24.8913 21.6802 25.0012 21.7901 25.1111C21.9 25.2209 22.0098 25.3308 22.2296 25.3308C22.3395 25.3308 22.4494 25.3308 22.5593 25.2209C22.6692 25.1111 22.6692 25.1111 22.7791 25.0012V24.8913C22.7791 25.0012 22.6692 25.0012 22.6692 25.0012C22.6692 25.0012 22.5593 25.1111 22.4494 25.1111C22.3395 25.1111 22.2296 25.0012 22.2296 25.0012C22.2296 24.8913 22.1197 24.8913 22.1197 24.7814C22.1197 24.6715 22.1197 24.6715 22.2296 24.5616H22.3395C22.5593 24.5616 22.6692 24.6715 22.7791 24.8913C22.889 25.1111 22.9989 25.2209 22.9989 25.4407C22.9989 25.4407 22.9989 25.4407 22.9989 25.5506C22.9989 25.7704 22.889 25.9902 22.7791 26.1001C22.7791 26.1001 22.7791 26.1001 22.7791 26.21H22.889H22.9989C23.1087 26.1001 23.2186 25.8803 23.3285 25.6605C23.3285 25.5506 23.3285 25.5506 23.3285 25.4407C23.3285 25.2209 23.2186 24.8913 23.1087 24.7814C22.6692 24.3418 22.4494 24.2319 22.2296 24.2319Z" fill="#246A20"/>
<path d="M19.2121 8.8747C19.2121 8.8747 19.322 8.8747 19.322 8.98459C19.2121 9.31426 18.9923 9.64393 18.9923 10.0835H19.1022C18.9923 10.4132 18.9923 10.7428 18.9923 11.0725C19.1022 11.7318 19.322 12.2813 19.7615 12.8307C19.7615 12.8307 19.7615 12.7208 19.8714 12.8307C20.0912 13.0505 20.311 13.3802 20.5308 13.6H20.6407C20.7506 13.7099 20.8604 13.8198 20.9703 13.8198C22.1791 14.4791 23.7176 14.3692 24.8165 13.4901C24.7066 12.611 24.4868 11.8417 24.0473 10.9626C23.9374 11.1824 23.8275 11.4022 23.6077 11.5121C23.6077 11.6219 22.9484 11.9516 22.289 11.4022C21.8495 11.0725 21.6297 10.4132 21.8495 9.86371C21.9593 9.53404 22.1791 9.31426 22.3989 9.09448C22.5088 8.98459 22.6187 8.8747 22.7286 8.76481L22.6187 8.65492H22.5088L22.3989 8.54503C22.289 8.43514 22.289 8.43514 22.1791 8.32525L22.0692 8.21536C21.7396 7.7758 21.3 7.44613 20.8604 7.11646C20.0912 7.44613 19.5418 8.10547 19.2121 8.8747Z" fill="#246A20"/>
<path d="M19.2121 22.3911L19.1022 22.2812C18.9923 22.1714 18.8824 21.9516 18.8824 21.8417C18.0033 20.1933 15.9154 19.534 14.1571 20.1933C13.8275 20.4131 13.4978 20.523 13.278 20.7428C11.8495 22.1714 11.6297 23.3801 11.7396 23.9296C12.0692 24.0395 11.7396 24.1494 12.1791 23.9296C12.1791 24.1494 12.3989 24.0395 12.6187 24.0395C12.8385 24.0395 12.9484 24.0395 12.9484 23.9296C13.0582 23.9296 13.0582 23.49 13.1681 23.7098C13.1681 23.8197 13.3879 23.8197 13.3879 23.8197C13.4978 23.8197 13.4978 23.7098 13.6077 23.8197C13.4978 23.49 13.4978 23.3801 13.8275 22.9406C14.1571 22.6109 14.5967 22.3911 15.0363 22.3911C15.5857 22.3911 16.1352 22.6109 16.355 23.1604C16.5747 23.5999 16.2451 24.4791 15.8055 25.0285C17.0143 24.9186 18.1132 24.5889 19.2121 24.0395C19.2121 23.9296 19.2121 23.7098 19.322 23.5999C19.322 23.49 19.322 22.8307 19.2121 22.3911Z" fill="#246A20"/>
<path d="M8.55271 21.5121C8.55271 21.4022 8.55271 21.2923 8.55271 21.0725V20.9626C8.55271 20.9626 8.55271 20.9626 8.44282 20.9626V20.8527C8.22304 20.5231 8.55271 19.8637 9.32195 19.4242C9.54173 19.3143 9.8714 19.2044 10.2011 19.0945C11.4099 19.0945 11.5197 19.7538 11.7395 19.7538C11.7395 19.4242 12.0692 20.0835 12.0692 19.644C12.289 19.644 12.3989 19.644 12.6186 19.5341C12.8384 19.3143 12.7285 19.0945 12.8384 19.3143C13.0582 19.644 13.3879 19.2044 13.4978 19.3143C13.6077 19.4242 13.7175 19.3143 13.8274 19.4242C13.4978 17.9956 12.289 17.0066 10.8604 17.0066C9.76151 17.0066 8.77249 17.2264 7.78348 17.7758C7.45381 17.9956 7.12414 18.3253 6.79447 18.6549C6.68458 18.7648 6.35491 19.3143 6.13513 19.644C6.79447 20.8527 7.5637 21.9516 8.6626 22.8308C8.6626 22.2813 8.6626 21.7319 8.55271 21.5121C8.55271 21.622 8.55271 21.622 8.55271 21.5121Z" fill="#246A20"/>
<path d="M5.69557 15.3583C6.02524 15.6879 6.24502 15.9077 6.35491 15.9077C6.68458 16.2374 7.12414 16.2374 7.45381 16.5671C7.67359 16.3473 8.55271 16.6769 8.55271 16.3473C8.77249 16.4572 9.10216 16.5671 9.21205 16.4572C9.43183 16.1275 9.65161 15.9077 9.98128 15.7978C10.0912 15.7978 10.311 15.7978 10.311 15.6879C10.311 15.578 10.0912 15.578 10.0912 15.4682C9.65161 15.7978 7.67359 14.8088 7.34392 13.2704C7.01425 12.7209 6.90436 12.0616 7.12414 11.5121C7.45381 10.8528 8.00326 10.4132 8.6626 10.1934H8.77249C9.10216 10.0835 9.43183 9.97365 9.7615 9.97365C9.87139 9.97365 10.0912 9.97365 10.2011 9.97365L10.0912 9.86376C10.2011 9.86376 10.311 9.97365 10.4208 9.97365C10.7505 9.97365 10.6406 9.86376 10.6406 9.64398C10.5307 9.53409 10.8604 9.64398 10.6406 9.53409C10.7505 9.64398 10.7505 9.53409 10.8604 9.64398C10.8604 9.53409 10.9703 9.53409 11.0802 9.53409C11.3 9.53409 11.4099 9.64398 11.6296 9.75387H11.7395C11.7395 9.75387 11.7395 9.64398 11.6296 9.64398C11.5197 9.31431 11.3 9.20442 11.1901 9.09453C10.0912 8.54508 8.88238 8.3253 7.78348 8.43519C6.24502 9.97365 5.3659 11.9517 5.14612 14.1495C5.25601 14.589 5.47579 15.0286 5.69557 15.3583Z" fill="#246A20"/>
<path d="M13.3878 9.31425C13.0581 10.3033 12.7285 11.1824 12.179 12.0615V12.1714C11.8494 12.611 11.5197 13.1604 11.2999 13.4901C11.19 13.7099 11.0801 13.9296 10.9702 14.1494C11.0801 14.1494 11.19 14.0395 11.2999 14.0395C11.19 14.1494 10.9702 14.2593 10.9702 14.3692C10.6406 14.8088 10.8603 14.8088 11.0801 14.9186C11.19 15.0285 11.2999 15.0285 11.19 15.1384C11.19 15.2483 11.2999 15.2483 11.19 15.3582C11.19 15.7978 11.0801 15.6879 11.19 15.7978C11.19 15.9077 11.0801 16.0176 10.9702 16.1274H11.0801C11.19 16.1274 11.19 16.1274 11.2999 16.1274C11.5197 16.1274 11.7395 16.0176 11.9592 15.9077C12.8384 15.1384 13.6076 14.3692 14.157 13.3802C14.157 13.3802 14.0472 13.3802 14.0472 13.2703C14.157 13.0505 14.3768 12.9406 14.4867 12.611H14.3768C14.4867 12.3912 14.5966 12.2813 14.8164 12.0615C15.0362 11.7318 15.0362 11.5121 15.1461 11.1824C15.3658 11.0725 15.4757 10.9626 15.6955 10.8527C15.8054 10.8527 15.8054 10.9626 15.8054 11.0725C16.1351 11.4022 16.3549 11.7318 16.3549 12.1714C16.4647 12.8307 16.5746 13.3802 16.5746 14.0395C16.5746 14.3692 16.6845 14.8088 16.6845 15.1384C16.6845 15.2483 16.7944 15.578 16.7944 15.6879C16.7944 15.6879 16.7944 15.6879 16.7944 15.7978C16.7944 15.9077 16.9043 16.0176 16.9043 16.1274V16.2373C17.6735 15.7978 18.3329 15.2483 18.8823 14.6989C18.8823 14.4791 18.8823 14.2593 18.8823 14.1494H18.7724C18.7724 14.0395 18.8823 13.6 18.7724 13.4901H18.6625C18.6625 13.3802 18.7724 13.2703 18.7724 13.0505C18.7724 12.8307 18.6625 12.5011 18.6625 12.2813C18.6625 12.2813 18.6625 12.2813 18.5527 12.2813C18.5527 12.1714 18.5527 12.0615 18.4428 11.8417V11.7318C18.4428 11.7318 18.4428 11.7318 18.3329 11.7318C18.3329 11.6219 18.3329 11.6219 18.3329 11.5121C18.0032 10.7428 17.4538 10.0835 16.7944 9.53403C16.5746 9.42414 16.3549 9.42414 16.245 9.31425C16.1351 9.20436 15.9153 9.20436 15.5856 9.20436C15.6955 8.21535 15.8054 7.11645 15.8054 6.12744C15.8054 5.79777 15.8054 5.4681 15.8054 5.13843C15.5856 5.13843 15.2559 5.13843 15.0362 5.13843C14.7065 5.13843 14.3768 5.13843 14.0472 5.13843C13.9373 5.68788 13.9373 6.12744 13.8274 6.67689C13.8274 7.55601 13.6076 8.43513 13.3878 9.31425Z" fill="#246A20"/>
<path d="M22.8384 21.0725C22.7285 21.0725 22.7285 20.9626 22.6186 20.9626C22.0692 20.6329 21.6296 19.9736 21.4099 19.3142C21.4099 18.6549 21.7395 18.1054 22.289 17.6659C22.5088 17.556 22.8384 17.3362 23.0582 17.2263C23.1681 17.1164 23.278 17.1164 23.3879 17.0065C23.3879 16.8967 23.278 16.8967 23.1681 16.8967C23.278 16.8967 23.3879 17.0065 23.4978 16.8967C23.8274 16.8967 23.7175 16.7868 23.4978 16.4571C23.3879 16.3472 23.6077 16.3472 23.3879 16.2373C23.4978 16.2373 23.4978 16.2373 23.6077 16.2373H23.7175C23.7175 16.2373 23.7175 16.2373 23.8274 16.1274C23.8274 16.1274 23.9373 16.1274 23.8274 16.0175C23.9373 16.1274 23.9373 16.0175 23.9373 16.0175C23.8274 15.9076 24.0472 16.0175 24.0472 16.0175C24.0472 15.9076 24.1571 16.0175 24.1571 15.9076C24.0472 15.6879 23.8274 15.578 23.6077 15.4681C22.7285 15.0285 21.4099 15.0285 20.3109 15.578C20.3109 15.578 19.8714 15.9076 19.7615 16.1274L19.8714 16.2373C19.6516 16.3472 19.4318 16.4571 19.3219 16.6769C18.9923 17.0065 18.8824 17.4461 18.7725 17.8857C18.7725 18.2153 18.6626 18.4351 18.6626 18.6549V18.7648C18.6626 18.7648 18.6626 18.8747 18.7725 18.8747C18.7725 18.9846 18.7725 19.0945 18.7725 19.3142C18.8824 20.1934 19.3219 21.0725 20.0912 21.6219C20.6406 22.0615 21.1901 22.3912 21.7395 22.7208C21.9593 22.1714 22.5088 21.6219 22.8384 21.0725Z" fill="#246A20"/>
</svg>
