<?xml version="1.0" encoding="utf-8"?>
<!-- Generator: Adobe Illustrator 24.1.1, SVG Export Plug-In . SVG Version: 6.00 Build 0)  -->
<svg version="1.1" id="Layer_1" xmlns="http://www.w3.org/2000/svg" xmlns:xlink="http://www.w3.org/1999/xlink" x="0px" y="0px"
	 viewBox="0 0 27.3 27.3" style="enable-background:new 0 0 27.3 27.3;" xml:space="preserve">
<style type="text/css">
	.st0{fill:#246A20;}
	.st1{fill:#FFFFFF;}
</style>
<path id="패스_8592" class="st0" d="M27.3,13.6c0,7.5-6.1,13.6-13.6,13.6C6.1,27.3,0,21.2,0,13.6C0,6.1,6.1,0,13.6,0l0,0
	C21.2,0,27.3,6.1,27.3,13.6z"/>
<g id="그룹_4881" transform="translate(1.229 1.251)">
	<path id="패스_8593" class="st1" d="M2.9,18.1C2.9,18,2.8,18,2.7,18H2.6l0,0l0,0c0,0,0,0,0,0.1c0.1,0.1,0.2,0.3,0.3,0.4H3h0.1
		l0,0l0,0c0,0,0,0,0-0.1S3,18.2,2.9,18.1z"/>
	<path id="패스_8594" class="st1" d="M2,14.3c0,0-0.1-0.1-0.2-0.1l0,0l0,0l0,0v0.1c0.1,0.1,0.1,0.2,0.2,0.4c0,0.1,0,0.2,0,0.2
		c0,0.3-0.2,0.6-0.6,0.7c-0.1,0-0.1,0-0.2,0c-0.3,0-0.6-0.2-0.7-0.5c0-0.1,0-0.1,0-0.2c0-0.1,0-0.1,0-0.2l0,0c0-0.1-0.1-0.1-0.2-0.1
		l0,0l0,0c0,0.1-0.1,0.2-0.1,0.3s0,0.2,0,0.3C0.3,15.7,0.7,16,1.1,16l0,0c0.1,0,0.2,0,0.3,0c0.4-0.1,0.8-0.4,0.7-0.9
		c0-0.1,0-0.2,0-0.3C2.2,14.5,2.1,14.4,2,14.3z"/>
	<path id="패스_8595" class="st1" d="M1.4,13.6c0.2,0,0.3,0,0.5,0H2c0,0,0.1,0,0.1-0.1l0,0v-0.1v-0.1H2l0,0H1.3v-0.5
		c0-0.2,0-0.3,0-0.4h0.8c0,0,0,0,0.1,0c0,0,0,0,0-0.1l0,0c0-0.1,0-0.1,0-0.2c0,0,0,0-0.1,0c-0.1,0-0.1,0-0.3,0H0.9
		c-0.2,0-0.3,0-0.4,0H0.1l0,0l0,0v0.1v0.1h0.1l0,0h0.7v0.9H0.3H0.2l-0.1,0.1l0,0v0.1c0,0,0,0,0.1,0l0,0c0,0,0.2,0,0.4,0L1.4,13.6z"
		/>
	<path id="패스_8596" class="st1" d="M1,11.2c0.1,0,0.1,0,0.2,0l0,0c0.5,0,0.9-0.3,0.9-0.8c0-0.1,0-0.1,0-0.2
		c0-0.5-0.4-0.9-0.8-0.9c-0.1,0-0.1,0-0.2,0c-0.5,0-0.9,0.3-0.9,0.8c0,0.1,0,0.1,0,0.2C0.2,10.8,0.6,11.2,1,11.2z M0.4,10.1
		L0.4,10.1L0.4,10.1c0.1-0.3,0.4-0.5,0.7-0.5c0.1,0,0.1,0,0.2,0c0.5,0.1,0.6,0.3,0.6,0.6v0.1c-0.1,0.3-0.4,0.5-0.7,0.5
		c-0.1,0-0.1,0-0.2,0c-0.4-0.1-0.6-0.3-0.6-0.6C0.4,10.2,0.4,10.2,0.4,10.1L0.4,10.1z"/>
	<path id="패스_8597" class="st1" d="M2.6,8.7c0-0.1,0-0.1-0.1-0.1L1.9,8.3l0,0C2,8.1,2,8.1,2.3,8c0.2,0,0.2,0,0.4-0.1
		c0.1,0,0.2-0.1,0.3-0.2V7.6l0,0l0,0l0,0c0,0,0,0-0.1,0c-0.2,0-0.4,0.1-0.5,0.1S2.2,7.7,2,7.8c0-0.2-0.1-0.4-0.3-0.5
		c-0.1,0-0.2-0.1-0.2-0.1C1.2,7.3,1,7.5,0.9,7.7c0,0.2-0.1,0.3-0.1,0.5v0.1c0.1,0,0.1,0.1,0.3,0.1L2,8.7c0.2,0.1,0.4,0.2,0.5,0.2
		l0,0l0,0l0,0C2.5,8.9,2.5,8.8,2.6,8.7L2.6,8.7z M1.4,7.6c0.1,0,0.1,0,0.1,0c0.1,0,0.2,0.2,0.2,0.3l0,0c0,0.1-0.1,0.2-0.1,0.3L1.1,8
		l0.1-0.2C1.2,7.7,1.3,7.6,1.4,7.6L1.4,7.6z"/>
	<path id="패스_8598" class="st1" d="M20.2,5.4h0.1L20.8,5l0,0C21,5.1,21,5.3,20.9,5.4c0,0.2-0.1,0.2-0.1,0.4c0,0.1,0,0.2,0,0.3
		l0.1,0.1l0,0l0,0l0,0c0,0,0,0,0-0.1c0-0.2,0.1-0.4,0.1-0.5s0.1-0.2,0.1-0.4c0.2,0.1,0.4,0,0.6-0.1c0.2,0,0.2,0,0.3-0.1
		c0.1-0.2,0-0.5-0.2-0.7c-0.1-0.1-0.2-0.2-0.3-0.3h-0.1c-0.1,0.1-0.1,0.1-0.2,0.2l-0.7,0.6c-0.2,0.2-0.3,0.3-0.4,0.3l0,0l0,0l0,0
		C20.1,5.3,20.1,5.3,20.2,5.4L20.2,5.4z M21.7,4.9L21.6,5c-0.1,0.1-0.2,0.1-0.4,0.1l0,0C21.1,5,21,4.9,21,4.9l0.5-0.4
		c0,0,0.1,0.1,0.2,0.2C21.7,4.6,21.8,4.7,21.7,4.9L21.7,4.9z"/>
	<path id="패스_8599" class="st1" d="M3.5,5.2C3.3,5.1,3.1,5,2.9,5C2.6,5,2.3,5.2,2.1,5.4l0,0C2,5.6,2,5.8,2,5.9
		c0,0.3,0.2,0.6,0.5,0.8C2.6,6.9,2.8,6.9,3,6.9l0,0c0.3,0,0.6-0.2,0.8-0.4C3.9,6.4,3.9,6.2,3.9,6C3.9,5.7,3.8,5.3,3.5,5.2z M3,6.7
		c-0.2,0-0.3-0.1-0.4-0.1C2.4,6.4,2.2,6.2,2.2,5.9c0-0.1,0-0.2,0.1-0.3l0,0c0.1-0.2,0.3-0.3,0.5-0.3s0.3,0.1,0.5,0.1
		C3.5,5.5,3.7,5.8,3.7,6c0,0.1,0,0.2-0.1,0.4C3.4,6.6,3.2,6.7,3,6.7z"/>
	<path id="패스_8600" class="st1" d="M5.7,4.2L5.7,4.2c0-0.1,0-0.2,0-0.2l0,0l0,0H5.6C5.5,4.2,5.4,4.3,5.3,4.4
		C5.1,4.5,5,4.6,4.8,4.6C4.4,4.6,4,4.3,4,3.9c0-0.2,0.1-0.4,0.2-0.5s0.2-0.2,0.3-0.2l0,0l0.1-0.1V3l0,0l0,0C4.4,3,4.2,3,4.1,3.2
		C3.9,3.4,3.7,3.6,3.7,3.9c0,0.5,0.4,1,1,1c0.3,0,0.5-0.1,0.7-0.3C5.5,4.5,5.6,4.4,5.7,4.2z"/>
	<path id="패스_8601" class="st1" d="M7,1.9c0.3,0.3,0.8,0.8,1,1c0,0,0,0,0.1,0c0,0,0.1,0,0.1-0.1V2.7l0,0c0-0.4,0-1,0-1.3L8.5,2
		c0.1,0.2,0.2,0.3,0.3,0.4l0.1,0.1l0,0L9,2.4V2.3C9,2.2,8.9,2,8.7,1.8L8.1,0.9L8,0.8l0,0L7.9,0.9V1l0,0c0,0.3,0,0.8,0,1.4L7.2,1.7
		C7,1.5,6.9,1.4,6.8,1.4c0,0,0,0-0.1,0L6.6,1.5l0,0l0,0l0,0C6.8,2.2,7,2.9,7,3.2c0,0,0,0,0.1,0.1l0,0l0,0h0.1l0.1-0.1l0,0
		C7.2,2.9,7.1,2.3,7,1.9z"/>
	<path id="패스_8602" class="st1" d="M9.8,2.1L9.8,2.1C9.8,2.2,9.8,2.2,9.8,2.1L9.8,2.1c0.3,0,0.4,0,0.6,0c0.1,0,0.2,0,0.3-0.1
		c0.1,0,0.1-0.1,0.1-0.2c0,0,0,0,0-0.1l0,0c0,0,0,0-0.1,0s-0.2,0.1-0.4,0.1c-0.1,0-0.3,0.1-0.3,0.1L9.9,1.3l0.5-0.1
		c0.1,0,0.2-0.1,0.2-0.2l0,0l0,0c0,0,0,0,0-0.1c0,0,0,0-0.1,0L9.8,1.1L9.7,0.6l0.4-0.1c0.1,0,0.1,0,0.2-0.1l0.1-0.1l0,0
		c0,0,0-0.1-0.1-0.1L9.5,0.3l0,0c0,0-0.1,0-0.1,0.1c0,0,0,0,0,0.1s0.1,0.2,0.1,0.3L9.8,2.1L9.8,2.1z"/>
	<path id="패스_8603" class="st1" d="M13,1.8c0-0.1-0.1-0.2-0.2-0.5c-0.1-0.3-0.4-0.9-0.6-1.2L12.1,0l0,0H12v0.1v0.1
		c-0.1,0.2-0.5,1.3-0.7,1.6l0,0l0,0c0,0,0,0,0,0.1h0.1l0,0c0,0,0.1,0,0.1-0.1c0.1-0.1,0.1-0.3,0.2-0.6h0.7c0.1,0.2,0.2,0.4,0.2,0.5
		s0.1,0.1,0.1,0.1l0,0h0.1C13,1.8,13.1,1.8,13,1.8L13,1.8L13,1.8z M12.4,1h-0.5c0.1-0.2,0.2-0.4,0.2-0.5C12.2,0.6,12.3,0.8,12.4,1
		L12.4,1z"/>
	<path id="패스_8604" class="st1" d="M15.4,0.3L15.4,0.3L15.4,0.3L15.4,0.3h-0.1c-0.1,0-0.1,0.1-0.1,0.1l-0.1,0.8
		c0,0.1,0,0.3-0.1,0.5c-0.1-0.1-0.1-0.2-0.2-0.4c-0.3-0.5-0.5-1-0.6-1.1l-0.1-0.1c0,0,0,0-0.1,0h-0.1c0,0,0,0-0.1,0.1l0,0l0,0
		L14,0.3l-0.2,1.1c0,0.2-0.1,0.4-0.1,0.5c0,0,0,0,0,0.1l0,0c0,0,0,0,0.1,0l0,0h0.1V1.9L14,1.2c0-0.1,0-0.2,0.1-0.5
		c0,0.1,0.1,0.2,0.1,0.2c0.2,0.4,0.5,0.9,0.6,1.3l0,0l0,0l0,0h0.1l0,0L15.1,1C15.4,0.7,15.5,0.5,15.4,0.3
		C15.5,0.4,15.5,0.4,15.4,0.3C15.5,0.4,15.4,0.4,15.4,0.3z"/>
	<path id="패스_8605" class="st1" d="M17.3,1.1L17.3,1.1C17.2,1,17.1,0.9,17,0.8v0.1l0,0V0.8l0,0c-0.1,0-0.2-0.1-0.3-0.1
		c-0.2,0-0.4,0.1-0.5,0.3c0,0.1,0,0.1,0,0.2c0,0.2,0.1,0.3,0.2,0.5s0.2,0.3,0.2,0.4v0.1c0,0.1-0.1,0.2-0.2,0.2s-0.1,0-0.2,0
		S16,2.3,15.9,2.2l0,0c0,0,0,0-0.1,0c0,0,0,0.1-0.1,0.1c0,0,0,0,0,0.1v0.1c0.1,0.1,0.2,0.2,0.3,0.3c0.1,0,0.2,0.1,0.3,0.1l0,0
		c0.2,0,0.4-0.1,0.5-0.3c0-0.1,0-0.1,0-0.2c0-0.2-0.1-0.4-0.3-0.5c-0.1-0.2-0.2-0.2-0.2-0.3V1.5c0-0.1,0.1-0.2,0.2-0.1h0.1
		c0.1,0,0.2,0.1,0.2,0.2l0,0l0,0C17.2,1.2,17.3,1.2,17.3,1.1z"/>
	<path id="패스_8606" class="st1" d="M18.9,4.2c0.2,0.1,0.4,0.2,0.6,0.2c0.3,0,0.6-0.2,0.8-0.4c0.1-0.2,0.2-0.4,0.2-0.6
		c0-0.3-0.1-0.6-0.4-0.7l0,0c-0.2-0.1-0.4-0.2-0.6-0.2c-0.6,0-1,0.5-1,1C18.5,3.7,18.6,4,18.9,4.2z M19.9,2.8
		c0.2,0.1,0.2,0.3,0.2,0.5S20,3.6,19.9,3.8s-0.3,0.3-0.6,0.3C19.2,4.1,19,4,18.9,4c-0.2-0.1-0.2-0.3-0.2-0.5s0.1-0.3,0.2-0.5
		s0.4-0.3,0.6-0.3C19.7,2.6,19.8,2.7,19.9,2.8L19.9,2.8z"/>
	<path id="패스_8607" class="st1" d="M21.9,7.8c0.1,0,0.1,0.1,0.2,0.1l0,0l0,0l0.6-0.3c0,0,0.1,0,0.1-0.1l0,0l-0.1-0.1h-0.1
		c-0.1,0.1-0.2,0.1-0.3,0.2l0,0l-0.2,0.1C22,7.6,22,7.5,21.9,7.5c-0.1-0.1-0.1-0.3-0.1-0.4c0-0.3,0.2-0.5,0.4-0.6
		c0.1-0.1,0.2-0.1,0.4-0.1c0.3,0,0.5,0.1,0.6,0.4c0.1,0.1,0.1,0.3,0.1,0.4l0,0c0,0.1,0.1,0.1,0.1,0.1h0.1l0,0V7.2
		c0-0.2-0.1-0.4-0.2-0.5C23.2,6.2,22.9,6,22.5,6c-0.2,0-0.3,0-0.5,0.1c-0.3,0.1-0.5,0.5-0.5,0.8c0,0.2,0.1,0.4,0.2,0.6
		C21.7,7.6,21.8,7.7,21.9,7.8z"/>
	<path id="패스_8608" class="st1" d="M23.1,9.5c-0.2,0.2-0.3,0.3-0.4,0.4L22.6,10l0,0c0,0,0,0.1,0.1,0.1c0,0,0,0,0.1,0l0,0l0,0
		l0,0c0.1-0.1,0.2-0.2,0.4-0.4c0.2-0.2,0.8-0.6,1-0.9V8.7l0,0c0,0,0-0.1-0.1-0.1H24h-0.1c-0.3,0-1.4-0.2-1.7-0.2l0,0l0,0
		c0,0,0,0-0.1,0c0,0,0,0,0,0.1c0,0,0,0,0,0.1c0,0,0,0.1,0.1,0.1s0.3,0,0.6,0.1L23.1,9.5z M23.4,9.3l-0.1-0.5l0.6,0.1
		C23.7,9,23.6,9.1,23.4,9.3L23.4,9.3z"/>
	<path id="패스_8609" class="st1" d="M24.8,12c0-0.1-0.1-0.1-0.1-0.1l0,0L23.9,12c-0.1,0-0.3,0-0.5,0c0.1-0.1,0.2-0.2,0.3-0.3
		c0.4-0.4,0.8-0.7,0.9-0.9l0.1-0.1l0,0c0-0.1,0-0.1,0-0.1s0,0-0.1,0l0,0l0,0l-0.1,0.1l-1.1,0.1c-0.2,0-0.4,0-0.5,0l0,0l0,0v0.1
		C22.9,11,23,11,23,11l0,0l0.7-0.1c0.1,0,0.2,0,0.5,0L24,11.1c-0.3,0.3-0.8,0.7-1.1,1l0,0l0,0l0,0l0,0l0,0l0,0c0,0,0,0.1,0.1,0.1
		l0,0l0,0l1.2-0.1c0.2,0,0.4,0,0.5,0l0,0C24.8,12.1,24.8,12.1,24.8,12L24.8,12z"/>
	<path id="패스_8610" class="st1" d="M24.7,13.2L24.7,13.2c-0.1,0-0.2,0-0.3,0L23,13.1l0,0h-0.1c0,0,0,0,0,0.1l0,0v0.1
		c0,0,0,0,0.1,0s0.1,0,0.3,0l1.3,0.1h0.1h0.1c0,0,0,0,0-0.1l0,0C24.8,13.3,24.8,13.3,24.7,13.2C24.8,13.2,24.7,13.2,24.7,13.2
		L24.7,13.2z"/>
	<path id="패스_8611" class="st1" d="M23.7,14.2c-0.1,0-0.2,0-0.3,0c-0.5,0-0.8,0.3-0.9,0.8c0,0.1,0,0.2,0,0.3s0,0.1,0,0.2
		c0,0.1,0.1,0.1,0.1,0.1l0,0l0,0c0,0,0,0,0-0.1s0-0.1,0-0.2c0-0.1,0-0.1,0-0.2c0-0.3,0.3-0.6,0.7-0.6c0.1,0,0.1,0,0.2,0
		c0.3,0,0.6,0.3,0.6,0.7c0,0.2-0.1,0.4-0.2,0.5c0,0,0,0,0,0.1s0,0.1,0.1,0.1l0,0l0,0c0.2-0.1,0.3-0.3,0.3-0.5c0-0.1,0-0.2,0-0.3
		C24.5,14.7,24.2,14.3,23.7,14.2z"/>
	<path id="패스_8612" class="st1" d="M22.1,17.8L22.1,17.8L22.1,17.8c-0.1,0.2-0.2,0.3-0.3,0.5v0.1c0,0.1,0,0.1,0.1,0.2l0,0l0,0
		l0,0l0,0c0-0.1,0.1-0.3,0.2-0.5l0,0C22.2,17.9,22.2,17.8,22.1,17.8L22.1,17.8z"/>
	<path id="패스_8613" class="st1" d="M6.3,21.2L6.3,21.2c0.1,0,0.1,0,0.2,0l0,0c0-0.1-0.1-0.2-0.2-0.3l0,0l0,0l0,0
		c-0.1-0.1-0.2-0.1-0.3-0.1c-0.1,0-0.3,0.1-0.4,0.2s-0.1,0.2-0.1,0.3c0,0.1,0,0.2,0.1,0.3c0.1,0.1,0.1,0.2,0.1,0.3
		c0,0.1,0,0.1-0.1,0.1c0,0.1-0.1,0.1-0.2,0.1s-0.1,0-0.2-0.1S5,21.8,5,21.7l0,0c0,0,0,0-0.1,0c0,0-0.1,0-0.1,0.1c0,0,0,0,0,0.1l0,0
		c0.1,0.3,0.3,0.4,0.6,0.4l0,0c0.1,0,0.3-0.1,0.4-0.2s0.1-0.2,0.1-0.3c0-0.1,0-0.3-0.1-0.4c0-0.1-0.1-0.2-0.1-0.3
		c0-0.1,0-0.1,0.1-0.1c0-0.1,0.1-0.1,0.2-0.1s0.1,0,0.2,0.1C6.2,21,6.2,21.1,6.3,21.2L6.3,21.2z"/>
	<path id="패스_8614" class="st1" d="M7.2,21.5L7.2,21.5H7c0,0-0.1,0.1-0.2,0.3l0,0l0,0l-0.6,1.1c0,0,0,0,0,0.1v0.1h0.1l0,0
		c0,0,0,0,0.1,0c0,0,0.1-0.1,0.1-0.3l0.6-1C7.2,21.7,7.3,21.6,7.2,21.5C7.3,21.5,7.2,21.5,7.2,21.5z"/>
	<path id="패스_8615" class="st1" d="M9.1,22.4C9.1,22.4,9.1,22.3,9.1,22.4c-0.1,0-0.1,0-0.1,0c-0.1,0-0.1,0-0.1,0.1l-0.3,0.7
		c0,0.1-0.1,0.2-0.2,0.4c0-0.1-0.1-0.2-0.1-0.4c-0.1-0.5-0.3-1-0.3-1.1c0,0,0-0.1-0.1-0.1H7.8c0,0,0,0-0.1,0l0,0l0,0v0.1L7.5,23
		c-0.1,0.2-0.1,0.3-0.2,0.4l0,0l0,0h0.1l0,0c0.1,0,0.1,0,0.1-0.1l0.2-0.6c0-0.1,0.1-0.2,0.2-0.4c0,0.1,0,0.2,0.1,0.2
		c0.1,0.4,0.3,0.9,0.3,1.2l0,0l0,0l0,0c0,0,0,0,0.1,0c0,0,0,0,0.1,0l0,0l0.4-1C9.1,22.7,9.1,22.5,9.1,22.4
		C9.2,22.4,9.2,22.4,9.1,22.4C9.2,22.4,9.1,22.4,9.1,22.4z"/>
	<path id="패스_8616" class="st1" d="M10.6,22.7c-0.1,0-0.1,0-0.2,0c-0.4,0-0.8,0.3-0.9,0.7c0,0.1,0,0.1,0,0.2
		c0,0.4,0.3,0.8,0.7,0.8c0.1,0,0.1,0,0.2,0c0.1,0,0.1,0,0.2,0c0.1,0,0.1-0.1,0.1-0.1l0,0l0,0c0,0,0,0-0.1,0s-0.1,0-0.2,0
		c-0.1,0-0.1,0-0.2,0c-0.3,0-0.6-0.3-0.6-0.6c0-0.1,0-0.1,0-0.2c0-0.3,0.3-0.5,0.6-0.5h0.1c0.1,0,0.2,0.1,0.3,0.1l0,0l0,0
		c0.1,0,0.1,0,0.1-0.1l0,0C11,22.8,10.8,22.7,10.6,22.7z"/>
	<path id="패스_8617" class="st1" d="M12.5,24.4L12.5,24.4c-0.1,0-0.1,0-0.2,0s-0.1,0-0.2,0c-0.1,0-0.2,0-0.3,0v-0.5h0.4l0,0
		c0.1,0,0.2-0.1,0.2-0.1l0,0l0,0h-0.6v-0.5h0.4h0.1h0.1l0,0l0.1-0.1c0,0,0-0.1-0.1-0.1h-0.7l0,0h-0.1c0,0,0,0,0,0.1l0,0
		c0,0.1,0,0.2,0,0.3v1.2l0,0l0,0l0,0c0.2,0,0.3,0,0.5,0c0.1,0,0.1,0,0.2,0s0.1,0,0.1,0C12.5,24.6,12.5,24.5,12.5,24.4L12.5,24.4
		L12.5,24.4z"/>
	<path id="패스_8618" class="st1" d="M14.8,22.7L14.8,22.7L14.8,22.7c-0.1-0.1-0.1-0.1-0.1-0.1c-0.1,0.1-0.2,0.2-0.4,0.3l0,0V23
		c0,0,0,0,0,0.1l0,0c0,0,0,0,0.1,0s0.2-0.1,0.3-0.2c0.1,0.7,0.2,1.1,0.3,1.3l0,0l0,0l0,0h0.1l0.1-0.1l0,0
		C15.1,24,14.9,22.9,14.8,22.7z"/>
	<path id="패스_8619" class="st1" d="M16.2,22.3c-0.1,0-0.1,0-0.2,0c-0.2,0.1-0.4,0.3-0.3,0.5c0,0.1,0,0.1,0,0.2
		c0.1,0.2,0.2,0.3,0.4,0.3c0.1,0,0.1,0,0.2,0s0.2-0.1,0.2-0.2c0,0,0,0,0-0.1v-0.1l0,0c0,0,0,0-0.1,0c0,0-0.1,0.1-0.2,0.1h-0.1
		c-0.1,0-0.2,0-0.2-0.2v-0.1c0-0.1,0.1-0.2,0.2-0.2h0.1c0.1,0,0.3,0.1,0.3,0.4c0,0.1,0.1,0.2,0.1,0.4c0,0.1,0,0.2-0.1,0.3
		c-0.1,0.2-0.2,0.3-0.4,0.4c0,0,0,0,0,0.1l0,0l0,0h0.1l0,0c0,0,0,0,0.1,0c0.2-0.1,0.3-0.3,0.4-0.4s0.1-0.3,0.1-0.4s0-0.3-0.1-0.4
		C16.7,22.5,16.5,22.3,16.2,22.3z"/>
	<path id="패스_8620" class="st1" d="M17.6,21.6c-0.1,0-0.2,0-0.2,0.1c-0.2,0.1-0.3,0.3-0.3,0.5c0,0.1,0,0.2,0.1,0.3
		c0.1,0.2,0.4,0.3,0.6,0.2l0,0c0.1,0,0.2-0.1,0.2-0.2l0,0v-0.1c0,0,0,0-0.1,0l0,0c0,0.1-0.1,0.1-0.1,0.1h-0.1c-0.1,0-0.2,0-0.2-0.2
		c0-0.1,0-0.1,0-0.2s0-0.2,0.1-0.2h0.1c0.1,0,0.3,0.1,0.4,0.3c0.1,0.1,0.1,0.3,0.1,0.4s0,0.1,0,0.2c-0.1,0.2-0.2,0.3-0.3,0.4
		c0,0,0,0,0,0.1l0,0l0,0H18l0,0l0,0l0,0h0.1c0.2-0.1,0.3-0.3,0.3-0.5c0-0.1,0-0.2,0-0.3c0-0.2,0-0.4-0.1-0.5
		C18.1,21.8,17.9,21.6,17.6,21.6z"/>
	<path id="패스_8621" class="st1" d="M19,20.8c-0.1,0-0.2,0-0.3,0.1c-0.1,0.1-0.2,0.3-0.2,0.4s0,0.2,0.1,0.3
		c0.1,0.1,0.2,0.2,0.4,0.2c0.1,0,0.2,0,0.3-0.1c0.1-0.1,0.1-0.1,0.2-0.2l0,0v-0.1l0,0l0,0c0,0.1-0.1,0.1-0.1,0.1s-0.1,0.1-0.2,0.1
		S19,21.5,19,21.5c0-0.1-0.1-0.1-0.1-0.2s0-0.1,0.1-0.2h0.1c0.2,0,0.3,0.1,0.4,0.3c0.1,0.2,0.2,0.3,0.2,0.5c0,0,0,0,0,0.1
		c0,0.2-0.1,0.4-0.2,0.5c0,0,0,0,0,0.1l0,0l0,0h0.1l0,0h0.1c0.1-0.1,0.2-0.3,0.3-0.5c0-0.1,0-0.1,0-0.2c0-0.2-0.1-0.5-0.2-0.6
		C19.4,20.9,19.2,20.8,19,20.8z"/>
</g>
<g id="그룹_4882" transform="translate(4.683 4.676)">
	<path id="패스_8622" class="st1" d="M12.8,3.4c0,0,0.1,0,0.1,0.1c-0.1,0.3-0.3,0.6-0.3,1h0.1c-0.1,0.3-0.1,0.6-0.1,0.9
		C12.7,6,12.9,6.5,13.3,7c0,0,0-0.1,0.1,0c0.2,0.2,0.4,0.5,0.6,0.7h0h0.1c0.1,0.1,0.2,0.2,0.3,0.2c1.1,0.6,2.5,0.5,3.5-0.3
		c-0.1-0.8-0.3-1.5-0.7-2.3c-0.1,0.2-0.2,0.4-0.4,0.5c0,0.1-0.6,0.4-1.2-0.1c-0.4-0.3-0.6-0.9-0.4-1.4l0,0c0.1-0.3,0.3-0.5,0.5-0.7
		c0.1-0.1,0.2-0.2,0.3-0.3l-0.1-0.1h-0.1l0,0l-0.1-0.1C15.6,3,15.6,3,15.5,2.9l-0.1-0.1c-0.3-0.4-0.7-0.7-1.1-1
		C13.6,2.1,13.1,2.7,12.8,3.4z"/>
	<path id="패스_8623" class="st1" d="M12.8,15.7l-0.1-0.1c-0.1-0.1-0.2-0.3-0.2-0.4c-0.8-1.5-2.7-2.1-4.3-1.5
		c-0.3,0.2-0.6,0.3-0.8,0.5c-1.3,1.3-1.5,2.4-1.4,2.9c0.3,0.1,0,0.2,0.4,0c0,0.2,0.2,0.1,0.4,0.1c0.2,0,0.3,0,0.3-0.1
		c0.1,0,0.1-0.4,0.2-0.2C7.3,17,7.5,17,7.5,17c0.1,0,0.1-0.1,0.2,0c-0.1-0.3-0.1-0.4,0.2-0.8c0.3-0.3,0.7-0.5,1.1-0.5
		c0.5,0,1,0.2,1.2,0.7c0.2,0.4-0.1,1.2-0.5,1.7c1.1-0.1,2.1-0.4,3.1-0.9c0-0.1,0-0.3,0.1-0.4C12.9,16.7,12.9,16.1,12.8,15.7z"/>
	<path id="패스_8624" class="st1" d="M3.1,14.9c0-0.1,0-0.2,0-0.4v-0.1c0,0,0,0-0.1,0v-0.1C2.8,14,3.1,13.4,3.8,13
		c0.2-0.1,0.5-0.2,0.8-0.3c1.1,0,1.2,0.6,1.4,0.6c0-0.3,0.3,0.3,0.3-0.1c0.2,0,0.3,0,0.5-0.1C7,12.9,6.9,12.7,7,12.9
		c0.2,0.3,0.5-0.1,0.6,0s0.2,0,0.3,0.1c-0.3-1.3-1.4-2.2-2.7-2.2c-1,0-1.9,0.2-2.8,0.7c-0.3,0.2-0.6,0.5-0.9,0.8
		c-0.1,0.1-0.4,0.6-0.6,0.9c0.6,1.1,1.3,2.1,2.3,2.9C3.2,15.6,3.2,15.1,3.1,14.9C3.1,15,3.1,15,3.1,14.9z"/>
	<path id="패스_8625" class="st1" d="M0.5,9.3C0.8,9.6,1,9.8,1.1,9.8c0.3,0.3,0.7,0.3,1,0.6c0.2-0.2,1,0.1,1-0.2
		c0.2,0.1,0.5,0.2,0.6,0.1C3.9,10,4.1,9.8,4.4,9.7c0.1,0,0.3,0,0.3-0.1S4.5,9.5,4.5,9.4C4.1,9.7,2.3,8.8,2,7.4
		C1.7,6.9,1.6,6.3,1.8,5.8c0.3-0.6,0.8-1,1.4-1.2h0.1c0.3-0.1,0.6-0.2,0.9-0.2c0.1,0,0.3,0,0.4,0L4.5,4.3c0.1,0,0.2,0.1,0.3,0.1
		C5.1,4.4,5,4.3,5,4.1C4.9,4,5.2,4.1,5,4c0.1,0.1,0.1,0,0.2,0.1C5.2,4,5.3,4,5.4,4c0.2,0,0.3,0.1,0.5,0.2H6c-0.1,0,0,0,0,0l0,0l0,0
		c0,0,0-0.1-0.1-0.1C5.8,3.8,5.6,3.7,5.5,3.6C4.5,3.1,3.4,2.9,2.4,3C1,4.4,0.2,6.2,0,8.2C0.1,8.6,0.3,9,0.5,9.3z"/>
	<path id="패스_8626" class="st1" d="M7.5,3.8C7.2,4.7,6.9,5.5,6.4,6.3v0.1C6.1,6.8,5.8,7.3,5.6,7.6C5.5,7.8,5.4,8,5.3,8.2
		c0.1,0,0.2-0.1,0.3-0.1C5.5,8.2,5.3,8.3,5.3,8.4C5,8.8,5.2,8.8,5.4,8.9C5.5,9,5.6,9,5.5,9.1c0,0.1,0.1,0.1,0,0.2
		c0,0.4-0.1,0.3,0,0.4c0,0.1-0.1,0.2-0.2,0.3l0,0h0.1c0.1,0,0,0,0,0c0.1,0,0.1,0,0.2,0C5.8,10,6,9.9,6.2,9.8c0.8-0.7,1.5-1.4,2-2.3
		c0,0-0.1,0-0.1-0.1c0.1-0.2,0.3-0.3,0.4-0.6H8.4c0.1-0.2,0.2-0.3,0.4-0.5C9,6,9,5.8,9.1,5.5c0.2-0.1,0.3-0.2,0.5-0.3l0,0
		c0.1,0,0.1,0.1,0.1,0.2c0.3,0.3,0.5,0.6,0.5,1c0.1,0.6,0.2,1.1,0.2,1.7l0,0c0,0.3,0.1,0.7,0.1,1c0,0.1,0.1,0.4,0.1,0.5l0,0
		c0,0,0,0,0,0.1l0,0c0,0.1,0.1,0.2,0.1,0.3v0.1c0.7-0.4,1.3-0.9,1.8-1.4c0-0.2,0-0.4,0-0.5h-0.1c0-0.1,0.1-0.5,0-0.6h-0.1
		c0-0.1,0.1-0.2,0.1-0.4c0-0.2-0.1-0.5-0.1-0.7c0,0,0,0-0.1,0c0-0.1,0-0.2-0.1-0.4V6c0,0,0,0-0.1,0c0-0.1,0-0.1,0-0.2
		c-0.3-0.7-0.8-1.3-1.4-1.8c-0.2-0.1-0.4-0.1-0.5-0.2C10,3.7,9.8,3.7,9.5,3.7c0.1-0.9,0.2-1.9,0.2-2.8c0-0.3,0-0.6,0-0.9
		C9.5,0,9.2,0,9,0C8.7,0,8.4,0,8.1,0C8,0.5,8,0.9,7.9,1.4C7.9,2.2,7.7,3,7.5,3.8z"/>
	<path id="패스_8627" class="st1" d="M16.1,14.5c-0.1,0-0.1-0.1-0.2-0.1c-0.5-0.3-0.9-0.9-1.1-1.5c0-0.6,0.3-1.1,0.8-1.5l0,0
		c0.2-0.1,0.5-0.3,0.7-0.4c0.1-0.1,0.2-0.1,0.3-0.2c0-0.1-0.1-0.1-0.2-0.1c0.1,0,0.2,0.1,0.3,0c0.3,0,0.2-0.1,0-0.4
		c-0.1-0.1,0.1-0.1-0.1-0.2c0.1,0,0.1,0,0.2,0h0.1c0,0,0,0,0.1-0.1c0,0,0.1,0,0-0.1c0.1,0.1,0.1,0,0.1,0c-0.1-0.1,0.1,0,0.1,0
		c0-0.1,0.1,0,0.1-0.1c-0.1-0.2-0.3-0.3-0.5-0.4c-0.8-0.4-2-0.4-3,0.1c0,0-0.4,0.3-0.5,0.5l0.1,0.1c-0.2,0.1-0.4,0.2-0.5,0.4
		c-0.3,0.3-0.4,0.7-0.5,1.1c0,0.3-0.1,0.5-0.1,0.7v0.1c0,0,0,0.1,0.1,0.1c0,0.1,0,0.2,0,0.4c0.1,0.8,0.5,1.6,1.2,2.1
		c0.5,0.4,1,0.7,1.5,1C15.3,15.5,15.8,15,16.1,14.5z"/>
</g>
</svg>
