<svg width="45" height="44" viewBox="0 0 45 44" fill="none" xmlns="http://www.w3.org/2000/svg">
<circle cx="22.5" cy="22" r="22" fill="#CCCCCC"/>
<path d="M33.7373 19.9384C33.8734 20.7062 33.9412 21.4842 33.94 22.2635C33.94 25.744 32.6709 28.6868 30.4622 30.6788H30.4652C28.5337 32.4276 25.8787 33.44 22.7305 33.44C19.6353 33.44 16.6669 32.2348 14.4783 30.0894C12.2896 27.9441 11.0601 25.0344 11.0601 22.0004C11.0601 18.9664 12.2896 16.0567 14.4783 13.9113C16.6669 11.766 19.6353 10.5608 22.7305 10.5608C25.6277 10.5275 28.4255 11.5944 30.5381 13.5379L27.2062 16.8039C26.0017 15.6785 24.3943 15.0622 22.7305 15.088C19.686 15.088 17.0995 17.1014 16.1776 19.8125C15.6887 21.2332 15.6887 22.7718 16.1776 24.1925H16.1819C17.1083 26.8994 19.6904 28.9128 22.7349 28.9128C24.3075 28.9128 25.6584 28.5181 26.7058 27.8203H26.7014C27.3096 27.4253 27.8299 26.9137 28.2308 26.3162C28.6317 25.7188 28.9049 25.0479 29.0341 24.3441H22.7305V19.9398L33.7373 19.9384Z" fill="white"/>
</svg>
