<svg width="45" height="44" viewBox="0 0 45 44" fill="none" xmlns="http://www.w3.org/2000/svg">
<circle cx="22.5" cy="22" r="22" fill="#CCCCCC"/>
<mask id="mask0_1_834" style="mask-type:luminance" maskUnits="userSpaceOnUse" x="8" y="7" width="29" height="30">
<path d="M36.58 7.93854H8.42004V36.2467H36.58V7.93854Z" fill="white"/>
</mask>
<g mask="url(#mask0_1_834)">
<path fill-rule="evenodd" clip-rule="evenodd" d="M20.0381 15.0951C18.2934 15.0162 16.5432 15.0726 14.793 15.0669C14.8042 19.764 14.7986 24.4611 14.7986 29.1582C16.5432 29.1694 18.2934 29.1638 20.0381 29.1582C20.066 26.8321 20.0045 24.5005 20.066 22.1688C20.6419 22.9742 21.162 23.819 21.7492 24.6131C22.7277 26.145 23.835 27.5868 24.7744 29.1413C26.5358 29.1863 28.2917 29.1413 30.053 29.1694C30.0698 28.9498 30.0921 28.7301 30.0921 28.5105C30.0643 24.0274 30.1145 19.5443 30.0698 15.0613C28.3308 15.05 26.5917 15.0669 24.8526 15.0557C24.8415 17.3986 24.8639 19.7415 24.8359 22.0787C23.2199 19.7696 21.6934 17.3817 20.0381 15.0951Z" fill="white"/>
</g>
</svg>
