<svg width="45" height="44" viewBox="0 0 45 44" fill="none" xmlns="http://www.w3.org/2000/svg">
<circle cx="22.5" cy="22" r="22" fill="#CCCCCC"/>
<mask id="mask0_1_841" style="mask-type:luminance" maskUnits="userSpaceOnUse" x="8" y="7" width="29" height="30">
<path d="M36.7468 7.73572H8.2533V36.08H36.7468V7.73572Z" fill="white"/>
</mask>
<g mask="url(#mask0_1_841)">
<path fill-rule="evenodd" clip-rule="evenodd" d="M22.8154 12.3603C16.8343 12.3603 11.9828 16.1889 11.9828 20.9153C11.9828 23.9534 13.9934 26.6188 17.0094 28.1379L15.9871 31.9495C15.9476 32.0624 15.9815 32.1923 16.0662 32.2771C16.1227 32.3335 16.2017 32.3675 16.2864 32.3675C16.3542 32.3675 16.4163 32.3391 16.4728 32.2939L20.8611 29.3294C21.4993 29.4197 22.1488 29.4705 22.8097 29.4705C28.7907 29.4705 33.6422 25.642 33.6422 20.9153C33.6478 16.1889 28.7963 12.3603 22.8154 12.3603Z" fill="white"/>
<path fill-rule="evenodd" clip-rule="evenodd" d="M15.7768 19.5833H14.5804C14.4144 19.5833 14.277 19.5433 14.1568 19.4692C14.0366 19.395 13.9679 19.2866 13.9393 19.1498C13.9336 19.1155 13.9278 19.0698 13.9221 19.03C13.9221 18.8589 13.9851 18.7219 14.111 18.625C14.237 18.528 14.3915 18.4767 14.5804 18.4767H18.2325C18.3986 18.4767 18.5416 18.5167 18.6562 18.5908C18.7765 18.665 18.8507 18.7676 18.8794 18.9102C18.8852 18.9502 18.8909 18.99 18.8852 19.03C18.8852 19.2068 18.8223 19.3437 18.702 19.4407C18.5818 19.5377 18.4272 19.5833 18.2325 19.5833H17.0419V23.6844C17.0419 23.8784 16.9847 24.038 16.8702 24.1578C16.7557 24.2776 16.6011 24.3347 16.4065 24.3347C16.2462 24.3347 16.1146 24.2891 16.0001 24.2034C15.8856 24.1121 15.8169 23.9982 15.7883 23.844C15.7768 23.7871 15.7768 23.7357 15.7768 23.6788V19.5833Z" fill="#CCCCCC"/>
<path fill-rule="evenodd" clip-rule="evenodd" d="M19.2283 18.8683C19.2792 18.7285 19.3527 18.6278 19.4546 18.5662C19.5565 18.5047 19.6809 18.4767 19.8395 18.4767H20.1394C20.3035 18.4767 20.4392 18.5103 20.5468 18.5719C20.6543 18.6333 20.7447 18.7621 20.8071 18.9466L22.3178 23.271C22.3689 23.4053 22.4027 23.5172 22.4197 23.6177C22.4311 23.6794 22.4424 23.7296 22.4424 23.7689C22.4424 23.9255 22.3802 24.0598 22.267 24.1661C22.1537 24.278 22.0123 24.3283 21.8539 24.3283C21.5652 24.3283 21.3786 24.2109 21.2937 23.9758L20.9712 23.0359H18.9567L18.6341 23.9758C18.5549 24.2109 18.3681 24.3283 18.074 24.3283C17.9269 24.3283 17.8023 24.2947 17.7062 24.2164C17.6043 24.1436 17.542 24.0317 17.5138 23.8975C17.5024 23.8584 17.5024 23.8136 17.5024 23.7689C17.5024 23.7073 17.5081 23.6291 17.5364 23.5396C17.559 23.4499 17.5873 23.3604 17.6213 23.2766L19.2283 18.8683ZM19.9809 19.8696H19.9639L19.2283 22.1409H20.6882L19.9809 19.8696Z" fill="#CCCCCC"/>
<path fill-rule="evenodd" clip-rule="evenodd" d="M22.5802 19.1103C22.5802 18.9212 22.6357 18.7656 22.7464 18.649C22.8573 18.5323 23.0069 18.4767 23.1953 18.4767C23.3504 18.4767 23.4834 18.5211 23.5887 18.6045C23.694 18.6879 23.7661 18.8046 23.7937 18.9491C23.8049 19.0046 23.8104 19.0548 23.8048 19.1103V23.1119H25.8494C26.0157 23.1119 26.1541 23.1451 26.265 23.223C26.3758 23.2952 26.4479 23.4008 26.47 23.5342C26.4811 23.5675 26.4867 23.6121 26.4867 23.6509C26.4867 23.8232 26.4257 23.9565 26.3038 24.0454C26.1819 24.14 26.0323 24.1845 25.8494 24.1845H23.2951C23.1067 24.1845 22.9515 24.1455 22.8352 24.0677C22.7188 23.9899 22.6412 23.8676 22.6025 23.6898C22.5857 23.6176 22.5802 23.5342 22.5747 23.4398L22.5802 19.1103Z" fill="#CCCCCC"/>
<path fill-rule="evenodd" clip-rule="evenodd" d="M26.6024 19.1144C26.6024 18.9242 26.6596 18.7676 26.7737 18.6502C26.8879 18.5326 27.0421 18.4767 27.2361 18.4767C27.3961 18.4767 27.5273 18.5214 27.6415 18.6053C27.7557 18.6893 27.8242 18.8067 27.8527 18.9523C27.8642 19.0081 27.8699 19.0585 27.8642 19.1144L27.8699 20.9884L29.8511 18.7564C29.9424 18.6612 30.0166 18.5942 30.0909 18.5438C30.165 18.4991 30.2508 18.4767 30.3534 18.4767C30.4905 18.4767 30.6161 18.5159 30.7302 18.5886C30.8445 18.6612 30.913 18.7621 30.9415 18.8907C30.9415 18.8962 30.9473 18.913 30.953 18.9409C30.953 18.9578 30.953 18.9802 30.9586 18.9914C30.9586 19.0809 30.9358 19.1592 30.9016 19.2263C30.8617 19.2991 30.8102 19.3661 30.7531 19.4334L29.4571 20.8206L30.9873 23.1982L31.0329 23.271C31.1357 23.4332 31.1985 23.5508 31.2155 23.6291C31.2155 23.6346 31.2213 23.6515 31.227 23.6682C31.227 23.6905 31.227 23.7017 31.227 23.7073C31.227 23.9255 31.1642 24.0877 31.0386 24.1828C30.913 24.278 30.7589 24.3283 30.5818 24.3283C30.4505 24.3283 30.3477 24.3059 30.2678 24.2612C30.188 24.2109 30.1022 24.1269 30.0224 23.9926L28.5664 21.699L27.8757 22.4039L27.8813 23.685C27.8813 23.8752 27.8242 24.0317 27.7101 24.1493C27.5958 24.2667 27.4417 24.3228 27.2476 24.3228C27.0877 24.3228 26.9508 24.278 26.8421 24.194C26.7337 24.1045 26.6596 23.9926 26.6309 23.8415C26.6196 23.7856 26.6196 23.7353 26.6196 23.6794L26.6024 19.1144Z" fill="#CCCCCC"/>
</g>
</svg>
