<svg width="45" height="44" viewBox="0 0 45 44" fill="none" xmlns="http://www.w3.org/2000/svg">
<circle cx="22.5" cy="22" r="22" fill="#CCCCCC"/>
<path d="M27.6694 7.05319C27.6141 6.99049 25.624 7.07794 23.8921 8.98698C22.1603 10.8944 22.4267 13.0823 22.4657 13.1384C22.5047 13.1945 24.9352 13.2819 26.4867 11.0627C28.0382 8.84343 27.7246 7.11754 27.6694 7.05319ZM33.0534 26.4125C32.9754 26.2541 29.2761 24.3764 29.6206 20.7663C29.965 17.1544 32.3418 16.1644 32.3792 16.0572C32.4165 15.9499 31.4093 14.7537 30.3419 14.1482C29.5582 13.7212 28.6908 13.4766 27.8026 13.4321C27.6271 13.4271 27.0179 13.2753 25.7653 13.6235C24.94 13.8528 23.0798 14.5953 22.5681 14.625C22.0547 14.6547 20.5276 13.7637 18.8851 13.5278C17.8339 13.3215 16.7195 13.7439 15.9218 14.069C15.1257 14.3924 13.6116 15.313 12.5523 17.76C11.4931 20.2053 12.047 24.0795 12.4435 25.2839C12.8399 26.4868 13.4588 28.4585 14.5116 29.8973C15.4474 31.5209 16.6886 32.6479 17.2068 33.0307C17.7251 33.4135 19.1872 33.6676 20.201 33.1412C21.0166 32.633 22.4885 32.341 23.0701 32.3624C23.6501 32.3839 24.7938 32.6165 25.9652 33.2518C26.8928 33.5768 27.7701 33.4415 28.649 33.0785C29.528 32.7139 30.8 31.3312 32.2849 28.5278C32.8487 27.2243 33.1054 26.5198 33.0534 26.4125Z" fill="white"/>
</svg>
