<svg width="44" height="45" viewBox="0 0 44 45" fill="none" xmlns="http://www.w3.org/2000/svg">
<ellipse cx="22" cy="22.1229" rx="22" ry="22.1229" fill="#9B9B9B"/>
<path d="M15.8022 20.843C15.6525 20.8433 15.5064 20.8898 15.3821 20.9767C15.2579 21.0635 15.1611 21.1867 15.104 21.3308C15.047 21.4749 15.0322 21.6334 15.0616 21.7862C15.091 21.9391 15.1632 22.0794 15.2691 22.1895C15.375 22.2996 15.5099 22.3745 15.6566 22.4048C15.8034 22.4351 15.9555 22.4194 16.0937 22.3597C16.2319 22.2999 16.35 22.1989 16.4331 22.0693C16.5162 21.9397 16.5606 21.7873 16.5606 21.6314C16.5606 21.5278 16.541 21.4251 16.5028 21.3293C16.4647 21.2336 16.4088 21.1466 16.3384 21.0734C16.2679 21.0001 16.1843 20.9421 16.0923 20.9026C16.0003 20.863 15.9017 20.8428 15.8022 20.843Z" fill="white"/>
<path d="M23.2847 20.761C23.1233 20.761 22.9655 20.8108 22.8314 20.9042C22.6972 20.9976 22.5926 21.1304 22.5309 21.2857C22.4691 21.441 22.4529 21.6119 22.4844 21.7767C22.5159 21.9416 22.5936 22.093 22.7077 22.2119C22.8218 22.3308 22.9672 22.4117 23.1255 22.4445C23.2837 22.4773 23.4478 22.4605 23.5969 22.3961C23.746 22.3318 23.8734 22.2229 23.9631 22.0831C24.0527 21.9433 24.1006 21.779 24.1006 21.6109C24.1006 21.3855 24.0146 21.1693 23.8616 21.0099C23.7086 20.8505 23.501 20.761 23.2847 20.761Z" fill="white"/>
<path d="M30.0565 13H13.9435C13.557 12.9998 13.1743 13.0789 12.8172 13.2328C12.4601 13.3867 12.1356 13.6124 11.8622 13.897C11.5889 14.1816 11.372 14.5195 11.2241 14.8915C11.0761 15.2634 11 15.662 11 16.0646V26.0274C11 26.8406 11.3101 27.6205 11.8621 28.1956C12.4141 28.7706 13.1628 29.0936 13.9435 29.0936H19.6346L21.5695 31.7192C21.5695 31.7192 21.7032 32.1304 22.0264 32.1304C22.3497 32.1304 22.4818 31.7192 22.4818 31.7192L24.4182 29.0936H30.0565C30.8372 29.0936 31.5859 28.7706 32.1379 28.1956C32.6899 27.6205 33 26.8406 33 26.0274V16.0646C33 15.662 32.9238 15.2634 32.7759 14.8915C32.628 14.5195 32.4111 14.1816 32.1378 13.897C31.8644 13.6124 31.5399 13.3867 31.1828 13.2328C30.8257 13.0789 30.443 12.9998 30.0565 13ZM17.9111 21.8053C17.9018 23.6266 16.0944 23.68 16.0944 23.68C15.891 23.6796 15.6898 23.6363 15.5028 23.5529C15.3159 23.4694 15.147 23.3475 15.0065 23.1943V23.5181H13.6902V17.8697C13.7725 17.8826 15.0065 17.8697 15.0065 17.8697V20.0326C15.3173 19.4821 16.2125 19.4918 16.2125 19.4918C18.1551 19.678 17.9111 21.8053 17.9111 21.8053ZM20.2345 19.6618V23.5343H18.9446V19.7007C18.9446 19.1794 18.323 19.0353 18.323 19.0353V17.6819C20.3775 17.7693 20.2345 19.6618 20.2345 19.6618ZM23.2884 23.6816C22.0948 23.6816 21.1281 22.754 21.1281 21.611C21.1281 20.4681 22.0948 19.5388 23.2884 19.5388C24.4819 19.5388 25.4486 20.4664 25.4486 21.611C25.4486 22.7556 24.4773 23.6816 23.2837 23.6816H23.2884ZM30.3471 23.6816C30.3471 23.6816 30.3658 25.6486 28.4465 25.6486H27.8637V24.3745H28.2149C28.2149 24.3745 29.0215 24.4522 29.0121 23.1571C29.0121 23.1571 28.8567 23.6816 27.7238 23.6816C27.7238 23.6816 26.1199 23.5618 26.1199 21.9316V21.3131C26.1199 21.3131 26.1572 19.623 27.9181 19.4886C28.1317 19.4733 28.3458 19.5129 28.5414 19.6037C28.737 19.6946 28.9082 19.8341 29.0401 20.0099V19.5938H30.3363L30.3471 23.6816Z" fill="white"/>
<path d="M28.2934 20.7805C28.1357 20.7805 27.9815 20.8292 27.8504 20.9205C27.7193 21.0117 27.6171 21.1414 27.5568 21.2932C27.4964 21.445 27.4807 21.6119 27.5114 21.773C27.5422 21.9341 27.6181 22.0821 27.7296 22.1983C27.8411 22.3144 27.9832 22.3935 28.1378 22.4256C28.2925 22.4576 28.4528 22.4412 28.5985 22.3783C28.7441 22.3154 28.8686 22.209 28.9563 22.0724C29.0439 21.9358 29.0906 21.7753 29.0906 21.611C29.0906 21.3908 29.0066 21.1795 28.8571 21.0238C28.7076 20.868 28.5048 20.7805 28.2934 20.7805Z" fill="white"/>
</svg>
