<svg width="44" height="45" viewBox="0 0 44 45" fill="none" xmlns="http://www.w3.org/2000/svg">
<ellipse cx="22" cy="22.1229" rx="22" ry="22.1229" fill="#9B9B9B"/>
<path d="M25.9363 12H17.0637C13.7197 12 11 14.7197 11 18.0637V26.9363C11 30.2803 13.7197 33 17.0637 33H25.9363C29.2803 33 32 30.2803 32 26.9363V18.0488C32 14.7049 29.2803 12 25.9363 12ZM30.0679 27.0849C30.0679 29.2994 28.2696 31.1125 26.0403 31.1125H16.9597C14.7452 31.1125 12.9321 29.3142 12.9321 27.0849V18.0042C12.9321 15.7898 14.7304 13.9766 16.9597 13.9766H26.0403C28.2548 13.9766 30.0679 15.7749 30.0679 18.0042V27.0849Z" fill="white"/>
<path d="M21.5078 17.0974C18.5057 17.0974 16.0684 19.5348 16.0684 22.5369C16.0684 25.539 18.5057 27.9764 21.5078 27.9764C24.51 27.9764 26.9473 25.539 26.9473 22.5369C26.9473 19.5348 24.51 17.0974 21.5078 17.0974ZM21.5078 26.0741C19.5609 26.0741 17.9707 24.4987 17.9707 22.5369C17.9707 20.59 19.5461 19.0146 21.5078 19.0146C23.4548 19.0146 25.045 20.59 25.045 22.5518C25.0301 24.4987 23.4548 26.0741 21.5078 26.0741Z" fill="white"/>
<path d="M27.1265 18.1528C27.8242 18.1528 28.3898 17.5872 28.3898 16.8895C28.3898 16.1918 27.8242 15.6262 27.1265 15.6262C26.4289 15.6262 25.8633 16.1918 25.8633 16.8895C25.8633 17.5872 26.4289 18.1528 27.1265 18.1528Z" fill="white"/>
</svg>
