<svg width="44" height="45" viewBox="0 0 44 45" fill="none" xmlns="http://www.w3.org/2000/svg">
<ellipse cx="22" cy="22.1229" rx="22" ry="22.1229" fill="#9B9B9B"/>
<path d="M22.4991 12C16.1472 12 11 16.0706 11 21.092C11 24.3606 13.1819 27.2247 16.4558 28.8274C16.2175 29.7259 15.5847 32.0817 15.4584 32.5852C15.3029 33.2108 15.6878 33.2024 15.9398 33.0338C16.1377 32.9022 19.0917 30.8943 20.3661 30.0274C21.0729 30.1321 21.7864 30.1847 22.5009 30.1847C28.8528 30.1847 34 26.1129 34 21.092C34 16.0712 28.851 12 22.5009 12" fill="white"/>
<path d="M17.8689 18.4146H14.5056C14.3539 18.4146 14.2084 18.4748 14.1011 18.5821C13.9939 18.6893 13.9336 18.8348 13.9336 18.9865C13.9336 19.1382 13.9939 19.2837 14.1011 19.391C14.2084 19.4982 14.3539 19.5585 14.5056 19.5585H15.5989V23.5874C15.5995 23.7352 15.6585 23.8769 15.7631 23.9814C15.8676 24.086 16.0093 24.145 16.1572 24.1456H16.2793C16.4271 24.145 16.5686 24.0859 16.6729 23.9814C16.7773 23.8768 16.8361 23.7351 16.8364 23.5874V19.5585H17.8689C18.0206 19.5585 18.1661 19.4982 18.2734 19.391C18.3806 19.2837 18.4409 19.1382 18.4409 18.9865C18.4409 18.8348 18.3806 18.6893 18.2734 18.5821C18.1661 18.4748 18.0206 18.4146 17.8689 18.4146Z" fill="#939393"/>
<path d="M25.9538 23.0694H24.3898V18.9548C24.3924 18.8717 24.3782 18.7889 24.3482 18.7113C24.3182 18.6338 24.2729 18.5631 24.215 18.5034C24.1571 18.4437 24.0879 18.3962 24.0113 18.3638C23.9347 18.3314 23.8524 18.3147 23.7693 18.3147C23.6861 18.3147 23.6038 18.3314 23.5273 18.3638C23.4507 18.3962 23.3814 18.4437 23.3235 18.5034C23.2657 18.5631 23.2204 18.6338 23.1903 18.7113C23.1603 18.7889 23.1462 18.8717 23.1487 18.9548V23.39C23.1494 23.4233 23.1527 23.4566 23.1589 23.4895C23.1522 23.522 23.1488 23.5551 23.1487 23.5884C23.1487 23.6566 23.162 23.7242 23.1881 23.7873C23.2142 23.8503 23.2525 23.9077 23.3007 23.9559C23.349 24.0042 23.4063 24.0424 23.4694 24.0685C23.5324 24.0946 23.6 24.108 23.6683 24.1079H25.9538C26.0885 24.1033 26.2161 24.0466 26.3098 23.9498C26.4034 23.8529 26.4558 23.7234 26.4558 23.5887C26.4558 23.4539 26.4034 23.3244 26.3098 23.2276C26.2161 23.1307 26.0885 23.074 25.9538 23.0694Z" fill="#939393"/>
<path d="M30.9518 23.2583L29.209 20.9692L30.7838 19.3939C30.8346 19.343 30.875 19.2826 30.9025 19.2162C30.93 19.1497 30.9442 19.0785 30.9442 19.0066C30.9442 18.9347 30.93 18.8635 30.9025 18.797C30.875 18.7306 30.8346 18.6702 30.7838 18.6193C30.7329 18.5685 30.6725 18.5281 30.6061 18.5006C30.5396 18.4731 30.4684 18.4589 30.3965 18.4589C30.3246 18.4589 30.2533 18.4731 30.1869 18.5006C30.1204 18.5281 30.0601 18.5685 30.0092 18.6193L28.0597 20.5688V18.9548C28.0623 18.8717 28.0482 18.7889 28.0181 18.7113C27.9881 18.6338 27.9428 18.5631 27.8849 18.5034C27.8271 18.4437 27.7578 18.3962 27.6812 18.3638C27.6046 18.3314 27.5223 18.3147 27.4392 18.3147C27.356 18.3147 27.2737 18.3314 27.1972 18.3638C27.1206 18.3962 27.0513 18.4437 26.9934 18.5034C26.9356 18.5631 26.8903 18.6338 26.8603 18.7113C26.8302 18.7889 26.8161 18.8717 26.8187 18.9548V23.5264C26.8237 23.6876 26.8912 23.8406 27.007 23.9529C27.1229 24.0652 27.2779 24.128 27.4392 24.128C27.6005 24.128 27.7555 24.0652 27.8713 23.9529C27.9872 23.8406 28.0547 23.6876 28.0597 23.5264V22.1155L28.4142 21.7616L30.0628 23.925C30.1512 24.0429 30.2829 24.1208 30.4287 24.1416C30.5746 24.1625 30.7228 24.1245 30.8407 24.0361C30.9585 23.9477 31.0365 23.8161 31.0573 23.6702C31.0782 23.5243 31.0402 23.3762 30.9518 23.2583Z" fill="#939393"/>
<path d="M22.6855 23.4067L21.0089 18.819L21.0036 18.8143C20.8963 18.5348 20.5865 18.3311 20.2183 18.3311C19.809 18.3311 19.4706 18.5813 19.4032 18.9084C19.3913 18.933 19.3807 18.9583 19.3717 18.9841L17.726 23.4067C17.6955 23.4768 17.6797 23.5525 17.6797 23.6289C17.6797 23.7054 17.6954 23.781 17.726 23.8511C17.7566 23.9212 17.8012 23.9842 17.8573 24.0363C17.9133 24.0883 17.9794 24.1282 18.0516 24.1535C18.1237 24.1788 18.2003 24.189 18.2766 24.1833C18.3528 24.1777 18.4271 24.1564 18.4947 24.1208C18.5624 24.0851 18.6219 24.0359 18.6697 23.9762C18.7174 23.9165 18.7524 23.8476 18.7723 23.7738L19.0571 22.9599H21.3515L21.6363 23.7738C21.6605 23.8427 21.6981 23.9061 21.7468 23.9605C21.7956 24.0149 21.8545 24.0591 21.9204 24.0907C21.9862 24.1223 22.0576 24.1406 22.1305 24.1446C22.2035 24.1486 22.2764 24.1382 22.3453 24.114C22.4142 24.0898 22.4777 24.0522 22.5321 24.0035C22.5864 23.9547 22.6307 23.8958 22.6623 23.8299C22.6939 23.7641 22.7122 23.6927 22.7162 23.6198C22.7202 23.5468 22.7098 23.4739 22.6855 23.405V23.4067ZM19.4211 21.9226L20.1921 19.7223C20.201 19.7223 20.2082 19.7223 20.2171 19.7223L20.9869 21.9196L19.4211 21.9226Z" fill="#939393"/>
</svg>
