<svg width="120" height="35" viewBox="0 0 120 35" fill="none" xmlns="http://www.w3.org/2000/svg">
<path d="M40.7516 20.6738L42.4131 25.3812H41.6025L41.1259 23.9971H39.3016L38.8253 25.3812H38.0156L39.6695 20.6738H40.7516ZM39.5263 23.3414H40.9009L40.22 21.3628L39.5263 23.3414Z" fill="#FBFBFB"/>
<path d="M43.595 23.6787V25.3808H42.8262V21.9969H43.5687V22.4494C43.6593 22.2917 43.791 22.1636 43.9632 22.0644C44.1361 21.9656 44.3226 21.916 44.5227 21.916C44.9254 21.916 45.2495 22.0523 45.4926 22.3244C45.7354 22.5969 45.857 22.9607 45.857 23.4155V25.3808H45.0803V23.6114C45.0803 23.2511 45.0215 22.9842 44.9032 22.8105C44.7848 22.6375 44.604 22.5508 44.3585 22.5508C44.2317 22.5508 44.1078 22.5926 43.9877 22.6757C43.8661 22.7589 43.7747 22.8734 43.7116 23.0166C43.6341 23.1836 43.595 23.4045 43.595 23.6787Z" fill="#FBFBFB"/>
<path d="M47.6672 20.9097V21.9969H48.4092V22.6184H47.6672V24.3408C47.6672 24.5028 47.7073 24.6141 47.7859 24.6753C47.8657 24.7356 47.9784 24.7663 48.1237 24.7663H48.4092V25.3805H47.9399C47.572 25.3805 47.3046 25.2997 47.136 25.137C46.9683 24.975 46.8853 24.7344 46.8853 24.415V22.6181H46.2988V21.9969H46.8853V20.9097H47.6672V20.9097Z" fill="#FBFBFB"/>
<path d="M49.9529 21.0445C49.9529 21.1755 49.9041 21.2889 49.8056 21.386C49.7092 21.4828 49.5917 21.5312 49.4555 21.5312C49.32 21.5312 49.2031 21.4828 49.1058 21.386C49.0073 21.2889 48.96 21.1755 48.96 21.0445C48.96 20.9097 49.0073 20.7944 49.1058 20.697C49.2031 20.6005 49.32 20.5518 49.4555 20.5518C49.5917 20.5518 49.7095 20.6005 49.8056 20.697C49.9044 20.7944 49.9529 20.9097 49.9529 21.0445ZM49.0745 25.3809V21.997H49.8503V25.3809H49.0745Z" fill="#FBFBFB"/>
<path d="M50.8652 22.6519H53.6973V23.3409H50.8652V22.6519Z" fill="#FBFBFB"/>
<path d="M60.7923 25.4616C60.2929 25.4616 59.8683 25.2918 59.5162 24.9518C59.1641 24.6117 58.9873 24.192 58.9873 23.6917C58.9873 23.1923 59.1638 22.7711 59.5162 22.4294C59.8683 22.087 60.2929 21.916 60.7923 21.916C61.296 21.916 61.7233 22.0873 62.0722 22.4294C62.4228 22.7714 62.5972 23.1926 62.5972 23.6917C62.5972 24.192 62.4228 24.6117 62.0722 24.9518C61.7233 25.2918 61.296 25.4616 60.7923 25.4616ZM60.7923 24.8268C61.0731 24.8268 61.3156 24.7202 61.5175 24.5065C61.7195 24.2923 61.8209 24.0213 61.8209 23.692C61.8209 23.3682 61.7195 23.0972 61.5175 22.8784C61.3153 22.6598 61.0731 22.5508 60.7923 22.5508C60.5153 22.5508 60.2765 22.6598 60.0743 22.8784C59.8724 23.0972 59.7719 23.3679 59.7719 23.692C59.7719 24.0213 59.8724 24.292 60.0743 24.5065C60.2765 24.7202 60.5153 24.8268 60.7923 24.8268Z" fill="#FBFBFB"/>
<path d="M63.2627 25.3807V21.9968H63.9918V22.5032C64.1045 22.3368 64.2428 22.2081 64.4067 22.1185C64.6025 22.0014 64.8313 21.9429 65.0954 21.9429H65.1489V22.6316H65.0677C64.7448 22.6316 64.4891 22.729 64.2977 22.9223C64.1212 23.1113 64.0327 23.4061 64.0327 23.8073V25.3809H63.2627V25.3807Z" fill="#FBFBFB"/>
<path d="M65.6934 25.3807V21.9968H66.4215V22.5032C66.5358 22.3368 66.674 22.2081 66.8373 22.1185C67.032 22.0014 67.2616 21.9429 67.5249 21.9429H67.5796V22.6316H67.4983C67.1754 22.6316 66.9189 22.729 66.7287 22.9223C66.551 23.1113 66.463 23.4061 66.463 23.8073V25.3809H65.6934V25.3807Z" fill="#FBFBFB"/>
<path d="M70.3769 23.6991V21.9971H71.1527V25.3809H70.4107V24.9348C70.3152 25.1018 70.1881 25.2279 70.0294 25.314C69.8433 25.4125 69.651 25.4621 69.4511 25.4621C69.0508 25.4621 68.7297 25.327 68.4871 25.0574C68.2443 24.7867 68.123 24.4224 68.123 23.9635V21.9971H68.8927V23.7736C68.8927 24.1296 68.9532 24.3942 69.073 24.567C69.1931 24.7406 69.376 24.8267 69.6209 24.8267C69.7442 24.8267 69.8658 24.7853 69.9885 24.7018C70.1115 24.6186 70.205 24.507 70.2679 24.3676C70.34 24.2012 70.3769 23.9786 70.3769 23.6991Z" fill="#FBFBFB"/>
<path d="M73.867 25.4616C73.4489 25.4616 73.0991 25.3019 72.818 24.9825V26.6909H72.0498V21.9969H72.7914V22.4294C73.0869 22.087 73.4454 21.916 73.867 21.916C74.3618 21.916 74.765 22.0925 75.0756 22.4462C75.3871 22.7998 75.5429 23.2149 75.5429 23.692C75.5429 24.17 75.3871 24.5836 75.0756 24.9347C74.765 25.2863 74.3618 25.4616 73.867 25.4616ZM72.8256 23.9085C72.8528 24.1607 72.9483 24.3723 73.1117 24.5433C73.2929 24.7323 73.5202 24.8268 73.792 24.8268C74.0874 24.8268 74.322 24.7202 74.4973 24.5065C74.6718 24.2923 74.7589 24.0213 74.7589 23.692C74.7589 23.3682 74.6721 23.0972 74.4973 22.8784C74.322 22.6598 74.0874 22.5508 73.792 22.5508C73.5202 22.5508 73.2929 22.6456 73.1117 22.8343C72.9483 23.0062 72.8528 23.2192 72.8256 23.4761C72.8119 23.6158 72.8119 23.7601 72.8256 23.9085Z" fill="#FBFBFB"/>
<path d="M77.189 20.9097V21.9969H77.9315V22.6184H77.189V24.3408C77.189 24.5028 77.2293 24.6141 77.3082 24.6753C77.3874 24.7356 77.5002 24.7663 77.6454 24.7663H77.9315V25.3805H77.4616C77.094 25.3805 76.8258 25.2997 76.6581 25.137C76.4903 24.975 76.4062 24.7344 76.4062 24.415V22.6181H75.8203V21.9969H76.4062V20.9097H77.189V20.9097Z" fill="#FBFBFB"/>
<path d="M79.4759 21.0445C79.4759 21.1755 79.4271 21.2889 79.3298 21.386C79.2322 21.4828 79.1156 21.5312 78.9786 21.5312C78.843 21.5312 78.7255 21.4828 78.6288 21.386C78.5312 21.2889 78.4824 21.1755 78.4824 21.0445C78.4824 20.9097 78.5312 20.7944 78.6288 20.697C78.7255 20.6005 78.843 20.5518 78.9786 20.5518C79.1156 20.5518 79.2319 20.6005 79.3298 20.697C79.4274 20.7944 79.4759 20.9097 79.4759 21.0445ZM78.5984 25.3809V21.997H79.3742V25.3809H78.5984Z" fill="#FBFBFB"/>
<path d="M81.8848 25.4616C81.3857 25.4616 80.9599 25.2918 80.6075 24.9518C80.256 24.6117 80.0801 24.192 80.0801 23.6917C80.0801 23.1923 80.256 22.7711 80.6075 22.4294C80.9599 22.087 81.3857 21.916 81.8848 21.916C82.3885 21.916 82.8151 22.0873 83.1643 22.4294C83.5147 22.7714 83.6894 23.1926 83.6894 23.6917C83.6894 24.192 83.5147 24.6117 83.1643 24.9518C82.8151 25.2918 82.3885 25.4616 81.8848 25.4616ZM81.8848 24.8268C82.1659 24.8268 82.4081 24.7202 82.6103 24.5065C82.8119 24.2923 82.9133 24.0213 82.9133 23.692C82.9133 23.3682 82.8119 23.0972 82.6103 22.8784C82.4081 22.6598 82.1659 22.5508 81.8848 22.5508C81.6077 22.5508 81.3684 22.6598 81.1665 22.8784C80.9649 23.0972 80.8632 23.3679 80.8632 23.692C80.8632 24.0213 80.9649 24.292 81.1665 24.5065C81.3687 24.7202 81.6077 24.8268 81.8848 24.8268Z" fill="#FBFBFB"/>
<path d="M85.1242 23.6787V25.3808H84.3545V21.9969H85.0964V22.4494C85.1876 22.2917 85.3185 22.1636 85.4918 22.0644C85.6639 21.9656 85.8509 21.916 86.0505 21.916C86.4543 21.916 86.7778 22.0523 87.0203 22.3244C87.2631 22.5969 87.3844 22.9607 87.3844 23.4155V25.3808H86.6086V23.6114C86.6086 23.2511 86.5493 22.9842 86.4309 22.8105C86.3129 22.6375 86.1317 22.5508 85.8868 22.5508C85.7594 22.5508 85.6355 22.5926 85.5154 22.6757C85.395 22.7589 85.303 22.8734 85.2399 23.0166C85.1627 23.1836 85.1242 23.4045 85.1242 23.6787Z" fill="#FBFBFB"/>
<path d="M93.2721 24.6854C93.14 24.9065 92.9536 25.0883 92.7131 25.2326C92.4501 25.3857 92.1413 25.4622 91.7874 25.4622C91.3333 25.4622 90.9631 25.3352 90.6773 25.081C90.3918 24.8265 90.248 24.5033 90.248 24.1117C90.248 23.8775 90.3319 23.6352 90.4996 23.3853C90.6674 23.1357 90.9111 22.9163 91.229 22.727C91.0332 22.5517 90.8836 22.3853 90.7787 22.227C90.675 22.0696 90.6227 21.9076 90.6227 21.7406C90.6227 21.4209 90.7308 21.1499 90.9461 20.9267C91.1615 20.7041 91.4803 20.5928 91.9025 20.5928C92.302 20.5928 92.6044 20.7064 92.8119 20.9334C93.0185 21.1609 93.1219 21.4192 93.1219 21.707C93.1219 21.9276 93.0305 22.1372 92.8487 22.3354C92.7032 22.4931 92.5065 22.6525 92.2564 22.8143L93.0603 23.5845L93.5702 22.6595L94.1838 23.0308L93.5985 24.0978L94.4699 24.9288L94.0003 25.3813L93.2721 24.6854ZM91.6848 23.1656C91.4674 23.3053 91.3105 23.4424 91.2156 23.5781C91.0835 23.7488 91.0183 23.9198 91.0183 24.0914C91.0183 24.3164 91.087 24.4952 91.2258 24.628C91.3637 24.7613 91.5487 24.8274 91.7807 24.8274C92.0118 24.8274 92.2023 24.7688 92.3528 24.6523C92.4834 24.5396 92.6111 24.3798 92.7339 24.1726L91.6848 23.1656ZM91.8143 22.3821C91.9592 22.2966 92.0928 22.1963 92.2123 22.0812C92.3335 21.967 92.3934 21.8511 92.3934 21.734C92.3934 21.5902 92.3499 21.4661 92.2646 21.3627C92.1781 21.2592 92.0504 21.207 91.8827 21.207C91.7009 21.207 91.5668 21.258 91.4809 21.3592C91.3953 21.4606 91.3523 21.5763 91.3523 21.7067C91.3523 21.8374 91.3961 21.9534 91.4844 22.0546C91.5729 22.1557 91.6825 22.2653 91.8143 22.3821Z" fill="#FBFBFB"/>
<path d="M40.8208 33.0741C41.3152 33.0741 41.7666 32.9167 42.1754 32.6013L42.5021 33.1758C42.0802 33.5492 41.5197 33.7361 40.8211 33.7361C40.135 33.7361 39.5552 33.5034 39.0815 33.0373C38.6067 32.5714 38.3691 31.9932 38.3691 31.3047C38.3691 30.6114 38.607 30.0317 39.0815 29.5653C39.5552 29.0995 40.1347 28.8667 40.8211 28.8667C41.5104 28.8667 42.0624 29.0554 42.475 29.434L42.155 30.0079C41.7509 29.6882 41.3058 29.5285 40.8211 29.5285C40.3664 29.5285 39.9783 29.6948 39.6563 30.0285C39.3296 30.3751 39.1654 30.8007 39.1654 31.3047C39.1654 31.8091 39.3296 32.2323 39.6563 32.5743C39.978 32.9077 40.3661 33.0741 40.8208 33.0741Z" fill="#FBFBFB"/>
<path d="M44.0325 29.3189C44.0325 29.4497 43.9834 29.5639 43.8864 29.6604C43.7888 29.7572 43.6707 29.8056 43.536 29.8056C43.399 29.8056 43.2821 29.7572 43.1848 29.6604C43.0872 29.5639 43.0381 29.4497 43.0381 29.3189C43.0381 29.1842 43.0872 29.0682 43.1848 28.9711C43.2821 28.8749 43.399 28.8262 43.536 28.8262C43.6707 28.8262 43.7885 28.8749 43.8864 28.9711C43.9834 29.0682 44.0325 29.1842 44.0325 29.3189ZM43.1538 33.6559V30.2717H43.9305V33.6559H43.1538Z" fill="#FBFBFB"/>
<path d="M46.1282 33.0138L47.0402 30.272H47.8441L46.6592 33.6561H45.597L44.4121 30.272H45.2154L46.1282 33.0138Z" fill="#FBFBFB"/>
<path d="M49.1904 29.3189C49.1904 29.4497 49.1419 29.5639 49.0446 29.6604C48.9461 29.7572 48.8301 29.8056 48.6939 29.8056C48.5566 29.8056 48.44 29.7572 48.3424 29.6604C48.2451 29.5639 48.1963 29.4497 48.1963 29.3189C48.1963 29.1842 48.2454 29.0682 48.3424 28.9711C48.44 28.8749 48.5566 28.8262 48.6939 28.8262C48.8301 28.8262 48.9461 28.8749 49.0446 28.9711C49.1419 29.0682 49.1904 29.1842 49.1904 29.3189ZM48.3129 33.6559V30.2717H49.0881V33.6559H48.3129Z" fill="#FBFBFB"/>
<path d="M50.0342 33.6562V28.9482H50.8039V33.6562H50.0342Z" fill="#FBFBFB"/>
<path d="M55.8947 31.7982L57.2631 33.6562H56.324L55.0502 31.8521H54.5733V33.6562H53.7832V28.9482H55.3153C55.8874 28.9482 56.328 29.081 56.6372 29.3465C56.9455 29.612 57.0995 29.9633 57.0995 30.4007C57.0995 30.837 56.9472 31.1886 56.6433 31.4541C56.4438 31.6202 56.1948 31.7353 55.8947 31.7982ZM56.2956 30.4005C56.2956 30.139 56.2065 29.9404 56.028 29.8057C55.8482 29.67 55.5517 29.603 55.1388 29.603H54.573V31.197H55.1388C55.5517 31.197 55.8482 31.1298 56.028 30.9944C56.2065 30.859 56.2956 30.6616 56.2956 30.4005Z" fill="#FBFBFB"/>
<path d="M58.6498 29.3189C58.6498 29.4497 58.601 29.5639 58.5037 29.6604C58.4052 29.7572 58.2898 29.8056 58.1527 29.8056C58.0165 29.8056 57.8997 29.7572 57.8024 29.6604C57.7048 29.5639 57.6562 29.4497 57.6562 29.3189C57.6562 29.1842 57.7045 29.0682 57.8024 28.9711C57.8997 28.8749 58.0165 28.8262 58.1527 28.8262C58.2898 28.8262 58.4052 28.8749 58.5037 28.9711C58.601 29.0682 58.6498 29.1842 58.6498 29.3189ZM57.772 33.6559V30.2717H58.5469V33.6559H57.772Z" fill="#FBFBFB"/>
<path d="M60.8895 35C60.367 35 59.92 34.8718 59.548 34.615L59.7794 34.0008C60.1242 34.253 60.4936 34.3788 60.8895 34.3788C61.2349 34.3788 61.5061 34.282 61.7027 34.0886C61.9002 33.8947 61.999 33.6764 61.999 33.4335V33.2309C61.717 33.5686 61.3608 33.737 60.9304 33.737C60.4307 33.737 60.0266 33.5619 59.7183 33.2106C59.41 32.859 59.2549 32.4448 59.2549 31.9677C59.2549 31.4906 59.41 31.0752 59.7183 30.7216C60.0266 30.3682 60.4307 30.1914 60.9304 30.1914C61.3345 30.1914 61.6811 30.3534 61.9712 30.6772V30.2726H62.7485V33.0819C62.7485 33.726 62.5875 34.2072 62.2643 34.524C61.9429 34.8417 61.4841 35 60.8895 35ZM61.9654 32.1903C61.9788 32.0375 61.9788 31.8886 61.9654 31.7445C61.9382 31.4877 61.8418 31.274 61.6785 31.1027C61.4979 30.9137 61.2726 30.819 61.0052 30.819C60.706 30.819 60.4693 30.9294 60.2966 31.1506C60.1239 31.3712 60.0392 31.643 60.0392 31.9674C60.0392 32.2961 60.1239 32.5686 60.2966 32.7845C60.4693 33.0005 60.7057 33.1089 61.0052 33.1089C61.2726 33.1089 61.4979 33.0141 61.6785 32.8251C61.8421 32.6538 61.9382 32.4422 61.9654 32.1903Z" fill="#FBFBFB"/>
<path d="M64.4078 33.6562H63.6387V28.9482H64.4078V30.6767C64.4978 30.5379 64.6255 30.4219 64.7891 30.3292C64.9524 30.237 65.1345 30.1909 65.3338 30.1909C65.737 30.1909 66.0614 30.3271 66.3042 30.5993C66.547 30.8718 66.6683 31.2353 66.6683 31.6904V33.6562H65.8925V31.886C65.8925 31.5257 65.8326 31.2593 65.7151 31.0857C65.5974 30.9121 65.4156 30.8257 65.1698 30.8257C65.0436 30.8257 64.9191 30.8674 64.7993 30.9506C64.6789 31.0347 64.5866 31.148 64.5238 31.2924C64.4461 31.4587 64.4078 31.6796 64.4078 31.9538V33.6562V33.6562Z" fill="#FBFBFB"/>
<path d="M68.4784 29.1844V30.2719H69.2203V30.8931H68.4784V32.6149C68.4784 32.7781 68.5181 32.8894 68.5976 32.9494C68.6765 33.0106 68.7893 33.0404 68.9348 33.0404H69.2203V33.6558H68.751C68.3834 33.6558 68.1157 33.5744 67.9474 33.4123C67.7788 33.2503 67.6952 33.0094 67.6952 32.6897V30.8928H67.1094V30.2716H67.6952V29.1841H68.4784V29.1844Z" fill="#FBFBFB"/>
<path d="M69.5527 33.0276L70.036 32.5346C70.1725 32.7192 70.3215 32.863 70.4855 32.9665C70.6441 33.0609 70.8142 33.1085 70.9954 33.1085C71.1683 33.1085 71.3142 33.0734 71.4351 33.0036C71.5547 32.9337 71.6154 32.8407 71.6154 32.7233C71.6154 32.6067 71.5579 32.5148 71.4416 32.4499C71.3264 32.3847 71.1891 32.323 71.0301 32.2641C70.8446 32.2061 70.6535 32.1403 70.458 32.0685C70.1938 31.9737 70.0016 31.8519 69.8797 31.7032C69.7573 31.5542 69.695 31.3858 69.695 31.1968C69.695 30.9177 69.8262 30.68 70.0904 30.4844C70.3537 30.2881 70.6646 30.1904 71.0228 30.1904C71.4042 30.1904 71.7157 30.2809 71.9561 30.4606C72.0783 30.5551 72.1756 30.6722 72.2486 30.8119L71.7715 31.2713C71.7081 31.1632 71.633 31.0751 71.5473 31.0076C71.3966 30.8774 71.2093 30.8119 70.9825 30.8119C70.8504 30.8119 70.7362 30.8447 70.6386 30.9102C70.5401 30.9754 70.4925 31.0525 70.4925 31.1429C70.4925 31.2423 70.5465 31.3252 70.6552 31.3925C70.7642 31.4606 70.9255 31.5253 71.1388 31.589C71.216 31.6111 71.3039 31.6386 71.4042 31.6696C71.7355 31.7774 71.9868 31.9171 72.1569 32.0882C72.327 32.2601 72.4123 32.4644 72.4123 32.703C72.4123 32.9821 72.2761 33.2239 72.0038 33.4291C71.7314 33.6334 71.3843 33.7363 70.9621 33.7363C70.6085 33.7363 70.2946 33.656 70.0226 33.4928C69.8406 33.3853 69.6839 33.2302 69.5527 33.0276Z" fill="#FBFBFB"/>
<path d="M77.318 33.0741C77.8133 33.0741 78.2654 32.9167 78.6745 32.6013L79.0003 33.1758C78.5786 33.5492 78.0173 33.7361 77.3183 33.7361C76.6331 33.7361 76.054 33.5034 75.5794 33.0373C75.1054 32.5714 74.8682 31.9932 74.8682 31.3047C74.8682 30.6114 75.1057 30.0317 75.5794 29.5653C76.0542 29.0995 76.6331 28.8667 77.3183 28.8667C78.0094 28.8667 78.5614 29.0554 78.9737 29.434L78.6537 30.0079C78.2499 29.6882 77.8052 29.5285 77.3183 29.5285C76.8651 29.5285 76.4774 29.6948 76.1548 30.0285C75.8281 30.3751 75.6644 30.8007 75.6644 31.3047C75.6644 31.8091 75.8281 32.2323 76.1548 32.5743C76.4774 32.9077 76.8648 33.0741 77.318 33.0741Z" fill="#FBFBFB"/>
<path d="M81.1999 33.7363C80.7008 33.7363 80.2753 33.5665 79.9229 33.2265C79.5708 32.8865 79.3955 32.467 79.3955 31.9667C79.3955 31.4667 79.5708 31.0458 79.9229 30.7038C80.2753 30.3617 80.7005 30.1904 81.1999 30.1904C81.7037 30.1904 82.1303 30.3617 82.4798 30.7038C82.8292 31.0461 83.0034 31.467 83.0034 31.9667C83.0034 32.467 82.829 32.8865 82.4798 33.2265C82.13 33.5665 81.7034 33.7363 81.1999 33.7363ZM81.1999 33.1018C81.481 33.1018 81.7229 32.9949 81.9243 32.7806C82.1268 32.5676 82.2276 32.2957 82.2276 31.967C82.2276 31.6426 82.1268 31.3713 81.9243 31.1531C81.7227 30.9351 81.4807 30.8252 81.1999 30.8252C80.9229 30.8252 80.6833 30.9351 80.4816 31.1531C80.2791 31.3713 80.1786 31.6424 80.1786 31.967C80.1786 32.2957 80.2788 32.5673 80.4816 32.7806C80.6833 32.9949 80.9229 33.1018 81.1999 33.1018Z" fill="#FBFBFB"/>
<path d="M56.9181 24.8004C57.4128 24.8004 57.864 24.6425 58.2728 24.3277L58.5998 24.9013C58.1773 25.2755 57.6168 25.4628 56.9181 25.4628C56.2329 25.4628 55.6523 25.2294 55.178 24.7636C54.7044 24.2972 54.4668 23.7198 54.4668 23.0308C54.4668 22.3372 54.7044 21.7574 55.178 21.2919C55.6523 20.8255 56.2326 20.5928 56.9181 20.5928C57.6083 20.5928 58.1594 20.7815 58.5726 21.16L58.2524 21.734C57.8491 21.414 57.4038 21.2548 56.9184 21.2548C56.4643 21.2548 56.0766 21.4209 55.7537 21.754C55.4276 22.1009 55.2639 22.5267 55.2639 23.0308C55.2639 23.5352 55.4276 23.9584 55.7537 24.3004C56.0763 24.6341 56.4637 24.8004 56.9181 24.8004Z" fill="#FBFBFB"/>
<path d="M87.2921 30.1909C87.691 30.1909 88.0025 30.3272 88.2246 30.5993C88.4478 30.8718 88.5583 31.2353 88.5583 31.6904V33.6562H87.7959V31.886C87.7959 31.5257 87.7474 31.2594 87.6492 31.0857C87.5516 30.9121 87.3918 30.8257 87.17 30.8257C87.0379 30.8257 86.9237 30.8628 86.8261 30.9373C86.7285 31.0115 86.6502 31.1205 86.5911 31.2649C86.5277 31.4136 86.4956 31.6208 86.4956 31.8863V33.6565H85.7326V31.8863C85.7326 31.526 85.6832 31.2596 85.5827 31.086C85.4834 30.9124 85.3247 30.826 85.1061 30.826C84.9749 30.826 84.863 30.8631 84.7698 30.9376C84.6766 31.0118 84.598 31.1208 84.5346 31.2652C84.4668 31.4318 84.4323 31.6527 84.4323 31.9272V31.9205V33.6568H83.6699V30.2727H84.3917V30.7251C84.5816 30.3692 84.877 30.1915 85.2768 30.1915C85.7031 30.1915 86.0164 30.3964 86.2162 30.8057C86.334 30.6034 86.476 30.4506 86.6414 30.3469C86.8077 30.2425 87.0239 30.1909 87.2921 30.1909Z" fill="#FBFBFB"/>
<path d="M93.0647 30.1909C93.4644 30.1909 93.7754 30.3272 93.998 30.5993C94.2201 30.8718 94.3317 31.2353 94.3317 31.6904V33.6562H93.5688V31.886C93.5688 31.5257 93.5197 31.2594 93.4221 31.0857C93.3248 30.9121 93.1652 30.8257 92.9423 30.8257C92.8108 30.8257 92.6959 30.8628 92.5989 30.9373C92.5007 31.0115 92.4224 31.1205 92.3634 31.2649C92.3006 31.4136 92.2679 31.6208 92.2679 31.8863V33.6565H91.5061V31.8863C91.5061 31.526 91.4561 31.2596 91.3562 31.086C91.2562 30.9124 91.0978 30.826 90.8793 30.826C90.7481 30.826 90.6353 30.8631 90.5424 30.9376C90.4497 31.0118 90.3711 31.1208 90.3074 31.2652C90.2399 31.4318 90.2057 31.6527 90.2057 31.9272V31.9205V33.6568H89.4434V30.2727H90.1651V30.7251C90.3556 30.3692 90.6505 30.1915 91.0502 30.1915C91.4765 30.1915 91.7889 30.3964 91.9894 30.8057C92.1066 30.6034 92.2494 30.4506 92.4151 30.3469C92.5802 30.2425 92.7973 30.1909 93.0647 30.1909Z" fill="#FBFBFB"/>
<path d="M96.1135 29.3189C96.1135 29.4497 96.0636 29.5639 95.9663 29.6604C95.869 29.7572 95.7521 29.8056 95.6165 29.8056C95.48 29.8056 95.3631 29.7572 95.265 29.6604C95.1676 29.5639 95.1191 29.4497 95.1191 29.3189C95.1191 29.1842 95.1679 29.0682 95.265 28.9711C95.3631 28.8749 95.48 28.8262 95.6165 28.8262C95.7521 28.8262 95.869 28.8749 95.9663 28.9711C96.0636 29.0682 96.1135 29.1842 96.1135 29.3189ZM95.2346 33.6559V30.2717H96.0107V33.6559H95.2346Z" fill="#FBFBFB"/>
<path d="M96.6426 33.0276L97.1262 32.5346C97.2618 32.7192 97.4125 32.863 97.575 32.9665C97.7343 33.0609 97.9046 33.1085 98.0864 33.1085C98.2585 33.1085 98.4052 33.0734 98.5253 33.0036C98.6462 32.9337 98.7056 32.8407 98.7056 32.7233C98.7056 32.6067 98.648 32.5148 98.5326 32.4499C98.4163 32.3847 98.2787 32.323 98.1209 32.2641C97.9338 32.2061 97.7436 32.1403 97.5487 32.0685C97.2854 31.9737 97.092 31.8519 96.9701 31.7032C96.8474 31.5542 96.7855 31.3858 96.7855 31.1968C96.7855 30.9177 96.9175 30.68 97.1808 30.4844C97.4441 30.2881 97.7556 30.1904 98.1133 30.1904C98.4949 30.1904 98.8061 30.2809 99.0466 30.4606C99.1696 30.5551 99.2669 30.6722 99.3391 30.8119L98.8622 31.2713C98.7985 31.1632 98.7234 31.0751 98.6378 31.0076C98.4882 30.8774 98.3006 30.8119 98.0723 30.8119C97.9411 30.8119 97.8266 30.8447 97.7293 30.9102C97.6311 30.9754 97.5826 31.0525 97.5826 31.1429C97.5826 31.2423 97.6367 31.3252 97.7457 31.3925C97.8552 31.4606 98.016 31.5253 98.2293 31.589C98.3064 31.6111 98.3952 31.6386 98.4949 31.6696C98.8268 31.7774 99.077 31.9171 99.2476 32.0882C99.418 32.2601 99.503 32.4644 99.503 32.703C99.503 32.9821 99.3674 33.2239 99.0942 33.4291C98.8222 33.6334 98.4753 33.7363 98.0531 33.7363C97.6989 33.7363 97.3857 33.656 97.113 33.4928C96.9307 33.3853 96.7741 33.2302 96.6426 33.0276Z" fill="#FBFBFB"/>
<path d="M99.8008 33.0276L100.284 32.5346C100.421 32.7192 100.57 32.863 100.733 32.9665C100.892 33.0609 101.062 33.1085 101.244 33.1085C101.417 33.1085 101.563 33.0734 101.683 33.0036C101.804 32.9337 101.863 32.8407 101.863 32.7233C101.863 32.6067 101.806 32.5148 101.691 32.4499C101.574 32.3847 101.437 32.323 101.278 32.2641C101.092 32.2061 100.902 32.1403 100.706 32.0685C100.443 31.9737 100.25 31.8519 100.128 31.7032C100.005 31.5542 99.9434 31.3858 99.9434 31.1968C99.9434 30.9177 100.075 30.68 100.338 30.4844C100.601 30.2881 100.912 30.1904 101.271 30.1904C101.652 30.1904 101.963 30.2809 102.204 30.4606C102.327 30.5551 102.424 30.6722 102.497 30.8119L102.02 31.2713C101.956 31.1632 101.881 31.0751 101.796 31.0076C101.646 30.8774 101.458 30.8119 101.23 30.8119C101.098 30.8119 100.984 30.8447 100.887 30.9102C100.789 30.9754 100.74 31.0525 100.74 31.1429C100.74 31.2423 100.795 31.3252 100.904 31.3925C101.013 31.4606 101.174 31.5253 101.387 31.589C101.464 31.6111 101.553 31.6386 101.652 31.6696C101.984 31.7774 102.235 31.9171 102.404 32.0882C102.576 32.2601 102.66 32.4644 102.66 32.703C102.66 32.9821 102.523 33.2239 102.252 33.4291C101.979 33.6334 101.632 33.7363 101.21 33.7363C100.856 33.7363 100.543 33.656 100.27 33.4928C100.089 33.3853 99.9326 33.2302 99.8008 33.0276Z" fill="#FBFBFB"/>
<path d="M104.172 29.3189C104.172 29.4497 104.123 29.5639 104.025 29.6604C103.928 29.7572 103.81 29.8056 103.674 29.8056C103.539 29.8056 103.422 29.7572 103.324 29.6604C103.226 29.5639 103.178 29.4497 103.178 29.3189C103.178 29.1842 103.227 29.0682 103.324 28.9711C103.422 28.8749 103.538 28.8262 103.674 28.8262C103.81 28.8262 103.928 28.8749 104.025 28.9711C104.123 29.0682 104.172 29.1842 104.172 29.3189ZM103.293 33.6559V30.2717H104.069V33.6559H103.293Z" fill="#FBFBFB"/>
<path d="M106.58 33.7363C106.081 33.7363 105.655 33.5665 105.303 33.2265C104.951 32.8865 104.775 32.467 104.775 31.9667C104.775 31.4667 104.951 31.0458 105.303 30.7038C105.655 30.3617 106.08 30.1904 106.58 30.1904C107.084 30.1904 107.51 30.3617 107.86 30.7038C108.209 31.0461 108.384 31.467 108.384 31.9667C108.384 32.467 108.209 32.8865 107.86 33.2265C107.51 33.5665 107.084 33.7363 106.58 33.7363ZM106.58 33.1018C106.861 33.1018 107.102 32.9949 107.304 32.7806C107.506 32.5676 107.608 32.2957 107.608 31.967C107.608 31.6426 107.506 31.3713 107.304 31.1531C107.102 30.9351 106.861 30.8252 106.58 30.8252C106.302 30.8252 106.063 30.9351 105.861 31.1531C105.659 31.3713 105.558 31.6424 105.558 31.967C105.558 32.2957 105.659 32.5673 105.861 32.7806C106.063 32.9949 106.302 33.1018 106.58 33.1018Z" fill="#FBFBFB"/>
<path d="M109.819 31.9536V33.6562H109.05V30.2721H109.792V30.7246C109.883 30.5672 110.014 30.4388 110.187 30.3396C110.36 30.2405 110.545 30.1909 110.745 30.1909C111.149 30.1909 111.473 30.3272 111.715 30.5993C111.958 30.8718 112.08 31.2353 112.08 31.6904V33.6562H111.304V31.886C111.304 31.5257 111.245 31.2594 111.127 31.0857C111.008 30.9121 110.827 30.8257 110.582 30.8257C110.454 30.8257 110.331 30.8675 110.211 30.9507C110.09 31.0347 109.999 31.148 109.936 31.2924C109.858 31.4585 109.819 31.6794 109.819 31.9536Z" fill="#FBFBFB"/>
<path d="M22.3873 13.7282C19.8678 12.0293 16.643 12.7221 14.9514 15.2758C13.5366 17.4089 11.4031 17.6744 10.575 17.6744C7.88086 17.6744 6.03644 15.7941 5.48943 13.8491C5.483 13.8297 5.4792 13.8146 5.47423 13.7949C5.46926 13.7729 5.46137 13.7517 5.4567 13.7285C5.24222 12.9166 5.18933 12.5285 5.18933 11.6664C5.18933 7.01296 9.99908 1.83484 16.9303 1.83484C24.0277 1.83484 28.0879 7.19239 29.1338 10.1722C29.1162 10.1197 29.0999 10.0678 29.0815 10.0136C27.0676 4.18882 21.4986 0 14.9427 0C6.69157 0 0 6.63614 0 14.8225C0 22.1409 5.32024 28.4049 12.7 28.4049C18.5865 28.4049 22.5424 25.1297 24.3582 20.6194C25.3538 18.1518 24.6475 15.2512 22.3873 13.7282Z" fill="#FBFBFB"/>
<path d="M29.2284 10.4616C28.3547 7.556 24.2649 1.83496 16.9314 1.83496C10.0005 1.83496 5.19043 7.01308 5.19043 11.6666C5.19043 12.5289 5.24303 12.9167 5.4578 13.7286C5.36897 13.3736 5.32046 13.017 5.32046 12.6709C5.32046 7.82557 10.2112 4.46837 15.2377 4.46837C22.0433 4.46837 27.559 9.94129 27.559 16.691C27.559 21.9816 24.489 26.5612 20.0285 28.7618L20.0296 28.7653C25.7809 26.7009 29.8847 21.2381 29.8847 14.8226C29.8844 13.3052 29.6801 11.9666 29.2284 10.4616Z" fill="#B0B0B0"/>
<path d="M47.804 10.766V14.771H46.3626V12.015H38.7418V10.7657H42.6237V9.0787H38.0156V7.82967H48.6611V9.0787H44.0524V10.7657H47.804V10.766ZM47.804 3.48926V6.91573H46.3626V4.75132H38.8721V3.48926H47.804Z" fill="#FBFBFB"/>
<path d="M50.5703 9.49182V3.59309H56.529V9.49182H50.5703ZM50.9075 14.514V10.6765H52.3355V13.2519H60.3982V14.514H50.9075ZM55.1142 4.82936H51.9977V8.26743H55.1142V4.82936ZM58.8524 10.6119V3.2583H60.2935V10.6119H58.8524Z" fill="#FBFBFB"/>
<path d="M66.7194 9.69704V11.3072H65.2914V9.69704H62.1367V8.51295H69.8618V9.69704H66.7194ZM67.1344 7.92018V4.82936H62.8506V3.56759H68.5764V7.92018H67.1344ZM64.304 10.702V13.2783H72.5753V14.514H62.8637V10.7023H64.304V10.702ZM70.8358 7.50828H69.1471V6.33636H70.8358V3.2583H72.2635V11.4365H70.8358V7.50828Z" fill="#FBFBFB"/>
<path d="M80.3055 6.32303C80.3055 6.7184 80.2228 7.08972 80.0588 7.43726C79.8937 7.7851 79.6734 8.08337 79.3967 8.33236C79.1197 8.59904 78.7977 8.80861 78.4295 8.9634C78.0616 9.11818 77.6654 9.19529 77.2414 9.19529C76.8171 9.19529 76.4209 9.11818 76.0533 8.9634C75.6854 8.80861 75.3636 8.59904 75.0863 8.33236C74.8093 8.08366 74.5908 7.7851 74.4309 7.43726C74.2699 7.08972 74.1904 6.71869 74.1904 6.32303C74.1904 5.92012 74.2699 5.54387 74.4309 5.19604C74.5905 4.8482 74.8093 4.54587 75.0863 4.28877C75.3633 4.02238 75.6851 3.81165 76.0533 3.65715C76.4209 3.50266 76.8171 3.42555 77.2414 3.42555C77.6654 3.42555 78.0616 3.50266 78.4295 3.65715C78.7977 3.81165 79.1197 4.02238 79.3967 4.28877C79.6734 4.54587 79.8937 4.8482 80.0588 5.19604C80.2228 5.54387 80.3055 5.92012 80.3055 6.32303ZM74.9563 10.1217H84.2129V14.6433H82.772V11.3974H74.9563V10.1217ZM78.904 6.32303C78.904 5.8691 78.7413 5.47982 78.4161 5.15749C78.0923 4.83574 77.7048 4.67457 77.2542 4.67457C76.8045 4.67457 76.4144 4.83574 76.0863 5.15749C75.7561 5.47953 75.5927 5.86881 75.5927 6.32303C75.5927 6.77 75.7561 7.15407 76.0863 7.4764C76.4147 7.79756 76.8045 7.95873 77.2542 7.95873C77.7048 7.95873 78.092 7.79756 78.4161 7.4764C78.7413 7.15407 78.904 6.77 78.904 6.32303ZM82.7723 3.2583H84.2132V9.37558H82.7723V3.2583Z" fill="#FBFBFB"/>
<path d="M85.873 11.269V10.0069H93.6236V11.269H90.378V14.3723H88.9623V11.269H85.873ZM92.7402 6.3752C92.7402 6.77 92.6599 7.14334 92.5 7.49524C92.3405 7.84771 92.1173 8.15207 91.8309 8.40947C91.5463 8.67614 91.2175 8.88629 90.8447 9.04021C90.473 9.195 90.0747 9.2721 89.6504 9.2721C89.2261 9.2721 88.8284 9.195 88.4565 9.04021C88.0839 8.88629 87.7557 8.67614 87.4691 8.40947C87.1845 8.15178 86.9586 7.84771 86.7944 7.49524C86.6299 7.14334 86.5472 6.77 86.5472 6.3752C86.5472 5.9807 86.6299 5.60707 86.7944 5.2543C86.9586 4.9027 87.1842 4.5937 87.4691 4.32703C87.7555 4.06151 88.0839 3.85078 88.4565 3.69599C88.8284 3.5415 89.2261 3.46439 89.6504 3.46439C90.0747 3.46439 90.473 3.5415 90.8447 3.69599C91.2175 3.85078 91.5463 4.06151 91.8309 4.32703C92.1173 4.5937 92.3405 4.9027 92.5 5.2543C92.6599 5.60678 92.7402 5.98041 92.7402 6.3752ZM91.3642 6.3752C91.3642 5.91142 91.195 5.51663 90.8578 5.18995C90.5197 4.86386 90.1182 4.70066 89.6501 4.70066C89.1829 4.70066 88.7832 4.86386 88.4492 5.18995C88.1157 5.51663 87.9501 5.91142 87.9501 6.3752C87.9501 6.83 88.116 7.22334 88.4492 7.55321C88.7834 7.88336 89.1832 8.04888 89.6501 8.04888C90.1182 8.04888 90.5197 7.88336 90.8578 7.55321C91.195 7.22305 91.3642 6.83 91.3642 6.3752ZM94.4929 3.2583H95.9215V14.7459H94.4929V3.2583Z" fill="#FBFBFB"/>
<path d="M102.527 9.87728V11.4228H101.099V9.87728H97.9434V8.69203H105.668V9.87728H102.527ZM100.112 10.8819V13.2782H108.381V14.5139H98.6701V10.8819H100.112ZM104.487 5.69194C104.487 6.04412 104.411 6.37631 104.26 6.68965C104.107 7.00299 103.906 7.2801 103.656 7.5204C103.405 7.75229 103.11 7.93693 102.773 8.07404C102.435 8.2123 102.077 8.28013 101.696 8.28013C101.315 8.28013 100.955 8.2123 100.618 8.07404C100.281 7.93664 99.9821 7.75229 99.7223 7.5204C99.4801 7.2801 99.2834 7.00299 99.1318 6.68965C98.9801 6.37631 98.9038 6.04383 98.9038 5.69194C98.9038 5.34004 98.9801 5.00902 99.1318 4.70003C99.2834 4.39103 99.4801 4.11653 99.7223 3.87594C99.9821 3.63507 100.281 3.44868 100.618 3.31564C100.955 3.18172 101.315 3.11621 101.696 3.11621C102.077 3.11621 102.435 3.18172 102.773 3.31564C103.11 3.44868 103.405 3.63507 103.656 3.87594C103.906 4.11653 104.108 4.39103 104.26 4.70003C104.411 5.00902 104.487 5.34004 104.487 5.69194ZM103.124 5.70469C103.124 5.3183 102.985 4.9896 102.708 4.71974C102.431 4.44929 102.093 4.31393 101.696 4.31393C101.297 4.31393 100.959 4.44958 100.683 4.71974C100.406 4.98989 100.268 5.3183 100.268 5.70469C100.268 6.0905 100.406 6.4195 100.683 6.68965C100.96 6.96067 101.297 7.09546 101.696 7.09546C102.094 7.09546 102.431 6.96038 102.708 6.68965C102.985 6.4195 103.124 6.0905 103.124 5.70469ZM106.642 7.68823H104.992V6.51631H106.642V3.25795H108.07V11.5518H106.642V7.68823Z" fill="#FBFBFB"/>
<path d="M117.546 13.5993H109.951V12.3497H113.002V10.9207C112.864 10.8862 112.734 10.843 112.613 10.7914C112.266 10.6543 111.964 10.4694 111.704 10.2381C111.443 9.99777 111.24 9.72066 111.093 9.40732C110.946 9.09397 110.873 8.7615 110.873 8.40932C110.873 8.05742 110.946 7.72669 111.093 7.41769C111.24 7.1087 111.443 6.8342 111.704 6.59332C111.964 6.35331 112.264 6.16635 112.606 6.03301C112.948 5.89939 113.314 5.83359 113.703 5.83359C114.093 5.83359 114.456 5.89968 114.793 6.03301C115.13 6.16635 115.426 6.35302 115.676 6.59332C115.936 6.8342 116.141 7.10841 116.292 7.41769C116.445 7.7264 116.521 8.05742 116.521 8.40932C116.521 8.76179 116.445 9.09397 116.292 9.40732C116.141 9.72066 115.936 9.99777 115.676 10.2381C115.426 10.4694 115.13 10.6546 114.793 10.7914C114.655 10.8526 114.512 10.899 114.365 10.9332V12.3497H117.546V13.5993ZM112.898 4.40398V3.18018H114.456V4.40398H117.273V5.62778H110.081V4.40398H112.898ZM115.118 8.39627C115.118 8.01916 114.98 7.69422 114.703 7.42436C114.426 7.15334 114.089 7.01797 113.691 7.01797C113.293 7.01797 112.955 7.15363 112.678 7.42436C112.401 7.69422 112.262 8.01916 112.262 8.39627C112.262 8.77425 112.401 9.10093 112.678 9.37514C112.955 9.64993 113.293 9.78675 113.691 9.78675C114.089 9.78675 114.426 9.64993 114.703 9.37514C114.98 9.10093 115.118 8.77425 115.118 8.39627ZM118.571 3.25786H120V14.7454H118.571V3.25786Z" fill="#FBFBFB"/>
</svg>
