<svg width="81" height="31" viewBox="0 0 81 31" fill="none" xmlns="http://www.w3.org/2000/svg">
<path d="M41.9615 24.7635L40.8427 22.3649V24.7635H40.3486V21.8228H41.08L42.1988 24.2262V21.8228H42.6929V24.7635H41.9615Z" fill="#FBFBFB"/>
<path d="M44.1898 23.4012H44.6741C44.6774 23.3399 44.6644 23.2789 44.6363 23.2241C44.6083 23.1694 44.5662 23.1229 44.5143 23.0894C44.3657 23.0112 44.1978 22.9763 44.0299 22.9886V22.9886C43.8194 22.9919 43.6118 23.0376 43.4197 23.123L43.2937 22.7488C43.528 22.6499 43.7801 22.5993 44.0348 22.6001C44.3237 22.5816 44.6112 22.652 44.8582 22.8016C44.9576 22.8778 45.0362 22.9774 45.087 23.0913C45.1377 23.2052 45.159 23.3299 45.1488 23.454V24.7637H44.6887V24.5286C44.5941 24.6222 44.48 24.6942 44.3545 24.7397C44.2257 24.7867 44.0897 24.811 43.9525 24.8116C43.7274 24.82 43.5065 24.7504 43.3276 24.6149C43.2506 24.5507 43.1897 24.4696 43.1498 24.378C43.1099 24.2864 43.0921 24.1869 43.0977 24.0873C43.1033 23.9877 43.1323 23.8907 43.1823 23.8041C43.2323 23.7175 43.3019 23.6436 43.3858 23.5883C43.6209 23.45 43.8926 23.3849 44.1656 23.4012H44.1898ZM44.0299 24.4326C44.1599 24.4328 44.2879 24.4015 44.4029 24.3415C44.5067 24.2963 44.5968 24.2253 44.6644 24.1352V23.7754H44.2382C44.0615 23.7614 43.8842 23.7946 43.7248 23.8714C43.6827 23.8986 43.648 23.9355 43.6235 23.9789C43.599 24.0224 43.5856 24.0711 43.5843 24.1208C43.584 24.1654 43.595 24.2094 43.6161 24.2487C43.6372 24.2881 43.6679 24.3216 43.7054 24.3463C43.8012 24.4093 43.9152 24.4396 44.0299 24.4326" fill="#FBFBFB"/>
<path d="M46.3565 21.9712V22.6476H46.8408V23.0362H46.3565V24.1156C46.352 24.1532 46.3562 24.1913 46.3688 24.2271C46.3814 24.2628 46.402 24.2952 46.4291 24.3219C46.492 24.3634 46.5668 24.3837 46.6422 24.3795H46.8215V24.7633H46.526C46.3509 24.7738 46.1781 24.719 46.0417 24.6097C45.9866 24.5487 45.9444 24.4774 45.9178 24.3999C45.8912 24.3224 45.8806 24.2404 45.8867 24.1588V23.0362H45.5186V22.6476H45.8867V21.9712H46.3565Z" fill="#FBFBFB"/>
<path d="M47.7865 22.0532C47.787 22.0935 47.7791 22.1335 47.7633 22.1706C47.7474 22.2078 47.724 22.2413 47.6945 22.2691C47.6661 22.2978 47.6322 22.3206 47.5947 22.3362C47.5573 22.3518 47.5171 22.3598 47.4765 22.3598C47.4359 22.3598 47.3958 22.3518 47.3583 22.3362C47.3209 22.3206 47.287 22.2978 47.2586 22.2691C47.2296 22.2409 47.2065 22.2073 47.1908 22.1703C47.1751 22.1332 47.167 22.0934 47.167 22.0532C47.167 22.013 47.1751 21.9732 47.1908 21.9361C47.2065 21.899 47.2296 21.8654 47.2586 21.8373C47.287 21.8086 47.3209 21.7858 47.3583 21.7702C47.3958 21.7546 47.4359 21.7466 47.4765 21.7466C47.5171 21.7466 47.5573 21.7546 47.5947 21.7702C47.6322 21.7858 47.6661 21.8086 47.6945 21.8373C47.724 21.8651 47.7474 21.8986 47.7633 21.9357C47.7791 21.9729 47.787 22.0129 47.7865 22.0532V22.0532ZM47.244 22.648H47.7284V24.7637H47.244V22.648Z" fill="#FBFBFB"/>
<path d="M49.2931 24.8115C49.1453 24.8139 48.9986 24.7871 48.8614 24.7327C48.7242 24.6784 48.5993 24.5975 48.4939 24.4949C48.2833 24.2862 48.165 24.0032 48.165 23.7081C48.165 23.413 48.2833 23.13 48.4939 22.9213C48.7089 22.7153 48.9964 22.6001 49.2955 22.6001C49.5947 22.6001 49.8821 22.7153 50.0971 22.9213C50.3054 23.1313 50.4221 23.4138 50.4221 23.7081C50.4221 24.0024 50.3054 24.2849 50.0971 24.4949C49.9914 24.5983 49.8657 24.6796 49.7276 24.734C49.5895 24.7884 49.4417 24.8148 49.2931 24.8115V24.8115ZM49.2931 24.4181C49.3792 24.4191 49.4645 24.4016 49.5431 24.3668C49.6217 24.332 49.6917 24.2808 49.7484 24.2166C49.8763 24.0782 49.9441 23.8956 49.9373 23.7081C49.9421 23.5209 49.8745 23.339 49.7484 23.1996C49.6919 23.1348 49.6221 23.0828 49.5435 23.0472C49.4649 23.0116 49.3795 22.9932 49.2931 22.9933C49.2077 22.9948 49.1235 23.0139 49.0459 23.0495C48.9684 23.085 48.8992 23.1361 48.8427 23.1996C48.7165 23.339 48.6489 23.5209 48.6538 23.7081C48.6469 23.8956 48.7148 24.0782 48.8427 24.2166C48.8994 24.2795 48.9688 24.3299 49.0464 24.3646C49.1239 24.3993 49.208 24.4175 49.2931 24.4181" fill="#FBFBFB"/>
<path d="M51.3242 23.6984V24.7634H50.8398V22.6478H51.3242V22.9309C51.3849 22.8316 51.4698 22.7491 51.5712 22.691C51.6769 22.6298 51.7975 22.5982 51.9199 22.5998C52.0343 22.5949 52.1484 22.6152 52.2539 22.6592C52.3594 22.7031 52.4538 22.7697 52.5302 22.8541C52.6879 23.0458 52.769 23.2883 52.7579 23.5353V24.7634H52.2735V23.6553C52.282 23.4888 52.2452 23.3231 52.167 23.1755C52.1281 23.1219 52.0762 23.0789 52.0161 23.0504C51.956 23.0219 51.8896 23.0089 51.8231 23.0124C51.739 23.0154 51.6578 23.0439 51.5906 23.094C51.5149 23.1468 51.456 23.2201 51.4211 23.305C51.3681 23.4361 51.3433 23.5766 51.3484 23.7176" fill="#FBFBFB"/>
<path d="M54.2165 23.4012H54.7008C54.7041 23.3399 54.6911 23.2789 54.663 23.2241C54.6349 23.1694 54.5929 23.1229 54.541 23.0894C54.3924 23.0112 54.2244 22.9763 54.0566 22.9886V22.9886C53.8445 22.9914 53.6351 23.0371 53.4415 23.123L53.3156 22.7488C53.5498 22.6499 53.802 22.5993 54.0566 22.6001C54.3455 22.5816 54.6331 22.652 54.88 22.8016C54.9794 22.8778 55.0581 22.9774 55.1088 23.0913C55.1596 23.2052 55.1808 23.3299 55.1706 23.454V24.7637H54.6863V24.5286C54.5917 24.6222 54.4776 24.6942 54.3521 24.7397C54.2233 24.7867 54.0873 24.8111 53.9501 24.8116C53.7263 24.8218 53.5063 24.752 53.3301 24.615C53.2569 24.5576 53.1976 24.4848 53.1565 24.4018C53.1154 24.3187 53.0936 24.2277 53.0928 24.1352C53.0925 24.0295 53.1189 23.9254 53.1697 23.8323C53.2204 23.7393 53.2939 23.6604 53.3834 23.6027C53.6169 23.4648 53.8869 23.3996 54.1583 23.4156L54.2165 23.4012ZM54.0276 24.447C54.1575 24.4471 54.2855 24.4159 54.4005 24.3559C54.5043 24.3107 54.5944 24.2397 54.6621 24.1496V23.7898H54.231C54.0639 23.7798 53.897 23.8129 53.7466 23.8858C53.7046 23.913 53.6698 23.9499 53.6453 23.9933C53.6209 24.0368 53.6074 24.0855 53.6062 24.1352C53.6059 24.1798 53.6168 24.2238 53.6379 24.2631C53.6591 24.3025 53.6898 24.336 53.7273 24.3607C53.8231 24.4237 53.937 24.454 54.0518 24.447" fill="#FBFBFB"/>
<path d="M56.2471 21.8228H55.7676V24.7635H56.2471V21.8228Z" fill="#FBFBFB"/>
<path d="M59.2025 22.2353V24.7635H58.7036V22.2353H57.7979V21.8228H60.113V22.2353H59.2025Z" fill="#FBFBFB"/>
<path d="M61.0438 23.4012H61.5281C61.5314 23.3399 61.5184 23.2789 61.4903 23.2241C61.4623 23.1694 61.4202 23.1229 61.3683 23.0894C61.2197 23.0112 61.0518 22.9763 60.884 22.9886V22.9886C60.6719 22.9919 60.4627 23.0376 60.2688 23.123L60.1429 22.7488C60.3772 22.6499 60.6293 22.5993 60.884 22.6001C61.1728 22.5816 61.4604 22.652 61.7074 22.8016C61.8068 22.8778 61.8854 22.9774 61.9362 23.0913C61.9869 23.2052 62.0081 23.3299 61.998 23.454V24.7637H61.5378V24.5286C61.4432 24.6222 61.3292 24.6942 61.2036 24.7397C61.0749 24.7867 60.9388 24.8111 60.8016 24.8116C60.5779 24.8218 60.3578 24.752 60.1817 24.615C60.1084 24.5576 60.0491 24.4848 60.008 24.4018C59.967 24.3187 59.9452 24.2277 59.9443 24.1352C59.9441 24.029 59.9711 23.9244 60.0228 23.8312C60.0744 23.7381 60.1491 23.6595 60.2398 23.6027C60.4729 23.4637 60.7432 23.3984 61.0147 23.4156L61.0438 23.4012ZM60.8791 24.447C61.009 24.4466 61.1369 24.4153 61.2521 24.3559C61.3558 24.3107 61.446 24.2397 61.5136 24.1496V23.7898H61.0874C60.9107 23.7758 60.7334 23.809 60.574 23.8858C60.5319 23.913 60.4971 23.9499 60.4727 23.9933C60.4482 24.0368 60.4348 24.0855 60.4335 24.1352C60.4332 24.1798 60.4441 24.2238 60.4653 24.2631C60.4864 24.3025 60.5171 24.336 60.5546 24.3607C60.6507 24.4231 60.7644 24.4533 60.8791 24.447" fill="#FBFBFB"/>
<path d="M62.8413 24.7636H62.2939L63.1222 23.6602L62.3666 22.6479H62.9139L63.3934 23.2908L63.8729 22.6479H64.4154L63.6695 23.6602L64.4881 24.7636H63.9456L63.3934 24.0248L62.8413 24.7636Z" fill="#FBFBFB"/>
<path d="M65.7588 24.1683L66.0882 23.8373C66.1583 24.0031 66.2741 24.146 66.4223 24.2498C66.5498 24.3401 66.7017 24.3902 66.8583 24.3938C67.0025 24.3972 67.1438 24.3534 67.2603 24.269C67.3124 24.2354 67.3549 24.189 67.3837 24.1344C67.4126 24.0798 67.4268 24.0188 67.425 23.9572C67.4258 23.8998 67.4104 23.8432 67.3804 23.794C67.3504 23.7448 67.3071 23.705 67.2554 23.6789C67.1407 23.6052 67.019 23.5426 66.8922 23.4919L66.4853 23.3383C66.296 23.2796 66.1279 23.1679 66.001 23.0169C65.909 22.8966 65.8581 22.7504 65.8557 22.5995C65.8555 22.4859 65.8821 22.3739 65.9334 22.2722C65.9847 22.1706 66.0592 22.0823 66.1511 22.0143C66.3521 21.8492 66.6069 21.7623 66.868 21.7696C67.1316 21.7582 67.3908 21.8397 67.5993 21.9999C67.6854 22.0635 67.7537 22.1477 67.7979 22.2445L67.4976 22.5564C67.4622 22.4905 67.4146 22.4319 67.3572 22.3837C67.2174 22.2566 67.0335 22.1878 66.8437 22.1918C66.7258 22.189 66.6102 22.2244 66.5144 22.2925C66.4685 22.3231 66.4312 22.3646 66.4058 22.4132C66.3804 22.4619 66.3678 22.516 66.3691 22.5708C66.3691 22.7435 66.5628 22.9034 66.9503 23.0505L67.1731 23.1273C67.3895 23.2024 67.5875 23.3217 67.7543 23.4775C67.8783 23.6071 67.9476 23.7787 67.9481 23.9572C67.9475 24.0744 67.9197 24.1899 67.8668 24.2947C67.8138 24.3996 67.7372 24.4909 67.6429 24.5617C67.4272 24.7385 67.1525 24.8292 66.8728 24.8159C66.6196 24.8269 66.3691 24.7599 66.156 24.624C65.9838 24.5145 65.8475 24.3579 65.7636 24.1731" fill="#FBFBFB"/>
<path d="M68.7478 23.9191C68.7714 24.0421 68.8362 24.1537 68.9318 24.2357C69.0798 24.3647 69.2725 24.4318 69.4694 24.4228C69.7142 24.422 69.9495 24.3294 70.1282 24.1638L70.2735 24.5188C70.0486 24.7135 69.7584 24.8179 69.4598 24.8114C69.1378 24.8252 68.8227 24.7171 68.5782 24.5092C68.4659 24.4094 68.3772 24.2863 68.3186 24.1486C68.26 24.0109 68.2328 23.8621 68.2392 23.7128C68.2298 23.4171 68.3376 23.1296 68.5395 22.9116C68.7505 22.7111 69.0317 22.5991 69.3241 22.5991C69.6166 22.5991 69.8977 22.7111 70.1088 22.9116C70.2077 23.0145 70.2851 23.1356 70.3366 23.2682C70.3882 23.4007 70.4128 23.542 70.4091 23.684C70.4167 23.7622 70.4167 23.8409 70.4091 23.9191H68.7478ZM68.7478 23.5401H69.9296C69.9222 23.3964 69.8598 23.2609 69.7552 23.1611C69.7012 23.1045 69.6358 23.0598 69.5632 23.0301C69.4906 23.0003 69.4124 22.9861 69.3338 22.9884C69.2525 22.9862 69.1717 23.0018 69.0972 23.0342C69.0226 23.0665 68.9563 23.1148 68.9028 23.1755C68.8158 23.2792 68.7619 23.4061 68.7478 23.5401" fill="#FBFBFB"/>
<path d="M70.8271 24.7631V22.6475H71.2824V22.9641C71.348 22.8654 71.4359 22.7833 71.5391 22.7242C71.6702 22.6496 71.8191 22.6115 71.9702 22.6139H72.0041V23.0456H71.9557C71.8667 23.0417 71.7778 23.0559 71.6945 23.0872C71.6112 23.1186 71.5353 23.1665 71.4713 23.2279C71.3498 23.3855 71.2912 23.5819 71.3066 23.7796V24.7631H70.8271Z" fill="#FBFBFB"/>
<path d="M73.2588 24.3606L73.8303 22.6479H74.3341L73.593 24.7636H72.9246L72.1836 22.6479H72.6873L73.2588 24.3606Z" fill="#FBFBFB"/>
<path d="M75.1732 22.0532C75.1737 22.0935 75.1658 22.1335 75.1499 22.1706C75.1341 22.2078 75.1107 22.2413 75.0812 22.2691C75.0528 22.2978 75.0188 22.3206 74.9814 22.3362C74.944 22.3518 74.9038 22.3598 74.8632 22.3598C74.8226 22.3598 74.7825 22.3518 74.745 22.3362C74.7076 22.3206 74.6737 22.2978 74.6453 22.2691C74.6163 22.2409 74.5933 22.2073 74.5775 22.1703C74.5618 22.1332 74.5537 22.0934 74.5537 22.0532C74.5537 22.013 74.5618 21.9732 74.5775 21.9361C74.5933 21.899 74.6163 21.8654 74.6453 21.8373C74.6737 21.8086 74.7076 21.7858 74.745 21.7702C74.7825 21.7546 74.8226 21.7466 74.8632 21.7466C74.9038 21.7466 74.944 21.7546 74.9814 21.7702C75.0188 21.7858 75.0528 21.8086 75.0812 21.8373C75.1107 21.8651 75.1341 21.8986 75.1499 21.9357C75.1658 21.9729 75.1737 22.0129 75.1732 22.0532V22.0532ZM74.6259 22.648H75.1102V24.7637H74.6259V22.648Z" fill="#FBFBFB"/>
<path d="M75.5508 23.7083C75.5495 23.5609 75.5798 23.4149 75.64 23.28C75.7001 23.1452 75.7886 23.0246 75.8995 22.9263C76.0172 22.8166 76.1558 22.7313 76.3071 22.6753C76.4585 22.6193 76.6196 22.5937 76.781 22.6001C77.0631 22.6011 77.3371 22.6938 77.5608 22.8639L77.4058 23.2381C77.2298 23.0917 77.0106 23.0058 76.781 22.9935C76.6822 22.9895 76.5837 23.0063 76.4919 23.0427C76.4001 23.079 76.3171 23.1342 76.2483 23.2045C76.1151 23.3391 76.0406 23.5199 76.0406 23.7083C76.0406 23.8966 76.1151 24.0775 76.2483 24.212C76.3175 24.2815 76.4007 24.3358 76.4925 24.3713C76.5843 24.4068 76.6826 24.4229 76.781 24.4183C77.0129 24.4073 77.2352 24.3233 77.4155 24.1784L77.5705 24.5526C77.3432 24.7224 77.0658 24.8134 76.781 24.8117C76.4558 24.8242 76.1389 24.7086 75.8995 24.4902C75.7886 24.392 75.7001 24.2714 75.64 24.1365C75.5798 24.0017 75.5495 23.8557 75.5508 23.7083" fill="#FBFBFB"/>
<path d="M78.3611 23.9192C78.3867 24.0414 78.4512 24.1524 78.5451 24.2358C78.6948 24.3651 78.8892 24.4321 79.0876 24.4229C79.3323 24.422 79.5676 24.3295 79.7463 24.1638L79.8916 24.5188C79.665 24.7139 79.3732 24.8182 79.0731 24.8115C78.7526 24.8255 78.4389 24.7173 78.1964 24.5092C78.084 24.4095 77.9954 24.2864 77.9368 24.1487C77.8781 24.011 77.851 23.8622 77.8573 23.7129C77.8479 23.4172 77.9557 23.1297 78.1576 22.9117C78.259 22.808 78.3812 22.7267 78.5164 22.673C78.6516 22.6192 78.7967 22.5943 78.9423 22.5999C79.0878 22.5952 79.2326 22.6205 79.3677 22.6742C79.5027 22.7279 79.6251 22.8088 79.7269 22.9117C79.8258 23.0146 79.9033 23.1357 79.9548 23.2683C80.0063 23.4008 80.0309 23.5421 80.0272 23.6841C80.0348 23.7623 80.0348 23.841 80.0272 23.9192H78.3611ZM78.3611 23.5402H79.5429C79.5355 23.3965 79.4731 23.261 79.3685 23.1612C79.3145 23.1046 79.2491 23.0599 79.1765 23.0301C79.1039 23.0004 79.0257 22.9862 78.9471 22.9885C78.8651 22.9865 78.7837 23.0023 78.7084 23.0346C78.6332 23.0669 78.5659 23.115 78.5112 23.1756C78.4258 23.2797 78.3735 23.4066 78.3611 23.5402" fill="#FBFBFB"/>
<path d="M24.1746 14.7851C23.5433 14.3524 22.8296 14.0516 22.077 13.9011C21.3244 13.7506 20.5487 13.7536 19.7974 13.9099C19.046 14.0661 18.3346 14.3723 17.7067 14.8098C17.0789 15.2473 16.5477 15.807 16.1456 16.4545C15.5565 17.3674 14.7126 18.0915 13.7162 18.539C12.7198 18.9865 11.6137 19.1382 10.5319 18.9757C9.45018 18.8132 8.43928 18.3435 7.6218 17.6235C6.80431 16.9035 6.21535 15.9642 5.92634 14.9194V14.857C5.92296 14.8331 5.92296 14.8089 5.92634 14.7851C5.71198 14.0644 5.61387 13.3148 5.63561 12.5639C5.63561 7.55067 10.83 1.97137 18.3164 1.97137C25.982 1.97137 30.3623 7.72817 31.4913 10.9568C31.4913 10.8992 31.4574 10.8416 31.438 10.7841C30.1964 7.20886 27.7147 4.18529 24.4339 2.25069C21.1531 0.316091 17.2857 -0.404213 13.5192 0.217787C9.75258 0.839788 6.33073 2.7638 3.86174 5.64789C1.39275 8.53199 0.0365613 12.1894 0.0341797 15.97C0.0341797 23.852 5.77613 30.6067 13.747 30.6067C20.1043 30.6067 24.3781 27.0758 26.3454 22.2113C26.8995 20.9189 26.9907 19.4778 26.6038 18.127C26.2169 16.7763 25.3751 15.5971 24.2182 14.7851" fill="#FBFBFB"/>
<path d="M31.5581 11.2636C30.6181 8.13578 26.1989 1.97119 18.2813 1.97119C10.795 1.97119 5.60062 7.5505 5.60062 12.5637C5.57887 13.3147 5.677 14.0643 5.89135 14.7849C5.79413 14.4135 5.74368 14.0316 5.74114 13.6479C5.74114 8.42841 11.0228 4.80642 16.4546 4.80642C19.9827 4.80769 23.3658 6.19617 25.8601 8.66655C28.3544 11.1369 29.7556 14.4869 29.7556 17.9799C29.7599 20.6846 29.001 23.3367 27.5644 25.6372C26.1278 27.9377 24.0706 29.7951 21.6248 30.9999V30.9999C24.7459 29.8837 27.4438 27.8424 29.3513 25.1539C31.2588 22.4653 32.2831 19.2602 32.2849 15.9746C32.2892 14.3793 32.0491 12.7925 31.5726 11.2684" fill="#B0B0B0"/>
<path d="M50.9021 13.2016V17.5192H49.3466V14.5448H41.1093V13.2016H45.3055V11.3786H40.334V10.0353H51.8276V11.3786H46.8512V13.2016H50.9021ZM50.9021 5.35791V9.05186H49.3466V6.72035H41.2595V5.35791H50.9021Z" fill="#FBFBFB"/>
<path d="M57.5405 5.19021L61.0342 15.2646L59.7307 15.7875L57.5405 9.43586L55.3843 15.8883L54.0518 15.3654L57.5405 5.19021ZM61.7464 5.12305H63.2001V17.4186H61.7464V11.019H60.191V9.63255H61.7464V5.12305ZM64.3679 5.12305H65.87V17.5002H64.3679V5.12305Z" fill="#FBFBFB"/>
<path d="M68.9619 7.42571V6.13522H71.8934V4.95508H73.5458V6.13522H76.3174V7.42571H73.2744L76.4289 10.592L75.421 11.5514L72.6978 8.74977L70.0085 11.7721L68.9716 10.8126L72.1406 7.45449L68.9619 7.42571ZM78.9437 14.8472C78.9467 15.2514 78.859 15.6512 78.6869 16.0177C78.5155 16.3771 78.279 16.7023 77.9891 16.9772C77.6924 17.2595 77.3437 17.4826 76.9618 17.6345C76.1488 17.9586 75.2407 17.9586 74.4277 17.6345C74.0416 17.4852 73.6892 17.2618 73.3907 16.9772C73.1023 16.7022 72.8674 16.3769 72.6978 16.0177C72.5286 15.6511 72.4411 15.2527 72.4411 14.8496C72.4411 14.4465 72.5286 14.0481 72.6978 13.6814C72.8674 13.3223 73.1023 12.997 73.3907 12.722C73.6892 12.4374 74.0416 12.214 74.4277 12.0647C75.0222 11.8233 75.6745 11.7569 76.3063 11.8735C76.938 11.9901 77.5223 12.2847 77.9891 12.722C78.279 12.9968 78.5155 13.322 78.6869 13.6814C78.8579 14.0466 78.9456 14.4446 78.9437 14.8472V14.8472ZM77.4173 14.8472C77.4206 14.6236 77.3766 14.4018 77.2882 14.1961C77.1997 13.9904 77.0688 13.8053 76.9037 13.6527C76.7422 13.4955 76.5505 13.3721 76.3399 13.2897C76.1293 13.2073 75.9042 13.1676 75.6778 13.1729C75.2662 13.2264 74.8883 13.4262 74.6146 13.7351C74.3408 14.0441 74.1899 14.441 74.1899 14.852C74.1899 15.263 74.3408 15.6599 74.6146 15.9688C74.8883 16.2778 75.2662 16.4776 75.6778 16.5311C75.9042 16.5367 76.1294 16.4971 76.3401 16.4147C76.5507 16.3323 76.7424 16.2087 76.9037 16.0513C77.0695 15.8993 77.2009 15.7143 77.2895 15.5084C77.378 15.3025 77.4215 15.0805 77.4173 14.8568V14.8472ZM78.4494 11.7193V9.35904H76.2641V8.02058H78.4494V5.0942H80.0097V11.6858L78.4494 11.7193Z" fill="#FBFBFB"/>
</svg>
